<?xml version="1.0" encoding="UTF-8" standalone="no"?>
<!-- Generator: Adobe Illustrator 26.0.3, SVG Export Plug-In . SVG Version: 6.00 Build 0)  -->

<svg
   xmlns:osb="http://www.openswatchbook.org/uri/2009/osb"
   xmlns:dc="http://purl.org/dc/elements/1.1/"
   xmlns:cc="http://creativecommons.org/ns#"
   xmlns:rdf="http://www.w3.org/1999/02/22-rdf-syntax-ns#"
   xmlns:svg="http://www.w3.org/2000/svg"
   xmlns="http://www.w3.org/2000/svg"
   xmlns:sodipodi="http://sodipodi.sourceforge.net/DTD/sodipodi-0.dtd"
   xmlns:inkscape="http://www.inkscape.org/namespaces/inkscape"
   version="1.1"
   id="Layer_1"
   x="0px"
   y="0px"
   viewBox="0 0 1242.5 864"
   style="enable-background:new 0 0 1242.5 864;"
   xml:space="preserve"
   sodipodi:docname="barshape.svg"
   inkscape:version="0.92.4 (5da689c313, 2019-01-14)"><metadata
   id="metadata927"><rdf:RDF><cc:Work
       rdf:about=""><dc:format>image/svg+xml</dc:format><dc:type
         rdf:resource="http://purl.org/dc/dcmitype/StillImage" /></cc:Work></rdf:RDF></metadata><defs
   id="defs925"><linearGradient
     id="linearGradient856"
     osb:paint="solid"><stop
       style="stop-color:#000000;stop-opacity:1;"
       offset="0"
       id="stop854" /></linearGradient><linearGradient
     id="linearGradient850"
     osb:paint="solid"><stop
       style="stop-color:#fbbc34;stop-opacity:1;"
       offset="0"
       id="stop848" /></linearGradient><linearGradient
     id="linearGradient838"
     osb:paint="solid"><stop
       style="stop-color:#fbbc34;stop-opacity:1;"
       offset="0"
       id="stop836" /></linearGradient></defs><sodipodi:namedview
   pagecolor="#ffffff"
   bordercolor="#666666"
   borderopacity="1"
   objecttolerance="10"
   gridtolerance="10"
   guidetolerance="10"
   inkscape:pageopacity="0"
   inkscape:pageshadow="2"
   inkscape:window-width="1920"
   inkscape:window-height="1017"
   id="namedview923"
   showgrid="false"
   inkscape:zoom="0.98148148"
   inkscape:cx="455.68396"
   inkscape:cy="432"
   inkscape:window-x="-8"
   inkscape:window-y="-8"
   inkscape:window-maximized="1"
   inkscape:current-layer="Layer_1" />
<style
   type="text/css"
   id="style872">
	.st0{fill:#4BFF2A;stroke:#1A1A1A;stroke-width:2;stroke-linecap:round;stroke-linejoin:round;stroke-miterlimit:10;}
	.st1{fill:#2A2AFF;stroke:#1A1A1A;stroke-width:2;stroke-linecap:round;stroke-linejoin:round;stroke-miterlimit:10;}
	.st2{fill:#FFFFFF;stroke:#1A1A1A;stroke-width:2;stroke-linecap:round;stroke-linejoin:round;stroke-miterlimit:10;}
	.st3{fill:#1A1A1A;stroke:#1A1A1A;stroke-width:2;stroke-linecap:round;stroke-linejoin:round;stroke-miterlimit:10;}
	.st4{fill:none;stroke:#1A1A1A;stroke-width:3;stroke-linecap:round;stroke-linejoin:round;stroke-miterlimit:10;}
	.st5{fill:none;stroke:#1A1A1A;stroke-width:2;stroke-linecap:round;stroke-linejoin:round;stroke-miterlimit:10;}
	.st6{fill:#2A2AFF;stroke:#2A2AFF;stroke-width:2;stroke-linecap:round;stroke-linejoin:round;stroke-miterlimit:10;}
</style>
<g
   id="g920">
	<g
   id="g884">
		<path
   class="st0"
   d="M704.7,659.9h-5.2c-13.9,0-25.1-11.3-25.1-25.1v-45.1c0-13.9,11.3-25.1,25.1-25.1h5.2    c13.9,0,25.1,11.3,25.1,25.1v45.1C729.8,648.7,718.6,659.9,704.7,659.9z"
   id="path874"
   style="fill:#8f4f23;fill-opacity:1" />
		<path
   class="st0"
   d="M790.6,659.9h-5.2c-13.9,0-25.1-11.3-25.1-25.1V492c0-13.9,11.3-25.1,25.1-25.1h5.2    c13.9,0,25.1,11.3,25.1,25.1v142.7C815.7,648.7,804.5,659.9,790.6,659.9z"
   id="path876"
   style="fill:#8f4f23;fill-opacity:1" />
		<path
   class="st0"
   d="M876.5,659.9h-5.2c-13.9,0-25.1-11.3-25.1-25.1V401.4c0-13.9,11.3-25.1,25.1-25.1h5.2    c13.9,0,25.1,11.3,25.1,25.1v233.4C901.6,648.7,890.4,659.9,876.5,659.9z"
   id="path878"
   style="fill:#8f4f23;fill-opacity:1" />
		<path
   class="st0"
   d="M962.4,659.9h-5.2c-13.9,0-25.1-11.3-25.1-25.1V438.2c0-13.9,11.3-25.1,25.1-25.1h5.2    c13.9,0,25.1,11.3,25.1,25.1v196.6C987.5,648.7,976.3,659.9,962.4,659.9z"
   id="path880"
   style="fill:#8f4f23;fill-opacity:1" />
		<path
   class="st0"
   d="M1048.3,659.9h-5.2c-13.9,0-25.1-11.3-25.1-25.1v-338c0-13.9,11.3-25.1,25.1-25.1h5.2    c13.9,0,25.1,11.3,25.1,25.1v338C1073.4,648.7,1062.2,659.9,1048.3,659.9z"
   id="path882"
   style="fill-opacity:1;fill:#8f4f23" />
	</g>
	<path
   class="st1"
   d="M442.5,480.4c2.2-1.1,6.2-6.5,8.4-7.6c24.3-16.5,41.9-47.4,70.6-43c38.6,6.6,61.7,44.1,95.9,61.7   c17,8.8,36.9,13.2,56.9,13.3c55.6-70.6,196.7-169.3,126.4-227c-88.8-72.9-249.1-4.1-249.1-4.1S349.9,299.6,371.2,434   c6.9,43.7-22.7,65.3-64.4,80C354.8,533.5,401.8,510.2,442.5,480.4z"
   id="path886"
   style="fill:#c5d6e6;fill-opacity:1" />
	<path
   class="st2"
   d="M869.8,635.9c-90.4,6.3-203.6-18.1-216.2-82.5c-2.6-13.4,6.1-30.1,20.7-48.6c-20,0-39.8-4.5-56.9-13.3   c-34.2-17.6-57.3-55.1-95.9-61.7c-28.7-4.4-46.3,26.5-70.6,43c-2.5,2-6.2,6.5-8.4,7.6c-40.7,29.8-87.7,53.1-135.7,33.7   c-86.5,30.6-225.2,31.4-197.3,138c41.3,157.9,349,90.8,465.7,88.4c116.7-2.4,450.3,82.5,549.4-44.8   C1172.6,633.8,960.2,629.7,869.8,635.9z"
   id="path888" />
	<g
   id="g896">
		<path
   class="st2"
   d="M478.3,223l8,20.4c4.9,2.4,7.8,3.8,12.7,6.1l21-6.4c5.9,7.4,6.2,7.8,12.1,15.1l-10.9,19    c1.2,5.3,1.9,8.5,3.1,13.8l18.1,12.4c-2.1,9.2-2.2,9.7-4.3,18.9l-21.7,3.3c-3.4,4.2-5.4,6.8-8.8,11l1.6,21.9    c-8.5,4.1-8.9,4.3-17.4,8.4L475.7,352c-5.4,0-8.7,0-14.1,0l-16.1,14.9c-8.5-4.1-8.9-4.3-17.4-8.4l1.6-21.9    c-3.4-4.2-5.4-6.8-8.8-11l-21.7-3.3c-2.1-9.2-2.2-9.7-4.3-18.9l18.1-12.4c1.2-5.3,1.9-8.5,3.1-13.8l-10.9-19    c5.9-7.4,6.2-7.8,12.1-15.1l21,6.4c4.9-2.4,7.8-3.8,12.7-6.1l8-20.4C468.4,223,468.8,223,478.3,223z"
   id="path890" />
		<g
   id="g894">
			<ellipse
   class="st3"
   cx="468.6"
   cy="296.5"
   rx="25.6"
   ry="25.6"
   id="ellipse892" />
		</g>
	</g>
	<ellipse
   class="st2"
   cx="1096.6"
   cy="223.7"
   rx="22.1"
   ry="22.1"
   id="ellipse898" />
	<path
   class="st4"
   d="M348.3,343c-7.4-15.4-9.9-33.1-7-49.9c2.9-16.8,11.2-32.7,23.3-44.7"
   id="path900" />
	<path
   class="st5"
   d="M472,626.7l20.4,1.6c0,0-25.1,13.9-23.7,13.9c1.3,0,23.7,0,23.7,0l-13.8,11L494,656l-9.8,7.1l5.5,1.6"
   id="path902" />
	<polyline
   class="st5"
   points="914.1,551.3 923.5,540.7 923.7,564.6 934.8,550.5 940.3,565.8 950,561.3 953.9,570.7 960,567.1  "
   id="polyline904" />
	<path
   class="st2"
   d="M323.2,323.2c0,0-19.5-21.7,3.7-59.1"
   id="path906" />
	<g
   id="g918">
		<ellipse
   class="st2"
   cx="136.4"
   cy="378.3"
   rx="57.8"
   ry="57.8"
   id="ellipse908" />
		<ellipse
   class="st2"
   cx="136.4"
   cy="378.3"
   rx="49.6"
   ry="49.6"
   id="ellipse910"
   style="fill:#8f4f23;fill-opacity:1" />
		<g
   id="g916">
			<g
   id="g914">
				<path
   class="st6"
   d="M147.3,392.6c0-2.4-0.8-4.4-2.5-6c-1.7-1.6-4.5-3.1-8.5-4.4c-5.5-1.7-9.6-3.9-12.1-6.6      c-2.5-2.7-3.8-6.2-3.8-10.4c0-4.3,1.2-7.8,3.7-10.5c2.5-2.7,5.9-4.4,10.2-4.9v-8.5h5.8v8.6c4.4,0.6,7.8,2.4,10.2,5.5      c2.4,3.1,3.6,7.3,3.6,12.6h-7.2c0-3.7-0.9-6.6-2.6-8.8c-1.7-2.2-4.1-3.2-7.1-3.2c-3.1,0-5.5,0.8-7.1,2.4      c-1.6,1.6-2.5,3.8-2.5,6.7c0,2.7,0.9,4.8,2.6,6.3c1.7,1.6,4.6,3,8.5,4.3c4,1.3,7.1,2.7,9.3,4.3c2.2,1.5,3.9,3.3,4.9,5.4      c1.1,2.1,1.6,4.5,1.6,7.2c0,4.4-1.3,7.9-4,10.6c-2.6,2.7-6.3,4.3-11.1,4.8v7.4h-5.8v-7.4c-4.8-0.4-8.6-2.2-11.4-5.2      c-2.7-3-4.1-7.1-4.1-12.2h7.2c0,3.6,0.9,6.4,2.8,8.3c1.9,1.9,4.6,2.9,8.1,2.9c3.4,0,6.1-0.8,8-2.5      C146.3,397.6,147.3,395.4,147.3,392.6z"
   id="path912"
   style="fill:#ffcc00;fill-opacity:1;stroke-width:2;stroke-miterlimit:10;stroke-dasharray:none;stroke:#000000;stroke-opacity:0" />
			</g>
		</g>
	</g>
</g>
</svg>