<?xml version="1.0" encoding="UTF-8" standalone="no"?>
<svg
   width="866"
   height="683"
   viewBox="0 0 866 683"
   fill="none"
   version="1.1"
   id="svg159"
   sodipodi:docname="controlpanel.svg"
   inkscape:version="1.4.4 (dcaf3e7, 2026-05-05)"
   xmlns:inkscape="http://www.inkscape.org/namespaces/inkscape"
   xmlns:sodipodi="http://sodipodi.sourceforge.net/DTD/sodipodi-0.dtd"
   xmlns="http://www.w3.org/2000/svg"
   xmlns:svg="http://www.w3.org/2000/svg">
  <sodipodi:namedview
     id="namedview159"
     pagecolor="#ffffff"
     bordercolor="#000000"
     borderopacity="0.25"
     inkscape:showpageshadow="2"
     inkscape:pageopacity="0.0"
     inkscape:pagecheckerboard="0"
     inkscape:deskcolor="#d1d1d1"
     inkscape:zoom="1.193265"
     inkscape:cx="674.61963"
     inkscape:cy="356.58466"
     inkscape:window-width="1920"
     inkscape:window-height="1017"
     inkscape:window-x="-8"
     inkscape:window-y="-8"
     inkscape:window-maximized="1"
     inkscape:current-layer="svg159" />
  <path
     d="M455.229 663.977C328.263 660.839 225.757 634.983 226.276 606.226C226.795 577.47 330.142 556.702 457.108 559.84C584.074 562.978 686.579 588.834 686.06 617.591C685.541 646.347 582.194 667.115 455.229 663.977Z"
     fill="#0071F2"
     id="path1" />
  <path
     opacity="0.7"
     d="M455.229 663.977C328.263 660.839 225.757 634.983 226.276 606.226C226.795 577.47 330.142 556.702 457.108 559.84C584.074 562.978 686.579 588.834 686.06 617.591C685.541 646.347 582.194 667.115 455.229 663.977Z"
     fill="#30313A"
     id="path2"
     style="fill:#ffffff;fill-opacity:1;opacity:1;stroke:#000000;stroke-opacity:1;stroke-width:0.5;stroke-dasharray:none" />
  <path
     d="M761.527 182.086C796.921 274.864 682.647 315.883 633.744 372.212C613.764 395.226 576.962 425.751 576.962 425.751C576.962 425.751 534.727 497.244 336.5 392C315.179 380.774 289 342.095 289 318C289 285.5 293.687 272.745 303.5 248C315 219 341.5 183 341.5 158C341.5 131.515 367.5 138 367.5 105.5C367.5 73 336.193 140.866 412.5 111.5C428.769 105.32 426.563 30.2585 486.565 51.6549C561.729 78.4582 726.133 89.3083 761.527 182.086Z"
     fill="url(#paint0_linear_15_316)"
     id="path3"
     style="fill:none;stroke:#000000;stroke-opacity:1;stroke-width:0.5;stroke-dasharray:none" />
  <path
     d="M668.51 104.66C666.699 104.66 665.23 103.192 665.23 101.38C665.23 99.5686 666.699 98.1001 668.51 98.1001C670.322 98.1001 671.79 99.5686 671.79 101.38C671.79 103.192 670.322 104.66 668.51 104.66Z"
     fill="white"
     id="path4" />
  <path
     d="M658.72 104.66C656.909 104.66 655.44 103.192 655.44 101.38C655.44 99.5686 656.909 98.1001 658.72 98.1001C660.531 98.1001 662 99.5686 662 101.38C662 103.192 660.531 104.66 658.72 104.66Z"
     fill="white"
     id="path5" />
  <path
     d="M370.51 87.9299H672.33C681.001 87.9299 688.03 94.9591 688.03 103.63V383.92C688.03 392.591 681.001 399.62 672.33 399.62H370.51C361.839 399.62 354.81 392.591 354.81 383.92V103.63C354.81 94.9591 361.839 87.9299 370.51 87.9299Z"
     fill="#2F2E41"
     id="path6"
     style="fill:#000000" />
  <path
     d="M370.76 394.81L672.87 394.19C675.657 394.185 678.327 393.074 680.296 391.102C682.264 389.129 683.37 386.457 683.37 383.67V123C683.369 121.612 683.093 120.237 682.558 118.956C682.023 117.675 681.24 116.513 680.253 115.536C679.267 114.559 678.097 113.786 676.811 113.264C675.525 112.741 674.148 112.478 672.76 112.49H370.7C367.912 112.49 365.237 113.597 363.265 115.568C361.292 117.538 360.183 120.212 360.18 123V384.29C360.18 385.676 360.454 387.049 360.986 388.33C361.519 389.61 362.299 390.772 363.282 391.75C364.266 392.728 365.432 393.501 366.716 394.026C367.999 394.552 369.373 394.818 370.76 394.81Z"
     fill="#0071F2"
     id="path7"
     style="fill:none" />
  <path
     opacity="0.4"
     d="M370.76 394.81L672.87 394.19C675.657 394.185 678.327 393.074 680.296 391.102C682.264 389.129 683.37 386.457 683.37 383.67V123C683.369 121.612 683.093 120.237 682.558 118.956C682.023 117.675 681.24 116.513 680.253 115.536C679.267 114.559 678.097 113.786 676.811 113.264C675.525 112.741 674.148 112.478 672.76 112.49H370.7C367.912 112.49 365.237 113.597 363.265 115.568C361.292 117.538 360.183 120.212 360.18 123V384.29C360.18 385.676 360.454 387.049 360.986 388.33C361.519 389.61 362.299 390.772 363.282 391.75C364.266 392.728 365.432 393.501 366.716 394.026C367.999 394.552 369.373 394.818 370.76 394.81Z"
     fill="white"
     id="path8"
     style="fill:#ffffff;fill-opacity:1;opacity:0.7170418" />
  <path
     d="M648.68 104.66C646.868 104.66 645.4 103.192 645.4 101.38C645.4 99.5686 646.868 98.1001 648.68 98.1001C650.491 98.1001 651.96 99.5686 651.96 101.38C651.96 103.192 650.491 104.66 648.68 104.66Z"
     fill="white"
     id="path9" />
  <path
     opacity="0.4"
     d="M595.77 127.2H666.18C669.278 127.2 671.79 129.712 671.79 132.81V374.45C671.79 377.548 669.278 380.06 666.18 380.06H595.77C592.672 380.06 590.16 377.548 590.16 374.45V132.81C590.16 129.712 592.672 127.2 595.77 127.2Z"
     fill="white"
     id="path10"
     style="opacity:1;stroke:#000000;stroke-opacity:1;stroke-width:0.5;stroke-dasharray:none;fill:#ffffff" />
  <path
     d="M631.82 182.56C619.73 182.56 609.93 172.76 609.93 160.67C609.93 148.581 619.73 138.78 631.82 138.78C643.909 138.78 653.71 148.581 653.71 160.67C653.71 172.76 643.909 182.56 631.82 182.56Z"
     fill="white"
     id="path11" />
  <path
     d="M631.82 159.08C628.954 159.08 626.63 156.756 626.63 153.89C626.63 151.024 628.954 148.7 631.82 148.7C634.686 148.7 637.01 151.024 637.01 153.89C637.01 156.756 634.686 159.08 631.82 159.08Z"
     fill="#0071F2"
     id="path12"
     style="fill:#8f4f23;fill-opacity:1" />
  <path
     d="M641.38 171.52H621.15C620.893 171.522 620.64 171.459 620.413 171.338C620.187 171.217 619.994 171.041 619.853 170.826C619.712 170.611 619.626 170.365 619.605 170.109C619.584 169.852 619.627 169.595 619.73 169.36C621.14 166.2 624.64 160.67 631.82 160.67C631.82 160.67 639.47 160.67 642.82 169.4C642.913 169.635 642.947 169.889 642.919 170.14C642.891 170.391 642.803 170.632 642.661 170.841C642.519 171.05 642.328 171.221 642.105 171.339C641.881 171.458 641.633 171.52 641.38 171.52Z"
     fill="#0071F2"
     id="path13"
     style="fill:#8f4f23;fill-opacity:1" />
  <path
     opacity="0.4"
     d="M644.52 198.73H663.88V216.01H644.52V198.73Z"
     fill="white"
     id="path14"
     style="stroke:#000000;stroke-opacity:1;opacity:1;stroke-width:0.3;stroke-dasharray:none" />
  <path
     opacity="0.4"
     d="M597.56 223.16H663.88V228.46H597.56V223.16Z"
     fill="white"
     id="path15"
     style="stroke:#000000;stroke-opacity:1;opacity:1;stroke-width:0.3;stroke-dasharray:none" />
  <path
     opacity="0.4"
     d="M597.82 232.02H664.14V237.32H597.82V232.02Z"
     fill="white"
     id="path16"
     style="stroke:#000000;stroke-opacity:1;opacity:1;stroke-width:0.3;stroke-dasharray:none" />
  <path
     opacity="0.4"
     d="M597.56 240.87H663.88V246.17H597.56V240.87Z"
     fill="white"
     id="path17"
     style="stroke:#000000;stroke-opacity:1;opacity:1;stroke-width:0.3;stroke-dasharray:none" />
  <path
     opacity="0.4"
     d="M597.56 249.72H663.88V255.02H597.56V249.72Z"
     fill="white"
     id="path18"
     style="stroke:#000000;stroke-opacity:1;opacity:1;stroke-width:0.3;stroke-dasharray:none" />
  <path
     opacity="0.4"
     d="M600.16 263.03H661.28C662.716 263.03 663.88 264.194 663.88 265.63V304.61C663.88 306.046 662.716 307.21 661.28 307.21H600.16C598.724 307.21 597.56 306.046 597.56 304.61V265.63C597.56 264.194 598.724 263.03 600.16 263.03Z"
     fill="white"
     id="path19"
     style="stroke:#000000;stroke-opacity:1;opacity:1;stroke-width:0.3;stroke-dasharray:none" />
  <path
     opacity="0.4"
     d="M621.3 198.73H640.66V216.01H621.3V198.73Z"
     fill="white"
     id="path20"
     style="stroke:#000000;stroke-opacity:1;opacity:1;stroke-width:0.3;stroke-dasharray:none" />
  <path
     opacity="0.4"
     d="M597.56 198.73H616.92V216.01H597.56V198.73Z"
     fill="white"
     id="path21"
     style="stroke:#000000;stroke-opacity:1;opacity:1;stroke-width:0.3;stroke-dasharray:none" />
  <path
     opacity="0.4"
     d="M466.15 127.2H569.27C571.197 127.2 572.76 128.762 572.76 130.69V209.49C572.76 211.417 571.197 212.98 569.27 212.98H466.15C464.223 212.98 462.66 211.417 462.66 209.49V130.69C462.66 128.762 464.223 127.2 466.15 127.2Z"
     fill="white"
     id="path22"
     style="stroke:#000000;stroke-opacity:1;opacity:1;stroke-width:0.3;stroke-dasharray:none" />
  <path
     opacity="0.4"
     d="M563.97 138.79V200.66H472.51V138.79"
     stroke="white"
     stroke-miterlimit="10"
     id="path23"
     style="stroke:#000000;stroke-opacity:1" />
  <path
     d="M563.97 200.66C563.97 200.66 536.57 196.79 521.42 174.66C521.42 174.66 502.42 140.04 470.42 140.47"
     stroke="white"
     stroke-miterlimit="10"
     id="path24"
     style="stroke:#000000;stroke-opacity:1" />
  <path
     opacity="0.4"
     d="M541.46 138.79V200.66"
     stroke="white"
     stroke-miterlimit="10"
     id="path25"
     style="stroke:#000000;stroke-opacity:1" />
  <path
     opacity="0.4"
     d="M518.24 139.15V201.02"
     stroke="white"
     stroke-miterlimit="10"
     id="path26"
     style="stroke:#000000;stroke-opacity:1" />
  <path
     opacity="0.4"
     d="M495.37 139.15V201.02"
     stroke="white"
     stroke-miterlimit="10"
     id="path27"
     style="stroke:#000000;stroke-opacity:1" />
  <path
     opacity="0.4"
     d="M563.97 159.08H472.51"
     stroke="white"
     stroke-miterlimit="10"
     id="path28"
     style="fill:#000000;opacity:0.4;stroke:#050505;stroke-opacity:1" />
  <path
     opacity="0.4"
     d="M563.97 182.56H472.51"
     stroke="white"
     stroke-miterlimit="10"
     id="path29"
     style="fill:#000000;fill-opacity:1;opacity:0.4;stroke:#000000;stroke-opacity:1" />
  <path
     d="M340.99 127.2H445.81C447.688 127.2 449.21 128.722 449.21 130.6V209.58C449.21 211.458 447.688 212.98 445.81 212.98H340.99C339.112 212.98 337.59 211.458 337.59 209.58V130.6C337.59 128.722 339.112 127.2 340.99 127.2Z"
     fill="#0071F2"
     id="path30"
     style="fill:#8f4f23;fill-opacity:1;opacity:1" />
  <path
     opacity="0.4"
     d="M355.35 143.65H433.4C435.449 143.65 437.11 145.311 437.11 147.36V193.3C437.11 195.349 435.449 197.01 433.4 197.01H355.35C353.301 197.01 351.64 195.349 351.64 193.3V147.36C351.64 145.311 353.301 143.65 355.35 143.65Z"
     fill="white"
     id="path31"
     style="opacity:1" />
  <path
     d="M429.87 164.91V190.17H358.33V154.33"
     stroke="white"
     stroke-miterlimit="10"
     id="path32"
     style="stroke:#000000;stroke-opacity:1;stroke-width:0.3;stroke-dasharray:none" />
  <path
     d="M379.92 171.89C387.06 171.89 393.92 166.22 394.76 165.51C402.76 160.51 407.04 167.08 407.22 167.36C407.261 167.421 407.308 167.478 407.36 167.53C408.32 168.591 409.48 169.451 410.775 170.06C412.069 170.669 413.471 171.016 414.9 171.08C417.544 171.129 420.111 170.192 422.1 168.45C426.54 164.72 429.38 165.89 429.4 165.9C429.665 166.025 429.969 166.039 430.245 165.939C430.52 165.84 430.745 165.635 430.87 165.37C430.995 165.105 431.009 164.801 430.909 164.525C430.81 164.25 430.605 164.025 430.34 163.9C430.18 163.82 426.27 162.07 420.68 166.75C419.106 168.127 417.082 168.881 414.99 168.87C412.698 168.761 410.541 167.751 408.99 166.06C408.28 165.06 402.78 157.83 393.49 163.68L393.36 163.78C393.25 163.87 382.24 173.32 374.51 168.06C373.107 167.062 372.031 165.67 371.42 164.06C369.82 160.06 365.3 151.06 357.98 153.29C357.841 153.333 357.713 153.402 357.601 153.495C357.489 153.587 357.397 153.701 357.329 153.829C357.261 153.957 357.22 154.097 357.206 154.241C357.192 154.386 357.207 154.531 357.25 154.67C357.293 154.808 357.362 154.937 357.455 155.049C357.547 155.161 357.661 155.253 357.789 155.321C357.917 155.389 358.057 155.43 358.202 155.444C358.346 155.458 358.491 155.443 358.63 155.4C364.21 153.68 368 161.46 369.38 164.89C370.153 166.905 371.507 168.645 373.27 169.89C375.229 171.222 377.551 171.921 379.92 171.89Z"
     fill="#0071F2"
     id="path33"
     style="fill:#000000;fill-opacity:1" />
  <path
     opacity="0.4"
     d="M376.15 225.81H568.27C571.783 225.81 574.63 228.658 574.63 232.17V310.32C574.63 313.833 571.783 316.68 568.27 316.68H376.15C372.637 316.68 369.79 313.833 369.79 310.32V232.17C369.79 228.658 372.637 225.81 376.15 225.81Z"
     fill="white"
     id="path34"
     style="opacity:1;stroke:#000000;stroke-opacity:1;stroke-width:0.3;stroke-dasharray:none" />
  <path
     d="M514.66 271.25C514.66 271.68 514.6 272.13 514.6 272.57C514.598 274.92 515.124 277.241 516.138 279.361C517.152 281.481 518.629 283.346 520.46 284.82L511.71 298.25C507.652 295.31 504.348 291.45 502.071 286.986C499.794 282.522 498.608 277.581 498.61 272.57C498.614 271.038 498.724 269.507 498.94 267.99L514.66 271.25Z"
     fill="#2F2E41"
     id="path35"
     style="fill:#000000" />
  <path
     d="M499.62 264.62C501.711 256.591 506.857 249.697 513.96 245.41L521.75 259.41C518.652 261.425 516.362 264.466 515.28 268L499.62 264.62Z"
     fill="#F1F2F2"
     id="path36" />
  <path
     d="M467.22 242.01H476.41C478.36 242.01 479.94 243.59 479.94 245.54V302.73C479.94 304.68 478.36 306.26 476.41 306.26H467.22C465.27 306.26 463.69 304.68 463.69 302.73V245.54C463.69 243.59 465.27 242.01 467.22 242.01Z"
     fill="#0071F2"
     id="path37"
     style="fill:#8f4f23;fill-opacity:1" />
  <path
     opacity="0.2"
     d="M467.22 259.94H476.41C478.36 259.94 479.94 261.52 479.94 263.47V302.72C479.94 304.67 478.36 306.25 476.41 306.25H467.22C465.27 306.25 463.69 304.67 463.69 302.72V263.47C463.69 261.52 465.27 259.94 467.22 259.94Z"
     fill="black"
     id="path38" />
  <path
     d="M441.19 242.01H450.38C452.33 242.01 453.91 243.59 453.91 245.54V302.73C453.91 304.68 452.33 306.26 450.38 306.26H441.19C439.24 306.26 437.66 304.68 437.66 302.73V245.54C437.66 243.59 439.24 242.01 441.19 242.01Z"
     fill="#2F2E41"
     id="path39"
     style="fill:#000000" />
  <path
     opacity="0.2"
     d="M441.19 276.12H450.38C452.33 276.12 453.91 277.701 453.91 279.65V302.72C453.91 304.67 452.33 306.25 450.38 306.25H441.19C439.24 306.25 437.66 304.67 437.66 302.72V279.65C437.66 277.701 439.24 276.12 441.19 276.12Z"
     fill="black"
     id="path40" />
  <path
     d="M415.45 242.01H424.64C426.59 242.01 428.17 243.59 428.17 245.54V302.73C428.17 304.68 426.59 306.26 424.64 306.26H415.45C413.5 306.26 411.92 304.68 411.92 302.73V245.54C411.92 243.59 413.5 242.01 415.45 242.01Z"
     fill="#0071F2"
     id="path41"
     style="fill:#8f4f23;fill-opacity:1" />
  <path
     opacity="0.2"
     d="M415.45 288.29H424.64C426.59 288.29 428.17 289.87 428.17 291.82V302.73C428.17 304.68 426.59 306.26 424.64 306.26H415.45C413.5 306.26 411.92 304.68 411.92 302.73V291.82C411.92 289.87 413.5 288.29 415.45 288.29Z"
     fill="black"
     id="path42" />
  <path
     d="M388.8 242.01H397.99C399.94 242.01 401.52 243.59 401.52 245.54V302.73C401.52 304.68 399.94 306.26 397.99 306.26H388.8C386.85 306.26 385.27 304.68 385.27 302.73V245.54C385.27 243.59 386.85 242.01 388.8 242.01Z"
     fill="#2F2E41"
     id="path43"
     style="fill:#000000" />
  <path
     opacity="0.2"
     d="M388.8 267.99H397.99C399.94 267.99 401.52 269.57 401.52 271.52V302.73C401.52 304.68 399.94 306.26 397.99 306.26H388.8C386.85 306.26 385.27 304.68 385.27 302.73V271.52C385.27 269.57 386.85 267.99 388.8 267.99Z"
     fill="black"
     id="path44" />
  <path
     opacity="0.4"
     d="M513.78 333.95H571.53C573.242 333.95 574.63 335.338 574.63 337.05V376.96C574.63 378.672 573.242 380.06 571.53 380.06H513.78C512.068 380.06 510.68 378.672 510.68 376.96V337.05C510.68 335.338 512.068 333.95 513.78 333.95Z"
     fill="white"
     id="path45"
     style="fill:none" />
  <path
     opacity="0.4"
     d="M372.89 333.95H501.38C503.092 333.95 504.48 335.338 504.48 337.05V376.96C504.48 378.672 503.092 380.06 501.38 380.06H372.89C371.178 380.06 369.79 378.672 369.79 376.96V337.05C369.79 335.338 371.178 333.95 372.89 333.95Z"
     fill="white"
     id="path46"
     style="fill:#ffffff;opacity:1;stroke:#000000;stroke-opacity:1;stroke-width:0.3;stroke-dasharray:none" />
  <path
     d="M504.48 350.26C501.796 350.959 499.283 352.2 497.095 353.906C494.908 355.612 493.092 357.747 491.76 360.18C491.76 360.18 486.28 368.18 479.51 362.31C478.786 361.659 478.181 360.888 477.72 360.03C475.8 356.58 469.23 346.32 460.35 349.08C460.35 349.08 452.8 349.79 448.35 358.29C448.35 358.29 443.69 367.06 436.02 364.2C434.389 363.565 432.943 362.534 431.81 361.2L426.16 354.77C426.16 354.77 420.49 348.05 415.06 348.64C415.06 348.64 409.51 348.59 402.54 356.7C402.54 356.7 395.22 367.38 386.96 364.79C386.96 364.79 383.21 363.21 380.41 357.79C380.051 357.073 379.654 356.375 379.22 355.7C377.59 353.23 373.67 347.94 369.86 347.84"
     stroke="white"
     stroke-miterlimit="10"
     id="path47"
     style="stroke:#000000;stroke-opacity:1" />
  <path
     opacity="0.4"
     d="M504.48 356.48H369.8"
     stroke="white"
     stroke-miterlimit="10"
     id="path48"
     style="stroke:#000000;stroke-opacity:1" />
  <path
     opacity="0.4"
     d="M481.35 333.95V380.06"
     stroke="white"
     stroke-miterlimit="10"
     id="path49"
     style="fill:#050505;opacity:0.4;fill-opacity:1;stroke:#000000;stroke-opacity:1" />
  <path
     opacity="0.4"
     d="M458.87 333.95V380.06"
     stroke="white"
     stroke-miterlimit="10"
     id="path50"
     style="stroke:#000000;stroke-opacity:1" />
  <path
     opacity="0.4"
     d="M437.14 333.95V380.06"
     stroke="white"
     stroke-miterlimit="10"
     id="path51"
     style="stroke:#000000;stroke-opacity:1" />
  <path
     opacity="0.4"
     d="M414.84 333.95V380.06"
     stroke="white"
     stroke-miterlimit="10"
     id="path52"
     style="stroke:#000000;stroke-opacity:1" />
  <path
     opacity="0.4"
     d="M392.33 333.95V380.06"
     stroke="white"
     stroke-miterlimit="10"
     id="path53"
     style="stroke:#000000;stroke-opacity:1" />
  <path
     d="M527.89 359L524.32 358.87L524.55 352.96L528.19 353.1C528.742 350.954 529.767 348.958 531.19 347.26L528.59 344.32L533.03 340.41L535.76 343.51C537.287 342.71 538.942 342.182 540.65 341.95L540.82 337.51L546.73 337.73L546.55 342.34C548.357 342.837 550.054 343.672 551.55 344.8L554.34 342.17L558.4 346.48L555.49 349.21C556.384 350.757 556.996 352.45 557.3 354.21L560.95 354.35L560.72 360.26L557.15 360.12C556.725 361.969 555.951 363.721 554.87 365.28L557.87 368.72L553.44 372.63L550.57 369.38C548.985 370.388 547.224 371.087 545.38 371.44L545.23 375.49L539.32 375.27L539.47 371.38C537.613 370.989 535.847 370.246 534.27 369.19L531.65 371.65L527.6 367.35L530.1 364.99C528.937 363.177 528.183 361.133 527.89 359ZM542.26 367C544.359 367.04 546.421 366.454 548.186 365.317C549.95 364.18 551.336 362.543 552.167 360.615C552.998 358.688 553.236 356.557 552.851 354.493C552.466 352.43 551.475 350.528 550.005 349.03C548.535 347.531 546.652 346.504 544.597 346.08C542.541 345.656 540.406 345.853 538.463 346.647C536.519 347.441 534.857 348.795 533.686 350.537C532.516 352.28 531.89 354.331 531.89 356.43C531.877 357.805 532.135 359.169 532.649 360.444C533.163 361.72 533.923 362.881 534.886 363.863C535.849 364.844 536.996 365.627 538.261 366.165C539.526 366.703 540.885 366.987 542.26 367Z"
     fill="#0071F2"
     id="path54"
     style="fill:#8f4f23;fill-opacity:1" />
  <path
     d="M395.39 520.15L432.22 643.54H422.18L390.07 534.95V643.54H379.33V534.32L347.22 643.54H335.57L372.41 520.15H395.39Z"
     fill="#BCBEC0"
     id="path55"
     style="fill:#ffffff;fill-opacity:1;stroke:#000000;stroke-opacity:1;stroke-width:0.5;stroke-dasharray:none" />
  <path
     d="M439.72 367.15C438.295 367.15 437.14 365.995 437.14 364.57C437.14 363.145 438.295 361.99 439.72 361.99C441.145 361.99 442.3 363.145 442.3 364.57C442.3 365.995 441.145 367.15 439.72 367.15Z"
     fill="#0071F2"
     id="path56" />
  <path
     d="M540.26 490.21H551.44V646.07H540.26V490.21Z"
     fill="#D1D3D4"
     id="path57"
     style="stroke:#000000;stroke-opacity:1;stroke-width:0.5;stroke-dasharray:none;fill:#ffffff;fill-opacity:1" />
  <path
     d="M260.69 490.21H271.87V646.07H260.69V490.21Z"
     fill="#D1D3D4"
     id="path58"
     style="stroke:#000000;stroke-opacity:1;stroke-width:0.5;stroke-dasharray:none;fill:#ffffff;fill-opacity:1" />
  <path
     d="M474.36 410.75L446.05 409.83L414.71 451.02L444.66 451.98L474.36 410.75Z"
     fill="#0071F2"
     id="path59"
     style="fill:#ffffff;stroke:#000000;stroke-opacity:1;stroke-width:0.5;stroke-dasharray:none" />
  <path
     d="M356.76 351.59C358.29 355.73 378.12 360.1 378.12 360.1C378.04 359.84 377.95 359.57 377.88 359.32C377.481 357.784 377.329 356.194 377.43 354.61C371.947 349.631 368.422 342.858 367.49 335.51C367.11 333.086 367.002 330.628 367.17 328.18L362.04 319.97L353.21 320.79L359.35 336.5L357.46 341.58C357.96 344.48 356.76 351.59 356.76 351.59Z"
     fill="#F9B499"
     id="path60"
     style="fill:#ffffff" />
  <path
     d="M377.87 359.32C377.471 357.784 377.319 356.194 377.42 354.61C371.937 349.631 368.412 342.858 367.48 335.51L365.77 332.61C365.77 332.61 356.3 352.43 377.87 359.32Z"
     fill="#F7A48B"
     id="path61"
     style="fill:#ffffff" />
  <path
     d="M392.28 414.29C411.52 418.29 421.8 402.13 421.8 402.13L441.76 375.89C442.06 375.496 442.255 375.032 442.325 374.542C442.395 374.052 442.338 373.552 442.16 373.09C440.7 369.3 436.31 365.82 434.16 364.31C433.769 364.028 433.316 363.845 432.839 363.775C432.362 363.705 431.875 363.752 431.42 363.91C422.36 367.24 403.93 389.72 403.59 389.5C403.25 389.28 383.41 371.79 383.41 371.79L381.75 366.59C380.22 359.74 378.09 360.1 378.09 360.1C378.09 360.1 357.55 355.49 356.72 351.6V349C356.72 349 354.72 348.88 346.45 364.47C346.45 364.47 339.6 374.38 338.31 394.34L340.43 459.15H394.6V455C394.6 455 403.89 454.84 406.6 452.8L411.84 452.73C412.105 452.73 412.36 452.625 412.547 452.437C412.735 452.25 412.84 451.995 412.84 451.73V437C412.84 436.735 412.735 436.48 412.547 436.293C412.36 436.105 412.105 436 411.84 436L397.48 436.07C396.937 435.124 396.205 434.3 395.329 433.649C394.453 432.999 393.453 432.536 392.39 432.29L392.28 414.29Z"
     fill="#85B7EF"
     id="path62"
     style="fill:#8f4f23;fill-opacity:1" />
  <path
     opacity="0.2"
     d="M425.57 367.5C426.968 369.565 428.533 371.512 430.25 373.32C431.937 375.169 433.78 376.869 435.76 378.4C432.93 374.285 429.506 370.612 425.6 367.5H425.57Z"
     fill="black"
     id="path63" />
  <path
     opacity="0.2"
     d="M403.61 389.5C403.96 391.6 404.28 393.62 404.46 395.67C404.56 396.67 404.63 397.72 404.67 398.75C404.71 399.78 404.73 400.82 404.79 401.89C405.531 399.867 405.791 397.7 405.55 395.56C405.454 394.495 405.246 393.442 404.93 392.42C404.639 391.386 404.194 390.401 403.61 389.5Z"
     fill="black"
     id="path64" />
  <path
     opacity="0.2"
     d="M383.43 371.79C384.01 373.37 384.61 374.94 385.14 376.53C385.67 378.12 386.26 379.7 386.77 381.29C387.77 384.49 388.77 387.68 389.61 390.93C390.465 394.159 391.133 397.434 391.61 400.74C391.76 401.56 391.82 402.39 391.9 403.22C391.994 404.05 392.045 404.885 392.05 405.72C392.05 406.56 392.14 407.4 392.05 408.23C391.96 409.06 391.93 409.9 391.89 410.75C392.593 407.432 392.768 404.023 392.41 400.65C392.108 397.271 391.513 393.925 390.63 390.65C389.787 387.378 388.752 384.16 387.53 381.01C386.352 377.856 384.983 374.777 383.43 371.79Z"
     fill="black"
     id="path65" />
  <path
     opacity="0.2"
     d="M379.02 360.46C378.027 361.993 377.06 363.537 376.12 365.09C375.19 366.66 374.24 368.21 373.33 369.78L373.99 369.6C370.47 367.44 366.9 365.36 363.31 363.32C361.52 362.32 359.7 361.32 357.88 360.32C356.06 359.32 354.23 358.4 352.37 357.48C354.08 358.65 355.8 359.8 357.55 360.89C359.3 361.98 361.03 363.11 362.8 364.17C366.34 366.31 369.89 368.4 373.5 370.41L373.94 370.65L374.16 370.23C375.01 368.62 375.82 366.99 376.65 365.37C377.48 363.75 378.26 362.12 379.02 360.46Z"
     fill="black"
     id="path66" />
  <path
     opacity="0.2"
     d="M397.12 438.45C396.735 440.261 396.55 442.109 396.57 443.96C396.545 445.811 396.729 447.66 397.12 449.47C397.511 447.66 397.695 445.811 397.67 443.96C397.69 442.109 397.505 440.261 397.12 438.45Z"
     fill="black"
     id="path67" />
  <path
     opacity="0.2"
     d="M390.33 431.53C386.874 430.039 383.319 428.789 379.69 427.79C376.056 426.757 372.333 426.067 368.57 425.73L368.91 426.1C369.1 420.96 369.3 415.82 369.43 410.68L369.89 395.24L369.99 391.39V389.45C369.99 388.76 369.9 388.12 369.81 387.45C369.478 384.835 368.721 382.292 367.57 379.92C366.425 377.523 364.687 375.458 362.52 373.92C360.301 372.444 357.738 371.569 355.08 371.38C352.686 371.184 350.29 371.733 348.22 372.95C346.189 374.154 344.517 375.881 343.38 377.95C342.796 378.953 342.304 380.008 341.91 381.1C341.54 382.19 341.24 383.31 340.91 384.43C340.58 385.55 340.48 386.7 340.35 387.84L340.08 391.28L340.51 387.86C340.68 386.73 340.96 385.62 341.19 384.5C341.42 383.38 341.84 382.31 342.24 381.25C342.666 380.206 343.184 379.202 343.79 378.25C344.923 376.304 346.552 374.692 348.51 373.58C350.452 372.499 352.677 372.032 354.89 372.24C357.394 372.475 359.8 373.331 361.89 374.73C363.918 376.198 365.536 378.16 366.59 380.43C367.699 382.686 368.432 385.108 368.76 387.6C368.847 388.217 368.9 388.838 368.92 389.46L368.87 391.38L368.77 395.23L368.43 410.66C368.3 415.8 368.23 420.94 368.16 426.09V426.44H368.51C372.238 426.702 375.935 427.291 379.56 428.2C383.214 429.09 386.811 430.202 390.33 431.53Z"
     fill="black"
     id="path68" />
  <path
     opacity="0.2"
     d="M368.55 426.1C367.34 426.184 366.15 426.45 365.02 426.89C363.885 427.329 362.802 427.893 361.79 428.57C360.782 429.259 359.87 430.079 359.08 431.01C358.281 431.929 357.651 432.982 357.22 434.12C358.05 433.25 358.81 432.37 359.69 431.61C360.551 430.839 361.463 430.128 362.42 429.48C364.361 428.178 366.412 427.047 368.55 426.1Z"
     fill="black"
     id="path69" />
  <path
     opacity="0.2"
     d="M387.89 455.14C385.71 454.76 383.53 454.39 381.36 453.96C379.19 453.53 377.03 453.13 374.87 452.65C370.56 451.72 366.26 450.72 362.05 449.44C357.817 448.269 353.695 446.729 349.73 444.84C347.757 443.899 345.898 442.734 344.19 441.37C342.42 440.055 341.038 438.286 340.19 436.25C340.849 438.399 342.104 440.317 343.81 441.78C345.495 443.257 347.344 444.535 349.32 445.59C353.297 447.627 357.464 449.271 361.76 450.5C366.04 451.719 370.379 452.72 374.76 453.5C379.105 454.275 383.488 454.822 387.89 455.14Z"
     fill="black"
     id="path70" />
  <path
     opacity="0.2"
     d="M343.52 449.47C344.01 450.657 344.627 451.786 345.36 452.84C346.082 453.908 346.895 454.912 347.79 455.84C348.694 456.781 349.723 457.592 350.85 458.25C351.967 458.972 353.297 459.29 354.62 459.15C353.411 458.868 352.283 458.314 351.32 457.53C350.342 456.785 349.425 455.963 348.58 455.07C346.83 453.3 345.24 451.37 343.52 449.47Z"
     fill="black"
     id="path71" />
  <path
     d="M412.76 448.48C412.76 448.48 420.17 450.86 427.01 448.48C427.01 448.48 448.21 440.17 444.82 434.12C444.82 434.12 442.9 426.12 429.47 434.12C429.47 434.12 427.79 434.8 428.56 432.79L430.98 429.61C430.98 429.61 426.65 428.84 420.58 432.06C419.652 432.562 418.781 433.162 417.98 433.85C416.437 435.197 414.671 436.263 412.76 437V448.48Z"
     fill="#F9B499"
     id="path72"
     style="fill:#ffffff;stroke:#000000;stroke-opacity:1;stroke-width:0.5;stroke-dasharray:none" />
  <path
     d="M439.91 431.53C437.927 432.144 436.011 432.954 434.19 433.95C432.35 434.905 430.611 436.044 429 437.35C430.982 436.739 432.896 435.925 434.71 434.92C436.553 433.969 438.296 432.833 439.91 431.53Z"
     fill="#F7A48B"
     id="path73"
     style="fill:#000000" />
  <path
     d="M442.33 434.44C438.822 435.539 435.568 437.327 432.76 439.7C434.523 439.178 436.221 438.457 437.82 437.55C439.435 436.686 440.948 435.643 442.33 434.44Z"
     fill="#F7A48B"
     id="path74"
     style="fill:#000000" />
  <path
     d="M442.33 438.45C441.076 438.707 439.87 439.162 438.76 439.8C437.641 440.406 436.628 441.189 435.76 442.12C438.272 441.57 440.567 440.294 442.36 438.45H442.33Z"
     fill="#F7A48B"
     id="path75"
     style="fill:#000000" />
  <path
     d="M459.06 347.43L451.85 351.95C451.364 352.253 450.806 352.421 450.233 352.439C449.661 352.456 449.094 352.322 448.59 352.05C439.85 347.4 434.18 364.31 434.18 364.31C440.3 368.49 441.78 372.31 441.78 372.31C449.4 371.63 458.36 361.31 461.01 358.11C461.233 357.834 461.355 357.49 461.355 357.135C461.355 356.78 461.233 356.436 461.01 356.16C460.881 355.993 460.72 355.855 460.537 355.752C460.353 355.649 460.151 355.584 459.941 355.562C459.732 355.54 459.52 355.56 459.319 355.621C459.118 355.683 458.931 355.784 458.77 355.92L454.34 359.59C454.219 359.691 454.072 359.755 453.915 359.774C453.759 359.793 453.6 359.765 453.459 359.695C453.318 359.625 453.2 359.516 453.12 359.38C453.041 359.244 453.002 359.087 453.01 358.93L453.12 356.41C453.142 355.964 453.27 355.529 453.492 355.141C453.715 354.754 454.026 354.424 454.4 354.18L460.76 350C460.936 349.886 461.086 349.738 461.203 349.564C461.32 349.391 461.401 349.195 461.44 348.99C461.479 348.784 461.476 348.573 461.432 348.368C461.387 348.164 461.301 347.971 461.18 347.8C460.943 347.476 460.59 347.256 460.195 347.187C459.799 347.118 459.393 347.205 459.06 347.43Z"
     fill="#F9B499"
     id="path76"
     style="fill:#ffffff;stroke:#000000;stroke-opacity:1;stroke-width:0.5;stroke-dasharray:none" />
  <path
     d="M495.3 612.38L497.12 618.66L488.24 631.56L475.33 627.03L474.38 624.02L473.75 612.38H495.3Z"
     fill="#F9B499"
     id="path77"
     style="fill:#ffffff;stroke:#000000;stroke-opacity:1;stroke-width:0.5;stroke-dasharray:none" />
  <path
     d="M433.62 505.33H338.76C336.657 505.33 334.64 506.166 333.153 507.653C331.665 509.14 330.83 511.157 330.83 513.26V514.88C330.833 516.982 331.669 518.996 333.156 520.481C334.643 521.966 336.659 522.8 338.76 522.8H433.66V505.33H433.62Z"
     fill="#D1D3D4"
     id="path78"
     style="fill:#000000;fill-opacity:1" />
  <path
     d="M560.43 467H251.24V490.13C251.24 491.337 251.719 492.494 252.573 493.347C253.426 494.201 254.583 494.68 255.79 494.68H555.88C556.478 494.68 557.069 494.562 557.621 494.334C558.173 494.105 558.675 493.77 559.097 493.347C559.52 492.925 559.855 492.423 560.084 491.871C560.312 491.319 560.43 490.728 560.43 490.13V467Z"
     fill="#BCBEC0"
     id="path79"
     style="fill:#ffffff;fill-opacity:1;stroke:#000000;stroke-opacity:1;stroke-width:0.5;stroke-dasharray:none" />
  <path
     d="M380.23 353.8C373.001 353.8 367.14 342.952 367.14 329.57C367.14 316.188 373.001 305.34 380.23 305.34C387.459 305.34 393.32 316.188 393.32 329.57C393.32 342.952 387.459 353.8 380.23 353.8Z"
     fill="#F9B499"
     id="path80"
     style="fill:#ffffff;stroke:#000000;stroke-opacity:1;stroke-width:0.5;stroke-dasharray:none" />
  <path
     d="M391.96 318.82C391.96 318.82 395.54 311.39 391.96 305.34C391.96 305.34 388.88 298.43 381.96 302.84C381.96 302.84 374.87 299.06 369.44 303.78C365.921 306.14 362 307.835 357.87 308.78C357.87 308.78 345.87 309.49 350.55 322.48C350.55 322.48 356.46 333.34 357.4 341.6C357.4 341.6 363.48 341.16 361.97 335.36L363.51 325.36L365.76 332.6C365.138 336.614 365.432 340.716 366.62 344.6C367.527 347.425 369.254 349.916 371.582 351.756C373.909 353.596 376.732 354.701 379.69 354.93C380.313 354.965 380.937 354.965 381.56 354.93C384.185 354.755 386.681 353.726 388.667 352C390.653 350.274 392.02 347.945 392.56 345.37C392.859 344.327 392.827 343.217 392.469 342.192C392.11 341.168 391.444 340.28 390.56 339.65C388.426 338.156 385.898 337.325 383.293 337.263C380.688 337.201 378.123 337.909 375.92 339.3C375.92 339.3 368.24 343.9 368.92 333.87C368.92 333.87 365.39 308.72 378.92 315.21C379.06 315.23 385.27 307.41 391.96 318.82Z"
     fill="#2F2E41"
     id="path81"
     style="fill:#000000;fill-opacity:1" />
  <path
     d="M383 337.11C380.299 337.11 378.11 335.418 378.11 333.33C378.11 331.242 380.299 329.55 383 329.55C385.701 329.55 387.89 331.242 387.89 333.33C387.89 335.418 385.701 337.11 383 337.11Z"
     fill="#F9B499"
     id="path82"
     style="fill:#ffffff" />
  <path
     d="M355.947 329.164C355.133 326.126 356.115 323.224 358.14 322.681C360.165 322.138 362.466 324.161 363.281 327.198C364.095 330.236 363.113 333.138 361.088 333.681C359.063 334.224 356.762 332.201 355.947 329.164Z"
     fill="#F9B499"
     id="path83"
     style="fill:#ffffff" />
  <path
     d="M396.25 601.63L390.07 612.84L402.82 622.11L411.47 613.49L412.47 604.15L396.25 601.63Z"
     fill="#F9B499"
     id="path84"
     style="fill:#ffffff;stroke:#000000;stroke-opacity:1;stroke-width:0.5;stroke-dasharray:none" />
  <path
     d="M393.42 603.18L414.64 614.54L450.76 544.9L471.98 614.54L495.26 612.38L475.5 494.69H349.07C349.07 494.69 356.46 511.43 390.33 508.44L421.18 508.74L393.42 603.18Z"
     fill="#2F2E41"
     id="path85"
     style="fill:#ffffff;fill-opacity:1;stroke:#000000;stroke-opacity:1;stroke-width:0.5;stroke-dasharray:none" />
  <path
     opacity="0.2"
     d="M449.01 541.91C449.507 537.685 449.382 533.409 448.64 529.22C447.938 524.969 446.354 520.912 443.99 517.31C441.52 513.717 437.957 511.017 433.83 509.61C429.736 508.352 425.407 508.054 421.18 508.74C422.24 508.74 423.29 508.74 424.34 508.74C425.39 508.74 426.45 508.8 427.48 508.99L429.03 509.19L430.56 509.52C431.073 509.62 431.577 509.757 432.07 509.93C432.56 510.1 433.07 510.22 433.54 510.42C437.429 511.881 440.767 514.516 443.09 517.96C445.382 521.426 446.969 525.31 447.76 529.39C448.229 531.436 448.563 533.51 448.76 535.6C448.968 537.697 449.052 539.804 449.01 541.91Z"
     fill="black"
     id="path86"
     style="fill:#010101;fill-opacity:1;opacity:1;stroke-width:0.6;stroke-dasharray:none" />
  <path
     d="M385.52 624L427.92 643.55C427.92 643.55 434.49 637.76 426.92 629.07L415 613.72C414.753 613.411 414.419 613.182 414.042 613.063C413.664 612.944 413.26 612.939 412.88 613.05C409.22 614.17 400.33 617.39 399.69 617.48C399.56 617.48 395.17 612.08 392.69 609.42C392.541 609.258 392.355 609.133 392.148 609.057C391.942 608.981 391.72 608.955 391.501 608.981C391.282 609.008 391.073 609.086 390.89 609.209C390.707 609.332 390.556 609.497 390.45 609.69L384.37 620.58C384.206 620.877 384.106 621.205 384.076 621.543C384.046 621.881 384.086 622.221 384.194 622.542C384.302 622.864 384.476 623.16 384.704 623.41C384.932 623.661 385.21 623.862 385.52 624Z"
     fill="#0071F2"
     id="path87"
     style="fill:#8f4f23;fill-opacity:1;stroke:#000000;stroke-opacity:1;stroke-width:0.5;stroke-dasharray:none" />
  <path
     d="M478.04 641.38L527.7 634C527.7 634 530.02 624.82 518.02 621.36L498.07 614.43C497.667 614.286 497.23 614.27 496.818 614.385C496.407 614.499 496.04 614.739 495.77 615.07C493.19 618.27 487.26 626.5 486.72 626.95C486.55 627.1 479.41 624.71 475.58 623.75C475.35 623.69 475.109 623.687 474.877 623.741C474.646 623.796 474.431 623.905 474.251 624.06C474.071 624.216 473.931 624.412 473.844 624.633C473.757 624.855 473.725 625.094 473.75 625.33L474.97 638.88C474.997 639.25 475.099 639.61 475.27 639.939C475.441 640.268 475.678 640.558 475.965 640.793C476.253 641.027 476.585 641.2 476.942 641.301C477.299 641.402 477.672 641.429 478.04 641.38Z"
     fill="#0071F2"
     id="path88"
     style="fill:#8f4f23;fill-opacity:1;stroke:#000000;stroke-opacity:1;stroke-width:0.5;stroke-dasharray:none" />
  <path
     d="M241.68 459.15H569.48C571.446 459.15 573.04 460.744 573.04 462.71V463.44C573.04 465.406 571.446 467 569.48 467H241.68C239.714 467 238.12 465.406 238.12 463.44V462.71C238.12 460.744 239.714 459.15 241.68 459.15Z"
     fill="#D1D3D4"
     id="path89"
     style="fill:#000000;fill-opacity:1" />
  <path
     d="M563.79 203.48C561.167 203.48 559.04 201.353 559.04 198.73C559.04 196.107 561.167 193.98 563.79 193.98C566.413 193.98 568.54 196.107 568.54 198.73C568.54 201.353 566.413 203.48 563.79 203.48Z"
     fill="#2F2E41"
     id="path90"
     style="fill:#000000" />
  <path
     d="M509.62 163.83C506.997 163.83 504.87 161.703 504.87 159.08C504.87 156.457 506.997 154.33 509.62 154.33C512.243 154.33 514.37 156.457 514.37 159.08C514.37 161.703 512.243 163.83 509.62 163.83Z"
     fill="#2F2E41"
     id="path91"
     style="fill:#000000" />
  <path
     d="M472.51 145.19C469.887 145.19 467.76 143.063 467.76 140.44C467.76 137.817 469.887 135.69 472.51 135.69C475.133 135.69 477.26 137.817 477.26 140.44C477.26 143.063 475.133 145.19 472.51 145.19Z"
     fill="#0071F2"
     id="path92"
     style="fill:#8f4f23;fill-opacity:1" />
  <path
     d="M530.73 189.23C528.107 189.23 525.98 187.103 525.98 184.48C525.98 181.857 528.107 179.73 530.73 179.73C533.353 179.73 535.48 181.857 535.48 184.48C535.48 187.103 533.353 189.23 530.73 189.23Z"
     fill="#0071F2"
     id="path93"
     style="fill:#8f4f23;fill-opacity:1" />
  <path
     d="M517.06 243.77C521.998 241.496 527.437 240.53 532.856 240.964C538.275 241.398 543.491 243.218 548.004 246.249C552.516 249.28 556.174 253.42 558.626 258.272C561.077 263.124 562.24 268.525 562.003 273.956C561.766 279.387 560.137 284.666 557.272 289.286C554.406 293.905 550.402 297.711 545.642 300.337C540.882 302.963 535.527 304.322 530.091 304.282C524.655 304.242 519.321 302.805 514.6 300.11L523.33 286.65C525.658 287.803 528.235 288.361 530.832 288.274C533.428 288.187 535.963 287.457 538.208 286.15C540.453 284.843 542.339 283 543.697 280.785C545.055 278.57 545.843 276.053 545.989 273.459C546.136 270.865 545.637 268.276 544.537 265.922C543.437 263.568 541.771 261.524 539.687 259.973C537.603 258.421 535.167 257.41 532.597 257.031C530.027 256.652 527.403 256.916 524.96 257.8L517.06 243.77Z"
     fill="#0071F2"
     id="path94"
     style="fill:#8f4f23;fill-opacity:1" />
  <path
     d="M486.54 366.21C485.115 366.21 483.96 365.055 483.96 363.63C483.96 362.205 485.115 361.05 486.54 361.05C487.965 361.05 489.12 362.205 489.12 363.63C489.12 365.055 487.965 366.21 486.54 366.21Z"
     fill="#0071F2"
     id="path95"
     style="fill:#8f4f23;fill-opacity:1" />
  <path
     d="M460.36 351.87C458.935 351.87 457.78 350.715 457.78 349.29C457.78 347.865 458.935 346.71 460.36 346.71C461.785 346.71 462.94 347.865 462.94 349.29C462.94 350.715 461.785 351.87 460.36 351.87Z"
     fill="#0071F2"
     id="path96"
     style="fill:#8f4f23;fill-opacity:1" />
  <path
     d="M414.84 351.87C413.415 351.87 412.26 350.715 412.26 349.29C412.26 347.865 413.415 346.71 414.84 346.71C416.265 346.71 417.42 347.865 417.42 349.29C417.42 350.715 416.265 351.87 414.84 351.87Z"
     fill="#0071F2"
     id="path97"
     style="fill:#8f4f23;fill-opacity:1" />
  <path
     d="M380.05 359.06C378.625 359.06 377.47 357.905 377.47 356.48C377.47 355.055 378.625 353.9 380.05 353.9C381.475 353.9 382.63 355.055 382.63 356.48C382.63 357.905 381.475 359.06 380.05 359.06Z"
     fill="#0071F2"
     id="path98"
     style="fill:#8f4f23;fill-opacity:1" />
  <path
     d="M640.62 545.9C640.62 545.9 664 500.8 687.38 507.9C690.455 508.86 693.213 510.637 695.358 513.041C697.503 515.445 698.955 518.386 699.56 521.55C701.55 532 696.08 548.28 640.62 545.9Z"
     fill="#0071F2"
     id="path99"
     style="fill:#ffffff;stroke:#000000;stroke-opacity:1;stroke-width:0.5;stroke-dasharray:none" />
  <path
     opacity="0.2"
     d="M640.62 545.9C645.9 544.43 651.09 542.68 656.23 540.79C661.37 538.9 666.43 536.79 671.42 534.52C673.91 533.35 676.35 532.11 678.77 530.81C681.201 529.528 683.561 528.116 685.84 526.58C688.142 525.063 690.304 523.342 692.3 521.44C694.2 519.49 696.01 517.18 696.46 514.44C695.624 517.039 694.045 519.336 691.92 521.05C689.888 522.848 687.699 524.461 685.38 525.87C680.744 528.73 675.927 531.285 670.96 533.52C666.04 535.87 660.96 537.95 655.96 540.01C653.43 541.01 650.88 542.01 648.33 543.01C645.78 544.01 643.19 544.94 640.62 545.9Z"
     fill="black"
     id="path101" />
  <path
     opacity="0.2"
     d="M683.84 508.87C682.334 511.877 681.372 515.127 681 518.47C680.808 520.13 680.777 521.804 680.91 523.47C681.06 525.152 681.454 526.802 682.08 528.37C681.873 526.735 681.77 525.088 681.77 523.44C681.77 521.8 681.89 520.18 682.09 518.55C682.29 516.92 682.54 515.31 682.83 513.7C683.12 512.09 683.46 510.5 683.84 508.87Z"
     fill="black"
     id="path102" />
  <path
     opacity="0.2"
     d="M688.54 524.21C688.898 525.245 689.552 526.153 690.42 526.82C691.274 527.502 692.242 528.026 693.28 528.37C694.302 528.709 695.365 528.91 696.44 528.97C696.97 528.97 697.51 528.97 698.04 528.97C698.57 528.97 699.09 528.85 699.61 528.74C699.09 528.6 698.61 528.52 698.06 528.43L696.55 528.14C695.563 527.93 694.588 527.666 693.63 527.35C692.684 527.038 691.772 526.63 690.91 526.13C690.023 525.619 689.223 524.971 688.54 524.21Z"
     fill="black"
     id="path103" />
  <path
     opacity="0.2"
     d="M668.61 511.85C667.673 515.549 667.385 519.383 667.76 523.18C667.964 525.084 668.356 526.963 668.93 528.79C669.529 530.607 670.417 532.316 671.56 533.85C670.805 532.142 670.2 530.372 669.75 528.56C669.349 526.749 669.052 524.916 668.86 523.07C668.68 521.22 668.6 519.36 668.56 517.49C668.52 515.62 668.53 513.75 668.61 511.85Z"
     fill="black"
     id="path104" />
  <path
     opacity="0.2"
     d="M676.52 531.43C677.263 532.704 678.232 533.833 679.38 534.76C680.521 535.718 681.79 536.512 683.15 537.12C684.505 537.721 685.934 538.138 687.4 538.36C688.128 538.478 688.863 538.541 689.6 538.55C690.332 538.546 691.063 538.503 691.79 538.42C690.35 538.15 688.95 537.9 687.58 537.52C686.21 537.161 684.872 536.689 683.58 536.11C682.29 535.554 681.052 534.885 679.88 534.11C678.683 533.317 677.559 532.42 676.52 531.43Z"
     fill="black"
     id="path105" />
  <path
     opacity="0.2"
     d="M656.71 522.54C655.896 525.353 655.621 528.295 655.9 531.21C656.018 532.688 656.355 534.141 656.9 535.52C657.399 536.925 658.287 538.16 659.46 539.08C658.643 537.924 658.049 536.625 657.71 535.25C657.356 533.89 657.121 532.501 657.01 531.1C656.87 529.7 656.81 528.28 656.78 526.85L656.71 522.54Z"
     fill="black"
     id="path106" />
  <path
     opacity="0.2"
     d="M665.35 536.63C665.612 537.539 665.992 538.409 666.48 539.22C666.945 540.042 667.491 540.816 668.11 541.53C668.726 542.251 669.424 542.899 670.19 543.46C670.957 544.039 671.835 544.455 672.77 544.68C671.385 543.502 670.104 542.207 668.94 540.81C667.76 539.45 666.64 538 665.35 536.63Z"
     fill="black"
     id="path107" />
  <path
     d="M665.94 596.71L663.57 636.85H620.13L617.06 596.71H665.94Z"
     fill="#2F2E41"
     id="path108"
     style="fill:#8f4f23;fill-opacity:1" />
  <path
     d="M627.45 514.78C627.45 514.78 644.92 533.43 641.5 588.92"
     stroke="#2F2E41"
     stroke-miterlimit="10"
     id="path109" />
  <path
     d="m 639.39927,549.20371 c 0,0 -19.11,-47.07 -43.05,-42.14 -3.15,0.671 -6.06,2.184 -8.418,4.379 -2.358,2.194 -4.076,4.987 -4.972,8.081 -2.94,10.18 1,26.92 56.44,29.68 z"
     fill="#0071F2"
     id="path110"
     style="fill:#ffffff;stroke:#000000;stroke-width:0.5;stroke-dasharray:none;stroke-opacity:1" />
  <path
     d="M640.76 546.75C640.76 546.75 623.83 498.86 645.02 486.66C647.823 485.074 651.003 484.279 654.222 484.358C657.441 484.437 660.579 485.388 663.3 487.11C672.22 492.77 680.38 507.91 640.76 546.75Z"
     fill="#0071F2"
     id="path111"
     style="fill:#ffffff;stroke:#000000;stroke-opacity:1;stroke-width:0.5;stroke-dasharray:none" />
  <path
     opacity="0.2"
     d="M641.11 547.13C643.64 542.28 645.92 537.3 648.06 532.25C650.2 527.2 652.11 522.08 653.86 516.88C654.707 514.267 655.48 511.633 656.18 508.98C656.909 506.33 657.493 503.643 657.93 500.93C658.4 498.212 658.62 495.458 658.59 492.7C658.47 489.98 658.03 487.08 656.33 484.88C657.658 487.265 658.256 489.988 658.05 492.71C657.957 495.424 657.622 498.125 657.05 500.78C655.968 506.121 654.538 511.385 652.77 516.54C651.12 521.73 649.19 526.84 647.22 531.94C646.22 534.49 645.22 537.02 644.22 539.55C643.22 542.08 642.17 544.61 641.11 547.13Z"
     fill="black"
     id="path112" />
  <path
     opacity="0.2"
     d="M643.64 490.28C644.806 493.435 646.519 496.36 648.7 498.92C649.791 500.204 651.003 501.38 652.32 502.43C653.646 503.471 655.118 504.31 656.69 504.92C655.357 503.952 654.084 502.904 652.88 501.78C651.72 500.63 650.59 499.46 649.54 498.21C648.49 496.96 647.48 495.66 646.54 494.34C645.6 493.02 644.57 491.67 643.64 490.28Z"
     fill="black"
     id="path113" />
  <path
     opacity="0.2"
     d="M657.66 497C658.659 497.449 659.768 497.595 660.85 497.42C661.93 497.269 662.976 496.93 663.94 496.42C664.885 495.905 665.759 495.27 666.54 494.53C666.92 494.15 667.27 493.75 667.62 493.35C667.97 492.95 668.25 492.49 668.52 492.04C668.07 492.33 667.65 492.65 667.24 492.96L665.99 493.86C665.167 494.442 664.308 494.973 663.42 495.45C662.546 495.931 661.624 496.319 660.67 496.61C659.693 496.894 658.677 497.025 657.66 497Z"
     fill="black"
     id="path114" />
  <path
     opacity="0.2"
     d="M635.4 503.43C637.456 506.644 640.059 509.473 643.09 511.79C644.613 512.954 646.252 513.96 647.98 514.79C649.715 515.596 651.569 516.116 653.47 516.33C651.708 515.709 650.002 514.939 648.37 514.03C646.773 513.09 645.233 512.054 643.76 510.93C642.28 509.8 640.87 508.59 639.48 507.34C638.09 506.09 636.76 504.78 635.4 503.43Z"
     fill="black"
     id="path115" />
  <path
     opacity="0.2"
     d="M655.09 511C656.532 511.338 658.024 511.405 659.49 511.2C660.957 511.033 662.395 510.663 663.76 510.1C665.13 509.528 666.415 508.771 667.58 507.85C668.167 507.399 668.719 506.905 669.23 506.37C669.73 505.83 670.23 505.27 670.63 504.69C669.45 505.55 668.31 506.41 667.09 507.14C663.476 509.417 659.352 510.757 655.09 511.04V511Z"
     fill="black"
     id="path116" />
  <path
     opacity="0.2"
     d="M634.68 519C636.177 521.516 638.134 523.728 640.45 525.52C641.609 526.444 642.896 527.195 644.27 527.75C645.639 528.342 647.145 528.539 648.62 528.32C647.214 528.126 645.857 527.667 644.62 526.97C643.382 526.305 642.207 525.528 641.11 524.65C639.99 523.8 638.91 522.87 637.85 521.92L634.68 519Z"
     fill="black"
     id="path117" />
  <path
     opacity="0.2"
     d="M650.87 522.38C651.714 522.804 652.607 523.119 653.53 523.32C654.45 523.535 655.387 523.666 656.33 523.71C657.281 523.748 658.234 523.681 659.17 523.51C660.11 523.354 661.011 523.014 661.82 522.51C660.011 522.714 658.188 522.764 656.37 522.66C654.57 522.55 652.76 522.38 650.87 522.38Z"
     fill="black"
     id="path118" />
  <g
     opacity="0.2"
     id="g126">
    <path
       d="M640.14 549.5C637.67 548.31 635.2 547.13 632.76 545.9C630.32 544.67 627.87 543.48 625.44 542.22C620.59 539.71 615.76 537.16 611.08 534.37C606.336 531.671 601.773 528.664 597.42 525.37C595.243 523.747 593.212 521.937 591.35 519.96C589.392 518.06 588.036 515.625 587.45 512.96C587.64 515.73 589.23 518.2 590.95 520.32C592.758 522.398 594.749 524.309 596.9 526.03C599.026 527.773 601.246 529.399 603.55 530.9C605.83 532.42 608.16 533.9 610.55 535.27C615.31 538 620.15 540.57 625.1 542.92C630.05 545.27 635.02 547.55 640.14 549.5Z"
       fill="black"
       id="path119" />
    <path
       d="M600.53 508.64C600.75 510.29 600.92 511.94 601.08 513.57C601.24 515.2 601.34 516.84 601.37 518.48C601.4 520.12 601.37 521.74 601.24 523.37C601.089 525.011 600.835 526.641 600.48 528.25C601.246 526.75 601.788 525.147 602.09 523.49C602.379 521.84 602.506 520.165 602.47 518.49C602.41 515.118 601.753 511.783 600.53 508.64Z"
       fill="black"
       id="path120" />
    <path
       d="M594.43 523.47C593.678 524.161 592.82 524.728 591.89 525.15C590.987 525.579 590.042 525.914 589.07 526.15C588.081 526.378 587.079 526.549 586.07 526.66L584.54 526.82C584.02 526.82 583.54 526.89 582.97 526.98C583.48 527.14 583.97 527.25 584.52 527.36C585.07 527.47 585.57 527.49 586.11 527.52C587.185 527.565 588.262 527.464 589.31 527.22C590.379 526.974 591.396 526.537 592.31 525.93C593.246 525.34 593.984 524.483 594.43 523.47Z"
       fill="black"
       id="path121" />
    <path
       d="M615.42 513C615.32 514.89 615.14 516.76 614.95 518.62C614.76 520.48 614.49 522.32 614.13 524.15C613.767 525.968 613.303 527.764 612.74 529.53C612.12 531.291 611.354 532.997 610.45 534.63C611.73 533.209 612.773 531.592 613.54 529.84C614.279 528.074 614.838 526.238 615.21 524.36C615.934 520.614 616.005 516.77 615.42 513Z"
       fill="black"
       id="path122" />
    <path
       d="M605.76 531.77C604.629 532.649 603.425 533.429 602.16 534.1C600.916 534.768 599.618 535.33 598.28 535.78C596.946 536.224 595.578 536.559 594.19 536.78C592.79 537.03 591.37 537.15 589.91 537.29C590.62 537.43 591.35 537.54 592.08 537.62C594.301 537.776 596.53 537.491 598.64 536.78C600.062 536.308 601.409 535.635 602.64 534.78C603.854 533.974 604.911 532.954 605.76 531.77Z"
       fill="black"
       id="path123" />
    <path
       d="M626.28 524.75L625.83 529.04C625.67 530.46 625.48 531.87 625.2 533.25C624.969 534.634 624.607 535.994 624.12 537.31C623.656 538.649 622.947 539.89 622.03 540.97C623.283 540.16 624.281 539.013 624.91 537.66C625.57 536.334 626.035 534.919 626.29 533.46C626.832 530.582 626.828 527.627 626.28 524.75Z"
       fill="black"
       id="path124" />
    <path
       d="M616.38 538C614.96 539.26 613.72 540.58 612.38 541.82C611.096 543.107 609.7 544.278 608.21 545.32C609.163 545.175 610.075 544.834 610.89 544.32C611.704 543.827 612.462 543.247 613.15 542.59C613.824 541.93 614.436 541.21 614.98 540.44C615.545 539.687 616.015 538.868 616.38 538Z"
       fill="black"
       id="path125" />
    <path
       d="M628.5 544.18C627.33 544.81 626.32 545.48 625.28 546.09C624.76 546.42 624.28 546.7 623.7 547L622.03 547.9C623.362 548.073 624.712 547.768 625.84 547.04C626.404 546.698 626.922 546.285 627.38 545.81C627.852 545.342 628.232 544.789 628.5 544.18Z"
       fill="black"
       id="path126" />
  </g>
  <path
     d="M641.46 586.79C641.46 586.79 620.38 529.45 590.77 548.79C588.746 550.104 587.211 552.047 586.4 554.32C583.31 563.07 581.48 585.28 641.46 586.79Z"
     fill="#0071F2"
     id="path127"
     style="fill:#ffffff;stroke:#000000;stroke-opacity:1;stroke-width:0.5;stroke-dasharray:none" />
  <path
     opacity="0.4"
     d="M641.46 586.79C641.46 586.79 620.38 529.45 590.77 548.79C588.746 550.104 587.211 552.047 586.4 554.32C583.31 563.07 581.48 585.28 641.46 586.79Z"
     fill="white"
     id="path128"
     style="fill:none;fill-opacity:1" />
  <path
     opacity="0.2"
     d="m 641.36629,585.4837 c -4.8,-2.29 -9.63,-4.53 -14.37,-6.92 -4.74,-2.39 -9.48,-4.81 -14.07,-7.47 -4.631,-2.575 -9.096,-5.437 -13.37,-8.57 -2.128,-1.565 -4.134,-3.29 -6,-5.16 -1.921,-1.829 -3.463,-4.017 -4.54,-6.44 0.896,2.522 2.305,4.831 4.14,6.78 1.813,1.972 3.779,3.798 5.88,5.46 4.233,3.268 8.694,6.229 13.35,8.86 4.66,2.59 9.4,5 14.24,7.27 2.43,1.11 4.86,2.18 7.31,3.22 2.45,1.04 4.94,2.03 7.43,2.97 z"
     fill="#000000"
     id="path129" />
  <path
     opacity="0.2"
     d="m 606.38436,547.68033 c -0.05,3 0.08,5.84 0.11,8.72 0,1.44 0,2.88 -0.06,4.31 -0.019,1.438 -0.283,2.861 -0.78,4.21 0.904,-1.198 1.467,-2.618 1.63,-4.11 0.228,-1.462 0.331,-2.94 0.31,-4.42 -0.032,-2.943 -0.439,-5.87 -1.21,-8.71 z"
     fill="#000000"
     id="path130" />
  <path
     opacity="0.2"
     d="M617.06 550L616.41 555.24C616.18 556.98 615.94 558.71 615.62 560.42C615.346 562.134 614.958 563.828 614.46 565.49C614.006 567.176 613.279 568.777 612.31 570.23C613.65 569.006 614.678 567.481 615.31 565.78C615.967 564.115 616.45 562.385 616.75 560.62C617.362 557.113 617.467 553.537 617.06 550Z"
     fill="black"
     id="path131" />
  <path
     opacity="0.2"
     d="M605.76 570.27C604.7 570.88 603.64 571.43 602.57 571.93C601.5 572.43 600.41 572.93 599.29 573.28C598.17 573.63 597.05 574.03 595.9 574.28C594.75 574.53 593.58 574.82 592.39 575.12C594.846 575.422 597.338 575.134 599.66 574.28C600.825 573.861 601.939 573.311 602.98 572.64C604.027 572.004 604.966 571.203 605.76 570.27Z"
     fill="black"
     id="path132" />
  <path
     opacity="0.2"
     d="M595.41 562.55C593.678 562.845 591.963 563.229 590.27 563.7C588.58 564.15 586.95 564.58 585.18 564.91C586.054 565.175 586.97 565.274 587.88 565.2C588.779 565.143 589.669 564.999 590.54 564.77C591.407 564.545 592.253 564.248 593.07 563.88C593.9 563.531 594.686 563.085 595.41 562.55Z"
     fill="black"
     id="path133" />
  <path
     opacity="0.2"
     d="M627.45 560.85C627.16 563.85 626.96 566.85 626.56 569.73C626.364 571.182 626.07 572.618 625.68 574.03C625.349 575.463 624.625 576.776 623.59 577.82C624.955 577.051 625.987 575.804 626.49 574.32C627.052 572.895 627.442 571.408 627.65 569.89C628.059 566.885 627.992 563.834 627.45 560.85Z"
     fill="black"
     id="path134" />
  <path
     opacity="0.2"
     d="M619.04 575.51C617.33 576.76 615.8 578.12 614.21 579.4C613.43 580.06 612.63 580.69 611.82 581.29C611 581.905 610.122 582.441 609.2 582.89C610.275 582.849 611.324 582.551 612.26 582.02C613.206 581.53 614.095 580.936 614.91 580.25C615.722 579.579 616.481 578.847 617.18 578.06C617.887 577.277 618.511 576.422 619.04 575.51Z"
     fill="black"
     id="path135" />
  <path
     opacity="0.2"
     d="M630.9 581.3C629.65 581.98 628.57 582.73 627.45 583.45C626.9 583.82 626.34 584.16 625.78 584.52C625.22 584.88 624.65 585.21 624.05 585.61C625.481 585.628 626.881 585.194 628.05 584.37C628.64 583.984 629.184 583.531 629.67 583.02C630.177 582.523 630.594 581.941 630.9 581.3Z"
     fill="black"
     id="path136" />
  <path
     d="M643.06 587.08C643.06 587.08 664.35 528.5 694.25 548.25C696.298 549.597 697.847 551.578 698.66 553.89C701.76 562.85 703.63 585.54 643.06 587.08Z"
     fill="#0071F2"
     id="path137"
     style="fill:#ffffff;stroke:#000000;stroke-opacity:1;stroke-width:0.5;stroke-dasharray:none" />
  <path
     opacity="0.2"
     d="M643.45 586.05C645.97 585.083 648.473 584.083 650.96 583.05C653.45 581.99 655.91 580.89 658.36 579.75C663.26 577.47 668.05 574.97 672.76 572.31C677.463 569.637 681.968 566.629 686.24 563.31C688.361 561.613 690.34 559.747 692.16 557.73C694.016 555.738 695.436 553.382 696.33 550.81C695.237 553.247 693.686 555.45 691.76 557.3C689.884 559.211 687.861 560.974 685.71 562.57C681.395 565.774 676.883 568.703 672.2 571.34C667.56 574.06 662.79 576.54 657.98 578.97C653.17 581.4 648.31 583.7 643.45 586.05Z"
     fill="black"
     id="path138" />
  <path
     opacity="0.2"
     d="M682.97 544.71C682.198 547.611 681.792 550.598 681.76 553.6C681.744 555.109 681.847 556.617 682.07 558.11C682.242 559.634 682.811 561.085 683.72 562.32C683.212 560.942 682.942 559.488 682.92 558.02C682.86 556.55 682.84 555.09 682.86 553.61C682.89 550.66 683.02 547.71 682.97 544.71Z"
     fill="black"
     id="path139" />
  <path
     opacity="0.2"
     d="M667.7 549.53C667.305 553.142 667.426 556.792 668.06 560.37C668.354 562.174 668.84 563.94 669.51 565.64C670.132 567.378 671.161 568.941 672.51 570.2C671.526 568.715 670.79 567.081 670.33 565.36C669.831 563.659 669.437 561.929 669.15 560.18C668.84 558.43 668.59 556.66 668.36 554.89L667.7 549.53Z"
     fill="black"
     id="path140" />
  <path
     opacity="0.2"
     d="M679.14 570.2C679.934 571.163 680.88 571.991 681.94 572.65C682.99 573.331 684.114 573.891 685.29 574.32C687.639 575.193 690.162 575.494 692.65 575.2C691.44 574.9 690.25 574.67 689.09 574.35C687.93 574.03 686.79 573.69 685.67 573.29C684.55 572.89 683.45 572.41 682.36 571.91C681.27 571.41 680.21 570.83 679.14 570.2Z"
     fill="black"
     id="path141" />
  <path
     opacity="0.2"
     d="M689.56 562.32C690.294 562.856 691.086 563.308 691.92 563.67C692.748 564.037 693.604 564.338 694.48 564.57C695.36 564.805 696.261 564.956 697.17 565.02C698.087 565.089 699.008 564.991 699.89 564.73C698.1 564.4 696.46 563.96 694.76 563.51C693.049 563.021 691.313 562.623 689.56 562.32Z"
     fill="black"
     id="path142" />
  <path
     opacity="0.2"
     d="M657.21 560.58C656.663 563.624 656.596 566.735 657.01 569.8C657.209 571.352 657.598 572.874 658.17 574.33C658.675 575.842 659.718 577.116 661.1 577.91C660.05 576.84 659.316 575.501 658.98 574.04C658.58 572.6 658.286 571.133 658.1 569.65C657.68 566.67 657.5 563.64 657.21 560.58Z"
     fill="black"
     id="path143" />
  <path
     opacity="0.2"
     d="M665.7 575.55C666.233 576.481 666.863 577.352 667.58 578.15C668.285 578.951 669.047 579.7 669.86 580.39C670.685 581.086 671.584 581.689 672.54 582.19C673.485 582.738 674.549 583.05 675.64 583.1C674.705 582.642 673.817 582.093 672.99 581.46C672.16 580.85 671.36 580.21 670.57 579.54C668.96 578.23 667.42 576.83 665.7 575.55Z"
     fill="black"
     id="path144" />
  <path
     opacity="0.2"
     d="M653.76 581.47C654.075 582.117 654.494 582.708 655 583.22C655.494 583.732 656.04 584.192 656.63 584.59C657.814 585.435 659.235 585.887 660.69 585.88C660.08 585.47 659.49 585.14 658.93 584.77C658.37 584.4 657.79 584.06 657.24 583.67C656.08 582.94 654.99 582.17 653.76 581.47Z"
     fill="black"
     id="path145" />
  <path
     opacity="0.2"
     d="M635.71 574.16C635.453 575.526 635.27 576.905 635.16 578.29L634.96 580.29L634.7 582.37C635.632 581.236 636.178 579.835 636.26 578.37C636.335 577.655 636.335 576.935 636.26 576.22C636.177 575.51 635.992 574.817 635.71 574.16Z"
     fill="black"
     id="path146" />
  <path
     d="M615.76 457.12C621.62 458.12 628.21 462.49 631.31 476.12C632.591 481.917 632.959 487.879 632.4 493.79L630.23 518.73C630.23 518.73 582.08 490.41 598.93 464.97C602.61 459.34 609.11 456 615.76 457.12Z"
     fill="#0071F2"
     id="path147"
     style="fill:#ffffff;stroke:#000000;stroke-opacity:1;stroke-width:0.5;stroke-dasharray:none" />
  <path
     opacity="0.2"
     d="M605.76 458.77C607.25 461.05 608.76 463.35 610.08 465.71C611.4 468.07 612.82 470.41 614.08 472.8C616.66 477.59 619.08 482.46 621.21 487.46C623.369 492.439 625.222 497.545 626.76 502.75L627.85 506.67C628.23 507.98 628.44 509.32 628.75 510.67C629.44 513.31 629.68 516.02 630.16 518.67C629.841 513.208 628.977 507.791 627.58 502.5C626.141 497.215 624.336 492.036 622.18 487C619.981 481.993 617.51 477.109 614.78 472.37C612.08 467.641 609.066 463.097 605.76 458.77Z"
     fill="black"
     id="path148" />
  <path
     opacity="0.2"
     d="M619.98 458.48C619.408 460.701 618.544 462.836 617.41 464.83C616.842 465.812 616.172 466.73 615.41 467.57C614.644 468.434 613.819 469.242 612.94 469.99C614.074 469.59 615.119 468.976 616.02 468.18C616.481 467.782 616.909 467.347 617.3 466.88C617.665 466.402 617.999 465.901 618.3 465.38C618.906 464.336 619.361 463.212 619.65 462.04C619.964 460.881 620.075 459.677 619.98 458.48Z"
     fill="black"
     id="path149" />
  <path
     opacity="0.2"
     d="M627.95 466.71C627.62 468.21 627.21 469.71 626.77 471.11C626.343 472.534 625.794 473.919 625.13 475.25C624.489 476.572 623.675 477.802 622.71 478.91C621.683 479.995 620.479 480.898 619.15 481.58C620.694 481.269 622.131 480.563 623.32 479.53C624.47 478.442 625.418 477.159 626.12 475.74C627.464 472.937 628.093 469.845 627.95 466.74V466.71Z"
     fill="black"
     id="path150" />
  <path
     opacity="0.2"
     d="M596.39 470C599.05 472.279 602.176 473.948 605.55 474.89C607.233 475.381 608.969 475.67 610.72 475.75C612.465 475.84 614.214 475.672 615.91 475.25C614.201 475.25 612.493 475.133 610.8 474.9C609.109 474.666 607.438 474.308 605.8 473.83C604.174 473.362 602.575 472.804 601.01 472.16C599.49 471.49 597.93 470.8 596.39 470Z"
     fill="black"
     id="path151" />
  <path
     opacity="0.2"
     d="M619.98 486.36C618.15 486.82 616.298 487.184 614.43 487.45C612.585 487.716 610.724 487.863 608.86 487.89C607.004 487.943 605.147 487.836 603.31 487.57L601.92 487.37L600.55 487.07C599.61 486.93 598.75 486.56 597.8 486.36C599.47 487.31 601.274 488.005 603.15 488.42C605.029 488.849 606.954 489.041 608.88 488.99C612.73 488.954 616.523 488.055 619.98 486.36Z"
     fill="black"
     id="path152" />
  <path
     opacity="0.2"
     d="M632.66 485.09C632.137 485.969 631.545 486.805 630.89 487.59C630.258 488.352 629.551 489.049 628.78 489.67C628.014 490.299 627.19 490.855 626.32 491.33C625.45 491.83 624.51 492.21 623.55 492.66C624.615 492.672 625.673 492.485 626.67 492.11C627.692 491.751 628.643 491.216 629.48 490.53C630.318 489.844 631.032 489.018 631.59 488.09C632.16 487.179 632.525 486.156 632.66 485.09Z"
     fill="black"
     id="path153" />
  <path
     opacity="0.2"
     d="M626.22 499.24C624.5 499.57 622.77 499.78 621.06 499.97C619.348 500.136 617.629 500.213 615.91 500.2C614.196 500.192 612.485 500.058 610.79 499.8C609.078 499.53 607.387 499.139 605.73 498.63C607.247 499.545 608.896 500.22 610.62 500.63C612.348 501.055 614.12 501.276 615.9 501.29C619.446 501.346 622.964 500.648 626.22 499.24Z"
     fill="black"
     id="path154" />
  <path
     opacity="0.2"
     d="M631.66 502C630.916 502.512 630.244 503.121 629.66 503.81C629.06 504.489 628.543 505.238 628.12 506.04C629.052 505.811 629.884 505.284 630.49 504.54C631.129 503.832 631.537 502.946 631.66 502Z"
     fill="black"
     id="path155" />
  <path
     opacity="0.2"
     d="M629.4 512.31C627.25 511.56 625.09 511.07 622.94 510.53C620.79 509.99 618.65 509.53 616.47 508.9C617.379 509.609 618.39 510.176 619.47 510.58C620.522 510.997 621.606 511.331 622.71 511.58C623.807 511.843 624.919 512.036 626.04 512.16C627.153 512.308 628.278 512.358 629.4 512.31Z"
     fill="black"
     id="path156" />
  <path
     d="M615.56 588.92H667.35V600.11H615.56V588.92Z"
     fill="#2F2E41"
     id="path157" />
  <path
     opacity="0.2"
     d="M615.56 588.92H667.35V600.11H615.56V588.92Z"
     fill="black"
     id="path158"
     style="fill:#000000;opacity:1" />
  <defs
     id="defs159">
    <linearGradient
       id="paint0_linear_15_316"
       x1="266.576"
       y1="-87.3743"
       x2="611.118"
       y2="463.344"
       gradientUnits="userSpaceOnUse">
      <stop
         stop-color="#0071F2"
         id="stop158" />
      <stop
         offset="1"
         stop-color="#1D9AE5"
         id="stop159" />
    </linearGradient>
  </defs>
</svg>
