<?xml version="1.0" encoding="UTF-8" standalone="no"?>
<svg
   viewBox="0 0 600 650"
   version="1.1"
   id="fill-svg"
   sodipodi:docname="fill.svg"
   inkscape:version="1.4.4 (dcaf3e7, 2026-05-05)"
   xmlns:inkscape="http://www.inkscape.org/namespaces/inkscape"
   xmlns:sodipodi="http://sodipodi.sourceforge.net/DTD/sodipodi-0.dtd"
   xmlns="http://www.w3.org/2000/svg"
   xmlns:svg="http://www.w3.org/2000/svg">
  <defs
     id="defs70" />
  <sodipodi:namedview
     id="namedview70"
     pagecolor="#ffffff"
     bordercolor="#666666"
     borderopacity="1.0"
     inkscape:showpageshadow="2"
     inkscape:pageopacity="0.0"
     inkscape:pagecheckerboard="0"
     inkscape:deskcolor="#d1d1d1"
     inkscape:zoom="1.2538462"
     inkscape:cx="121.62577"
     inkscape:cy="209.35583"
     inkscape:window-width="1920"
     inkscape:window-height="1017"
     inkscape:window-x="-8"
     inkscape:window-y="-8"
     inkscape:window-maximized="1"
     inkscape:current-layer="fill-svg" />
  <g
     stroke="#1a1a1a"
     fill="none"
     stroke-linecap="round"
     stroke-linejoin="round"
     id="g70"
     transform="translate(-3.3837012,13.252829)">
    <g
       id="fill-all"
       fill-rule="nonzero">
      <!-- ===== Laptop / computer with store interface ===== -->
      <g
         transform="translate(30,80)"
         id="g19">
        <!-- Screen -->
        <rect
           x="0"
           y="0"
           width="260"
           height="180"
           rx="8"
           fill="#ffffff"
           stroke-width="3"
           id="rect1"
           ry="8" />
        <!-- Screen shadow / inner -->
        <rect
           x="10"
           y="10"
           width="240"
           height="160"
           rx="5"
           fill="#1a1a1a"
           stroke-width="2"
           id="rect2"
           ry="5" />
        <!-- Admin panel UI -->
        <rect
           x="18"
           y="18"
           width="224"
           height="20"
           rx="3"
           fill="#8f4f23"
           stroke-width="2"
           id="rect3"
           ry="3" />
        <!-- Product rows -->
        <rect
           x="18"
           y="46"
           width="70"
           height="55"
           rx="2"
           fill="#ffffff"
           stroke-width="2"
           id="rect4"
           ry="2" />
        <rect
           x="96"
           y="46"
           width="146"
           height="55"
           rx="2"
           fill="#ffffff"
           stroke-width="2"
           id="rect5"
           ry="2" />
        <rect
           x="18"
           y="109"
           width="70"
           height="55"
           rx="2"
           fill="#ffffff"
           stroke-width="2"
           id="rect6"
           ry="2" />
        <rect
           x="96"
           y="109"
           width="146"
           height="55"
           rx="2"
           fill="#ffffff"
           stroke-width="2"
           id="rect7"
           ry="2" />
        <!-- Product placeholders on screen -->
        <rect
           x="24"
           y="52"
           width="58"
           height="22"
           rx="2"
           fill="#8f4f23"
           stroke="none"
           id="rect8"
           ry="2" />
        <rect
           x="24"
           y="78"
           width="58"
           height="8"
           rx="1"
           fill="#8f4f23"
           stroke="none"
           opacity="0.6"
           id="rect9"
           ry="1" />
        <rect
           x="24"
           y="90"
           width="40"
           height="6"
           rx="1"
           fill="#8f4f23"
           stroke="none"
           opacity="0.4"
           id="rect10"
           ry="1" />
        <rect
           x="102"
           y="52"
           width="134"
           height="12"
           rx="2"
           fill="#8f4f23"
           stroke="none"
           opacity="0.5"
           id="rect11"
           ry="2" />
        <rect
           x="102"
           y="70"
           width="100"
           height="8"
           rx="1"
           fill="#8f4f23"
           stroke="none"
           opacity="0.3"
           id="rect12"
           ry="1" />
        <rect
           x="102"
           y="84"
           width="134"
           height="10"
           rx="2"
           fill="#8f4f23"
           stroke="none"
           opacity="0.4"
           id="rect13"
           ry="2" />
        <rect
           x="24"
           y="115"
           width="58"
           height="22"
           rx="2"
           fill="#8f4f23"
           stroke="none"
           opacity="0.7"
           id="rect14"
           ry="2" />
        <rect
           x="24"
           y="141"
           width="58"
           height="8"
           rx="1"
           fill="#8f4f23"
           stroke="none"
           opacity="0.5"
           id="rect15"
           ry="1" />
        <rect
           x="102"
           y="115"
           width="134"
           height="12"
           rx="2"
           fill="#8f4f23"
           stroke="none"
           opacity="0.5"
           id="rect16"
           ry="2" />
        <rect
           x="102"
           y="133"
           width="100"
           height="8"
           rx="1"
           fill="#8f4f23"
           stroke="none"
           opacity="0.3"
           id="rect17"
           ry="1" />
        <!-- Stand -->
        <rect
           x="105"
           y="180"
           width="50"
           height="12"
           rx="3"
           fill="#ffffff"
           stroke-width="2.5"
           id="rect18"
           ry="3" />
        <rect
           x="70"
           y="192"
           width="120"
           height="8"
           rx="4"
           fill="#ffffff"
           stroke-width="2.5"
           id="rect19"
           ry="4" />
        <!-- Webcam dot -->
        <circle
           cx="130"
           cy="-3"
           r="3"
           fill="#8f4f23"
           stroke-width="2"
           id="circle19" />
      </g>
      <!-- ===== Package boxes with upload arrows ===== -->
      <!-- Box 1 -->
      <g
         transform="translate(320,90)"
         id="g23">
        <path
           d="M 0,20 35,0 70,20 35,40 Z"
           fill="#ffffff"
           stroke-width="3"
           id="path19" />
        <path
           d="M 0,20 V 60 L 35,80 70,60 V 20"
           fill="#ffffff"
           stroke-width="3"
           id="path20" />
        <path
           d="M 0,60 35,40 v 40"
           stroke-width="3"
           fill="none"
           id="path21" />
        <!-- Box flap -->
        <!-- Box label lines -->
        <!-- Arrow pointing to box -->
        <path
           d="m 35,-29.662705 v 20"
           stroke-width="3"
           stroke="#8f4f23"
           fill="none"
           id="path23" />
        <polygon
           points="35,8 40,0 30,0 "
           fill="#8f4f23"
           stroke="none"
           id="polygon23"
           transform="translate(0.2819751,-11.279004)" />
      </g>
      <!-- Box 2 -->
      <g
         transform="translate(400,100)"
         id="g27">
        <path
           d="M 0.06521194,16 31.190184,0.06521641 62.315156,16 31.190184,31.934784 Z"
           fill="#8f4f23"
           stroke-width="2.63043"
           id="path24" />
        <path
           d="M 0.05800951,16.058009 V 47.980664 L 30.791411,63.941991 61.524813,47.980664 V 16.058009"
           fill="#8f4f23"
           stroke-width="2.61602"
           id="path25" />
        <path
           d="m 1.993865,46.404908 28,-16 v 32"
           stroke-width="2.5"
           fill="none"
           id="path26" />
      </g>
      <!-- Box 3 -->
      <g
         transform="translate(480,85)"
         id="g31">
        <path
           d="M -0.26853478,18 26.791411,-1.4648469 53.851356,18 26.791411,37.464847 Z"
           fill="#ffffff"
           stroke-width="2.7605"
           id="path28" />
        <path
           d="m 0.07172553,18.071725 v 26.91393 L 26.990798,62.928275 53.90987,44.985655 v -26.91393"
           fill="#ffffff"
           stroke-width="2.5"
           id="path29" />
        <path
           d="m 1.595092,43.803681 24,-9 v 27"
           stroke-width="2.5"
           fill="none"
           id="path30" />
        <path
           d="M 26.791411,-21.558282 V -9.5582822"
           stroke-width="2.5"
           stroke="#8f4f23"
           fill="none"
           id="path31" />
        <polygon
           points="24,7 28,0 20,0 "
           fill="#8f4f23"
           stroke="none"
           id="polygon31"
           transform="translate(2.791411,-10.368098)" />
      </g>
      <!-- ===== Server rack ===== -->
      <g
         transform="translate(40,300)"
         id="g42">
        <rect
           x="0"
           y="0"
           width="180"
           height="230"
           rx="8"
           fill="#ffffff"
           stroke-width="3"
           id="rect31"
           ry="8" />
        <!-- Slots -->
        <rect
           x="10"
           y="10"
           width="160"
           height="45"
           rx="3"
           fill="#1a1a1a"
           stroke-width="2"
           id="rect32"
           ry="3" />
        <rect
           x="10"
           y="65"
           width="160"
           height="45"
           rx="3"
           fill="#8f4f23"
           stroke-width="2"
           id="rect33"
           ry="3" />
        <rect
           x="10"
           y="120"
           width="160"
           height="45"
           rx="3"
           fill="#1a1a1a"
           stroke-width="2"
           id="rect34"
           ry="3" />
        <rect
           x="10"
           y="175"
           width="160"
           height="45"
           rx="3"
           fill="#ffffff"
           stroke-width="2"
           id="rect35"
           ry="3" />
        <!-- Slot indicators -->
        <circle
           cx="25"
           cy="32"
           r="4"
           fill="#ffffff"
           stroke="none"
           id="circle35" />
        <circle
           cx="40"
           cy="32"
           r="4"
           fill="#8f4f23"
           stroke="none"
           id="circle36" />
        <circle
           cx="25"
           cy="87"
           r="4"
           fill="#ffffff"
           stroke="none"
           id="circle37" />
        <circle
           cx="40"
           cy="87"
           r="4"
           fill="#8f4f23"
           stroke="none"
           id="circle38" />
        <circle
           cx="25"
           cy="142"
           r="4"
           fill="#ffffff"
           stroke="none"
           id="circle39" />
        <circle
           cx="40"
           cy="142"
           r="4"
           fill="#8f4f23"
           stroke="none"
           id="circle40" />
        <circle
           cx="25"
           cy="197"
           r="4"
           fill="#ffffff"
           stroke="none"
           id="circle41" />
        <circle
           cx="40"
           cy="197"
           r="4"
           fill="#8f4f23"
           stroke="none"
           id="circle42" />
      </g>
      <!-- ===== Database cylinder with data rings ===== -->
      <g
         transform="translate(280,360)"
         id="g44">
        <ellipse
           cx="60"
           cy="0"
           rx="60"
           ry="18"
           fill="#8f4f23"
           stroke-width="2.5"
           id="ellipse42" />
        <path
           d="m 0,0 v 65 c 0,13 27,23 60,23 33,0 60,-10 60,-23 V 0"
           fill="#ffffff"
           stroke-width="2.5"
           id="path42" />
        <ellipse
           cx="60"
           cy="65"
           rx="60"
           ry="18"
           fill="none"
           stroke-width="2.5"
           id="ellipse43" />
        <path
           d="m 10,20 c 0,13 22,22 50,22 28,0 50,-9 50,-22"
           fill="none"
           stroke-width="2"
           stroke-dasharray="5, 4"
           id="path43" />
        <path
           d="m 5,42 c 0,13 25,23 55,23 30,0 55,-10 55,-23"
           fill="none"
           stroke-width="1.5"
           stroke-dasharray="4, 4"
           opacity="0.5"
           id="path44" />
      </g>
      <!-- ===== Excel / table document right ===== -->
      <g
         transform="translate(440,360)"
         id="g56">
        <rect
           x="0"
           y="0"
           width="120"
           height="150"
           rx="5"
           fill="#ffffff"
           stroke-width="3"
           id="rect44"
           ry="5" />
        <rect
           x="15"
           y="15"
           width="90"
           height="20"
           rx="3"
           fill="#8f4f23"
           stroke-width="2"
           id="rect45"
           ry="3" />
        <text
           x="60"
           y="29"
           font-size="8px"
           font-weight="bold"
           fill="#ffffff"
           stroke="none"
           text-anchor="middle"
           id="text45">export.xlsx</text>
        <!-- Table grid -->
        <line
           x1="15"
           y1="48"
           x2="105"
           y2="48"
           stroke-width="1.5"
           fill="none"
           id="line45" />
        <line
           x1="40"
           y1="35"
           x2="40"
           y2="135"
           stroke-width="1.5"
           fill="none"
           id="line46" />
        <line
           x1="70"
           y1="35"
           x2="70"
           y2="135"
           stroke-width="1.5"
           fill="none"
           id="line47" />
        <line
           x1="15"
           y1="65"
           x2="105"
           y2="65"
           stroke-width="1.5"
           fill="none"
           id="line48" />
        <line
           x1="15"
           y1="82"
           x2="105"
           y2="82"
           stroke-width="1.5"
           fill="none"
           id="line49" />
        <line
           x1="15"
           y1="99"
           x2="105"
           y2="99"
           stroke-width="1.5"
           fill="none"
           id="line50" />
        <line
           x1="15"
           y1="116"
           x2="105"
           y2="116"
           stroke-width="1.5"
           fill="none"
           id="line51" />
        <!-- Data in cells -->
        <rect
           x="18"
           y="40"
           width="18"
           height="22"
           rx="2"
           fill="#8f4f23"
           stroke="none"
           opacity="0.5"
           id="rect51"
           ry="2" />
        <rect
           x="43"
           y="40"
           width="24"
           height="22"
           rx="2"
           fill="#8f4f23"
           stroke="none"
           opacity="0.3"
           id="rect52"
           ry="2" />
        <rect
           x="73"
           y="40"
           width="28"
           height="22"
           rx="2"
           fill="#8f4f23"
           stroke="none"
           opacity="0.3"
           id="rect53"
           ry="2" />
        <rect
           x="18"
           y="57"
           width="18"
           height="5"
           rx="1"
           fill="#8f4f23"
           stroke="none"
           opacity="0.4"
           id="rect54"
           ry="1" />
        <rect
           x="43"
           y="57"
           width="24"
           height="5"
           rx="1"
           fill="#8f4f23"
           stroke="none"
           opacity="0.3"
           id="rect55"
           ry="1" />
        <rect
           x="73"
           y="57"
           width="28"
           height="5"
           rx="1"
           fill="#8f4f23"
           stroke="none"
           opacity="0.2"
           id="rect56"
           ry="1" />
      </g>
      <!-- ===== Connection arrows between elements ===== -->
      <path
         d="m 224.44165,388.09138 c 29.7428,-9.37125 46.73869,-18.7425 53.53705,-28.11375"
         stroke-width="1.78478"
         stroke-dasharray="5, 4"
         opacity="0.5"
         id="path56" />
      <path
         d="m 222.20859,343.00613 c 47.25828,-0.50405 143.16796,-40.95279 52.60123,-77.02454"
         stroke-width="2"
         stroke-dasharray="5, 4"
         opacity="0.5"
         id="path57"
         sodipodi:nodetypes="cc" />
      <path
         d="m 403.19135,376.99796 c 19.61517,2.11169 -1.35265,-2.57922 33.39877,1.38037"
         stroke-width="2"
         stroke-dasharray="5, 4"
         opacity="0.5"
         id="path58"
         sodipodi:nodetypes="cc" />
      <!-- ===== Magnifying glass for content details ===== -->
      <g
         transform="translate(380,95)"
         id="g58">
        <circle
           cx="0"
           cy="0"
           r="22"
           fill="none"
           stroke-width="2.5"
           id="circle58" />
      </g>
      <!-- ===== Decorative ===== -->
      <circle
         cx="30"
         cy="30"
         r="3"
         fill="#1a1a1a"
         stroke="none"
         opacity="0.3"
         id="circle59" />
      <circle
         cx="570"
         cy="30"
         r="3"
         fill="#1a1a1a"
         stroke="none"
         opacity="0.3"
         id="circle60" />
      <circle
         cx="30"
         cy="620"
         r="3"
         fill="#1a1a1a"
         stroke="none"
         opacity="0.3"
         id="circle61" />
      <circle
         cx="570"
         cy="620"
         r="3"
         fill="#1a1a1a"
         stroke="none"
         opacity="0.3"
         id="circle62" />
      <line
         x1="30"
         y1="15"
         x2="570"
         y2="15"
         stroke-width="1"
         stroke-dasharray="6, 8"
         opacity="0.2"
         id="line62" />
      <!-- Decorative dots at bottom -->
      <circle
         cx="180"
         cy="580"
         r="4"
         fill="#1a1a1a"
         stroke="none"
         opacity="0.3"
         id="circle63" />
      <circle
         cx="210"
         cy="585"
         r="3"
         fill="#1a1a1a"
         stroke="none"
         opacity="0.25"
         id="circle64" />
      <circle
         cx="240"
         cy="580"
         r="4"
         fill="#1a1a1a"
         stroke="none"
         opacity="0.3"
         id="circle65" />
      <circle
         cx="360"
         cy="580"
         r="4"
         fill="#1a1a1a"
         stroke="none"
         opacity="0.3"
         id="circle66" />
      <circle
         cx="390"
         cy="585"
         r="3"
         fill="#1a1a1a"
         stroke="none"
         opacity="0.25"
         id="circle67" />
      <circle
         cx="420"
         cy="580"
         r="4"
         fill="#1a1a1a"
         stroke="none"
         opacity="0.3"
         id="circle68" />
      <!-- Check circle -->
      <g
         transform="translate(35,265)"
         id="g69">
        <circle
           cx="313.0368"
           cy="-48.650307"
           r="14"
           fill="none"
           stroke-width="2.5"
           id="circle69" />
        <path
           d="m 306.23926,-48.251534 4,5 10,-10"
           stroke-width="2.5"
           stroke="#8f4f23"
           fill="none"
           id="path69" />
      </g>
    </g>
  </g>
</svg>
