<?xml version="1.0" encoding="UTF-8" standalone="no"?>
<svg
   xmlns:dc="http://purl.org/dc/elements/1.1/"
   xmlns:cc="http://creativecommons.org/ns#"
   xmlns:rdf="http://www.w3.org/1999/02/22-rdf-syntax-ns#"
   xmlns:svg="http://www.w3.org/2000/svg"
   xmlns="http://www.w3.org/2000/svg"
   xmlns:sodipodi="http://sodipodi.sourceforge.net/DTD/sodipodi-0.dtd"
   xmlns:inkscape="http://www.inkscape.org/namespaces/inkscape"
   width="364"
   height="357"
   viewBox="0 0 364 357"
   fill="none"
   version="1.1"
   id="svg32"
   sodipodi:docname="Group_8741.svg"
   inkscape:version="0.92.4 (5da689c313, 2019-01-14)">
  <metadata
     id="metadata38">
    <rdf:RDF>
      <cc:Work
         rdf:about="">
        <dc:format>image/svg+xml</dc:format>
        <dc:type
           rdf:resource="http://purl.org/dc/dcmitype/StillImage" />
      </cc:Work>
    </rdf:RDF>
  </metadata>
  <defs
     id="defs36" />
  <sodipodi:namedview
     pagecolor="#ffffff"
     bordercolor="#666666"
     borderopacity="1"
     objecttolerance="10"
     gridtolerance="10"
     guidetolerance="10"
     inkscape:pageopacity="0"
     inkscape:pageshadow="2"
     inkscape:window-width="1920"
     inkscape:window-height="1017"
     id="namedview34"
     showgrid="false"
     inkscape:zoom="1.3221289"
     inkscape:cx="294.83795"
     inkscape:cy="256.29565"
     inkscape:window-x="-8"
     inkscape:window-y="-8"
     inkscape:window-maximized="1"
     inkscape:current-layer="svg32" />
  <path
     d="M170.689 283.544C176.857 280.524 183.972 280.076 190.471 282.298C198.835 285.148 207.707 277.042 204.271 268.18L189.347 229.792C189.329 229.746 189.32 229.697 189.321 229.647C189.322 229.598 189.333 229.549 189.353 229.504C189.372 229.459 189.401 229.418 189.437 229.384C189.473 229.35 189.515 229.324 189.561 229.306L306.243 183.94C307.644 183.394 309.139 183.13 310.643 183.162C312.146 183.194 313.629 183.522 315.005 184.128C316.382 184.733 317.625 185.604 318.665 186.691C319.705 187.777 320.52 189.058 321.065 190.46L362.229 296.338C363.325 299.169 363.254 302.319 362.031 305.098C360.808 307.876 358.533 310.056 355.705 311.16C235.505 357.884 239.077 356.56 238.877 356.56C238.801 356.56 238.727 356.538 238.664 356.495C238.602 356.452 238.554 356.391 238.527 356.32L224.609 320.52C223.817 318.618 222.505 316.978 220.824 315.788C219.143 314.598 217.161 313.905 215.104 313.79C213.047 313.675 211 314.141 209.196 315.136C207.393 316.131 205.906 317.615 204.907 319.416C202.94 322.999 200.157 326.068 196.782 328.374C193.408 330.68 189.537 332.158 185.484 332.688C181.431 333.218 177.311 332.785 173.457 331.424C169.602 330.063 166.124 327.813 163.302 324.855C160.481 321.898 158.396 318.317 157.218 314.404C156.039 310.49 155.8 306.354 156.519 302.33C157.239 298.307 158.897 294.51 161.359 291.247C163.821 287.984 167.017 285.348 170.689 283.552V283.544ZM157.969 314.384C159.435 319.124 162.265 323.327 166.106 326.468C169.946 329.609 174.627 331.549 179.563 332.047C184.5 332.544 189.473 331.576 193.863 329.264C198.253 326.952 201.864 323.398 204.247 319.046C205.306 317.107 206.893 315.508 208.825 314.435C210.756 313.362 212.952 312.86 215.158 312.985C217.364 313.111 219.489 313.86 221.286 315.145C223.083 316.43 224.479 318.199 225.311 320.246L239.091 355.682L355.435 310.458C358.076 309.426 360.2 307.39 361.342 304.795C362.484 302.2 362.551 299.258 361.529 296.614L320.365 190.734C319.856 189.424 319.095 188.228 318.123 187.212C317.152 186.197 315.991 185.383 314.705 184.817C313.419 184.251 312.034 183.944 310.629 183.914C309.225 183.884 307.828 184.13 306.519 184.64L190.177 229.882L204.963 267.918C205.733 269.99 205.899 272.239 205.442 274.401C204.984 276.564 203.921 278.553 202.377 280.135C200.833 281.718 198.871 282.829 196.72 283.339C194.569 283.85 192.317 283.739 190.227 283.02C185.818 281.519 181.08 281.267 176.538 282.292C171.995 283.316 167.823 285.576 164.485 288.823C161.147 292.07 158.771 296.177 157.621 300.69C156.471 305.202 156.591 309.945 157.969 314.394V314.384Z"
     fill="#26AAFD"
     id="path2"
     style="fill:#000000" />
  <path
     d="M70.6327 103.866C70.6938 103.866 70.7539 103.851 70.8079 103.822C70.8619 103.794 70.9082 103.752 70.9428 103.702C70.9774 103.652 70.9993 103.594 71.0066 103.533C71.0139 103.473 71.0064 103.411 70.9847 103.354L70.8527 103.012C70.8167 102.919 70.7451 102.844 70.6537 102.804C70.6085 102.784 70.5598 102.773 70.5104 102.772C70.461 102.77 70.4118 102.779 70.3657 102.797C70.3196 102.815 70.2775 102.842 70.2418 102.876C70.206 102.91 70.1773 102.951 70.1574 102.996C70.1374 103.041 70.1265 103.09 70.1254 103.139C70.1243 103.189 70.1329 103.238 70.1507 103.284C70.2747 103.608 70.3227 103.866 70.6327 103.866Z"
     fill="#3B29AB"
     id="path4" />
  <path
     d="M7.49475 139.468L32.4948 129.792C34.3958 129 36.0353 127.688 37.2253 126.008C38.4152 124.327 39.1075 122.344 39.2227 120.288C39.338 118.232 38.8715 116.185 37.8768 114.381C36.8821 112.578 35.3995 111.092 33.5988 110.092C29.2574 107.714 25.6853 104.145 23.3023 99.8061C20.9193 95.4672 19.8245 90.5381 20.1466 85.5984C20.4687 80.6586 22.1943 75.9135 25.1205 71.9207C28.0467 67.928 32.052 64.8535 36.6654 63.0589C41.2789 61.2642 46.3088 60.8239 51.1639 61.7897C56.0191 62.7554 60.4976 65.0871 64.0731 68.5107C67.6485 71.9343 70.1724 76.3075 71.3478 81.1161C72.5233 85.9248 72.3016 90.9691 70.7088 95.6561C69.8979 98.115 69.9544 100.778 70.8687 103.2C70.919 103.241 70.9577 103.294 70.9807 103.354C72.0119 105.996 74.049 108.121 76.6451 109.263C79.2412 110.405 82.1843 110.471 84.8288 109.446L123.049 94.5881C123.088 94.5441 123.136 94.51 123.191 94.4883C123.245 94.4667 123.304 94.4581 123.362 94.4634C123.421 94.4686 123.477 94.4875 123.527 94.5186C123.577 94.5496 123.618 94.5919 123.649 94.6421C123.809 94.8421 123.875 95.3741 133.675 120.416C133.705 120.508 133.699 120.607 133.658 120.694C133.617 120.781 133.544 120.849 133.454 120.884C133.364 120.919 133.264 120.918 133.175 120.882C133.086 120.845 133.014 120.776 132.975 120.688L123.129 95.3641L85.1028 110.148C82.2723 111.244 79.1227 111.173 76.3445 109.951C73.5663 108.728 71.3863 106.454 70.2827 103.626C70.2603 103.565 70.2534 103.5 70.2628 103.436C70.2126 103.396 70.1739 103.344 70.1508 103.284C69.1769 100.759 69.1238 97.9721 70.0008 95.4121C71.5498 90.8589 71.7666 85.9582 70.6257 81.2861C69.4848 76.614 67.0336 72.3647 63.5604 69.038C60.0871 65.7113 55.7362 63.4455 51.0193 62.507C46.3023 61.5684 41.4155 61.9962 36.9333 63.74C32.4512 65.4838 28.5601 68.4711 25.7177 72.3507C22.8752 76.2302 21.1996 80.8407 20.8878 85.64C20.576 90.4393 21.641 95.2279 23.9576 99.4426C26.2741 103.657 29.7459 107.123 33.9648 109.432C35.8912 110.501 37.4771 112.091 38.5404 114.021C39.6037 115.95 40.1013 118.14 39.976 120.34C39.8506 122.539 39.1075 124.659 37.832 126.455C36.5564 128.251 34.8001 129.651 32.7648 130.494L7.76477 140.168C6.45485 140.677 5.25799 141.438 4.24265 142.41C3.2273 143.381 2.41335 144.543 1.84738 145.829C1.28141 147.115 0.97449 148.5 0.944183 149.905C0.913877 151.31 1.16077 152.707 1.67075 154.016L42.8328 259.896C43.3416 261.206 44.1035 262.402 45.075 263.417C46.0465 264.432 47.2086 265.245 48.4946 265.811C49.7807 266.377 51.1657 266.683 52.5703 266.713C53.9749 266.743 55.3717 266.496 56.6808 265.986L172.029 221.144L157.241 183.108C156.592 181.406 156.354 179.575 156.546 177.764C156.738 175.952 157.354 174.212 158.344 172.683C159.334 171.154 160.671 169.881 162.245 168.965C163.82 168.05 165.588 167.518 167.407 167.414C167.456 167.41 167.506 167.416 167.554 167.431C167.601 167.446 167.645 167.471 167.683 167.503C167.721 167.535 167.752 167.575 167.774 167.619C167.797 167.664 167.81 167.712 167.813 167.762C167.817 167.811 167.811 167.861 167.795 167.908C167.779 167.956 167.754 167.999 167.721 168.037C167.688 168.074 167.648 168.105 167.604 168.126C167.559 168.148 167.51 168.161 167.461 168.164C165.76 168.259 164.105 168.755 162.631 169.61C161.157 170.465 159.906 171.655 158.979 173.085C158.051 174.514 157.474 176.142 157.294 177.837C157.114 179.531 157.336 181.244 157.943 182.836L172.867 221.222C172.902 221.315 172.899 221.419 172.859 221.51C172.818 221.602 172.744 221.673 172.651 221.71L56.9548 266.682C55.5534 267.228 54.0582 267.492 52.5545 267.46C51.0509 267.428 49.5685 267.099 48.192 266.493C46.8155 265.887 45.572 265.016 44.5326 263.929C43.4932 262.842 42.6784 261.56 42.1348 260.158L0.972748 154.282C0.427835 152.881 0.164289 151.387 0.197174 149.884C0.230059 148.381 0.558755 146.899 1.16443 145.524C1.7701 144.148 2.6409 142.905 3.72708 141.866C4.81327 140.827 6.09354 140.012 7.49475 139.468Z"
     fill="#26AAFD"
     id="path6"
     style="fill:#000000" />
  <path
     d="M210.069 120.406C206.502 116.8 201.958 114.317 196.998 113.261C192.038 112.205 186.877 112.623 182.151 114.464C182.061 114.502 181.989 114.574 181.951 114.664C181.913 114.754 181.912 114.856 181.947 114.947C181.983 115.038 182.053 115.112 182.142 115.152C182.231 115.193 182.333 115.197 182.425 115.164C187.014 113.378 192.025 112.972 196.841 113.998C201.658 115.023 206.069 117.435 209.533 120.936C209.568 120.971 209.609 120.999 209.655 121.018C209.7 121.037 209.749 121.047 209.799 121.048C209.899 121.048 209.995 121.009 210.066 120.939C210.137 120.868 210.177 120.773 210.178 120.673C210.178 120.573 210.139 120.477 210.069 120.406Z"
     fill="#3B29AB"
     id="path8" />
  <path
     d="M134.451 89.2938C134.549 89.0738 129.295 91.2938 251.359 43.7238C252.76 43.1783 254.255 42.9144 255.759 42.947C257.262 42.9797 258.744 43.3084 260.121 43.9143C261.497 44.5202 262.741 45.3914 263.78 46.4782C264.82 47.5649 265.635 48.8459 266.179 50.2478L275.921 75.0478C276.704 76.958 278.012 78.6074 279.693 79.805C281.375 81.0026 283.361 81.6995 285.422 81.815C287.484 81.9305 289.535 81.4599 291.34 80.4577C293.145 79.4554 294.629 77.9625 295.621 76.1518C297.999 71.8107 301.568 68.2389 305.907 65.8561C310.246 63.4733 315.174 62.3786 320.114 62.7008C325.054 63.0229 329.799 64.7484 333.791 67.6745C337.784 70.6006 340.858 74.6057 342.653 79.2189C344.448 83.8322 344.888 88.8619 343.923 93.7169C342.957 98.5719 340.626 103.05 337.203 106.626C333.779 110.202 329.407 112.726 324.598 113.901C319.79 115.077 314.746 114.856 310.059 113.264C308.104 112.596 306 112.496 303.99 112.975C301.981 113.454 300.148 114.492 298.704 115.969C297.26 117.446 296.264 119.302 295.832 121.322C295.399 123.342 295.547 125.443 296.259 127.382L307.343 156.13C307.888 157.532 308.151 159.027 308.117 160.531C308.084 162.034 307.754 163.516 307.147 164.892C306.54 166.268 305.668 167.511 304.581 168.55C303.493 169.589 302.211 170.403 300.809 170.946L217.647 203.282C217.554 203.318 217.45 203.316 217.359 203.275C217.267 203.235 217.196 203.16 217.16 203.067C217.124 202.974 217.126 202.87 217.166 202.779C217.207 202.687 217.282 202.616 217.375 202.58L300.547 170.246C301.856 169.737 303.053 168.976 304.068 168.005C305.083 167.034 305.897 165.872 306.463 164.587C307.029 163.301 307.336 161.917 307.367 160.512C307.398 159.108 307.152 157.711 306.643 156.402L295.563 127.658C291.897 118.224 301.325 109.498 310.301 112.556C314.853 114.104 319.754 114.321 324.425 113.18C329.097 112.038 333.345 109.587 336.671 106.114C339.997 102.641 342.263 98.2909 343.201 93.5745C344.139 88.8581 343.712 83.9718 341.968 79.4902C340.224 75.0086 337.237 71.118 333.358 68.2758C329.479 65.4336 324.87 63.758 320.071 63.446C315.272 63.1341 310.484 64.1986 306.27 66.5146C302.055 68.8306 298.59 72.3017 296.281 76.5198C294.853 79.074 292.532 81.0109 289.764 81.9588C286.995 82.9067 283.974 82.7988 281.281 81.6558C279.902 81.0535 278.657 80.1838 277.616 79.0969C276.576 78.01 275.762 76.7275 275.221 75.3238L265.483 50.5238C264.974 49.2141 264.213 48.0175 263.241 47.0023C262.27 45.9871 261.109 45.1733 259.823 44.6073C258.537 44.0414 257.152 43.7344 255.747 43.704C254.343 43.6735 252.946 43.9201 251.637 44.4298L135.287 89.6638L147.529 121.032C147.565 121.125 147.562 121.229 147.522 121.32C147.482 121.411 147.407 121.483 147.314 121.519C147.221 121.555 147.117 121.553 147.026 121.512C146.934 121.472 146.863 121.397 146.827 121.304C133.535 87.2818 134.353 89.5178 134.451 89.2938Z"
     fill="#26AAFD"
     id="path10"
     style="fill:#000000" />
  <path
     d="M64.8948 220.382L133.077 230.536C133.077 230.536 138.383 207.212 139.265 203.18C144.075 181.246 163.113 173.754 168.397 172.08C168.451 172.302 168.497 172.526 168.541 172.74C176.957 181.43 194.541 188.402 202.693 183.54C241.129 233.74 264.851 266.554 315.663 314.646C323.463 321.888 300.717 346.774 292.881 339.646C233.715 286.21 215.119 268.516 177.211 222.156L157.625 255.784C155.453 259.511 152.187 262.481 148.271 264.29C144.355 266.099 139.977 266.66 135.731 265.898L59.1049 252.112C52.1969 250.92 57.9528 219.116 64.8948 220.382Z"
     fill="#26AAFD"
     id="path12"
     style="fill:#8f4f23;fill-opacity:1" />
  <path
     d="M35.5647 116.303C36.7507 116.675 47.9747 119.725 48.7007 120.005C46.5706 117.723 44.1412 115.74 41.4787 114.109C36.1467 110.709 36.9827 107.999 43.7387 111.043C44.4767 111.383 51.9907 114.605 54.2187 115.565C55.5907 116.149 59.1247 117.165 59.8567 116.133C61.9927 113.161 60.7067 104.145 63.9267 103.641C66.0127 103.315 66.3447 109.483 67.0107 113.665C67.4107 116.081 70.9367 118.211 73.7087 118.401C73.7827 118.401 72.7287 118.313 83.1367 119.361C85.3367 125.697 84.2887 136.793 80.6267 142.175L73.5707 141.601C58.6507 140.083 54.3327 138.951 42.5507 137.201C29.7087 135.289 30.4727 132.737 38.4347 132.849C41.4117 132.887 44.384 132.604 47.3007 132.007C46.7307 132.007 41.9947 130.569 36.3107 128.807C29.5567 126.711 29.1547 123.973 37.3487 125.137C40.2737 125.581 43.2308 125.777 46.1887 125.725C45.7587 125.541 38.7487 122.589 33.4747 119.753C27.5427 116.565 28.5407 114.121 35.5647 116.303Z"
     fill="#FFD0C7"
     id="path14" />
  <path
     d="M165.299 120.851C180.313 124.581 194.429 124.993 207.287 120.851C200.087 121.209 196.053 119.923 193.741 118.629C192.704 117.319 192.03 115.758 191.787 114.105C191.544 112.451 191.74 110.763 192.357 109.209C201.843 110.705 201.379 96.8934 198.309 88.2354L196.969 85.1454C192.703 77.0894 185.993 79.5074 184.489 88.3994C184.351 89.3994 183.773 89.3334 183.669 89.2654C183.068 89.0949 182.505 88.8096 182.013 88.4254C178.479 85.9754 176.049 92.1694 181.315 93.9334C181.987 97.7737 182.377 101.658 182.483 105.555C182.609 114.355 180.119 116.853 177.609 118.217C173.708 119.864 169.531 120.757 165.299 120.851V120.851Z"
     fill="#FFD0C7"
     id="path16" />
  <path
     d="M235.491 54.4596L246.935 1.2596C246.945 1.21123 246.965 1.16541 246.993 1.12474C247.021 1.08407 247.057 1.04936 247.099 1.02261C247.141 0.995853 247.187 0.977574 247.236 0.968821C247.284 0.960068 247.334 0.961013 247.383 0.9716L265.031 4.7716C266.013 4.99998 266.91 5.50221 267.619 6.22001C268.327 6.93781 268.817 7.84174 269.032 8.82691C269.248 9.81208 269.179 10.8381 268.835 11.7859C268.49 12.7337 267.884 13.5644 267.087 14.1816C265.453 15.4491 264.216 17.1566 263.52 19.1033C262.823 21.05 262.697 23.155 263.156 25.1708C263.616 27.1867 264.641 29.0296 266.111 30.4828C267.582 31.936 269.437 32.9392 271.458 33.3745C273.479 33.8097 275.582 33.6588 277.521 32.9396C279.459 32.2204 281.152 30.9627 282.4 29.3145C283.648 27.6663 284.399 25.696 284.566 23.6352C284.733 21.5745 284.308 19.509 283.341 17.6816C282.869 16.791 282.66 15.7851 282.736 14.7803C282.813 13.7755 283.173 12.813 283.774 12.0044C284.376 11.1958 285.194 10.5742 286.134 10.2116C287.074 9.84896 288.098 9.7602 289.087 9.9556L305.547 13.4976C305.644 13.5187 305.729 13.5775 305.783 13.6611C305.837 13.7447 305.856 13.8463 305.835 13.9436L294.391 67.1436C294.138 68.3122 293.493 69.3593 292.563 70.1112C291.633 70.863 290.474 71.2746 289.279 71.2776C288.459 71.2776 291.827 71.9476 239.503 60.6776C238.831 60.5335 238.193 60.2583 237.628 59.8676C237.062 59.477 236.579 58.9786 236.207 58.401C235.834 57.8234 235.579 57.1779 235.456 56.5016C235.333 55.8253 235.345 55.1314 235.491 54.4596Z"
     fill="#B2E305"
     id="path18"
     style="fill:#8f4f23;fill-opacity:1" />
  <path
     d="M252.191 79.4613C253.557 74.7113 254.929 68.8973 255.457 66.3893C256.139 63.1473 257.303 52.4493 259.153 54.8953C260.509 56.6953 260.953 62.2953 261.251 65.3493L274.641 68.2293C273.568 73.9274 271.91 79.4996 269.693 84.8573C264.153 82.2157 258.256 80.3978 252.191 79.4613V79.4613Z"
     fill="#FFD0C7"
     id="path20" />
  <path
     d="M65.0968 132.642C59.4968 131.534 56.3948 127.534 55.8428 120.756C55.8345 120.656 55.8661 120.558 55.9307 120.482C55.9952 120.406 56.0873 120.358 56.1868 120.35C56.2862 120.342 56.3848 120.373 56.461 120.438C56.5371 120.502 56.5845 120.594 56.5928 120.694C57.1128 127.094 60.0228 130.868 65.2428 131.904C65.3406 131.923 65.4268 131.981 65.4823 132.064C65.5378 132.147 65.5581 132.248 65.5387 132.346C65.5194 132.444 65.4619 132.53 65.379 132.585C65.2962 132.641 65.1946 132.661 65.0968 132.642V132.642Z"
     fill="#3B29AB"
     id="path22" />
  <path
     d="M40.6608 225.204C42.9835 223.485 45.6215 222.239 48.4247 221.538C52.0747 220.7 56.0827 222.166 60.3947 223.292C61.8347 220.87 63.3948 219.736 64.9488 220.01L132.787 230.112L138.897 203.1C140.515 195.764 144.06 188.992 149.165 183.482C154.271 177.972 160.753 173.923 167.945 171.752C167.527 169.79 164.963 157.442 164.079 153.752C134.737 154.771 105.391 151.851 76.8248 145.07C75.9948 145.032 74.5208 144.482 73.3188 141.956C58.6588 140.478 54.1188 139.3 42.4948 137.572C40.3788 137.258 32.0328 136.046 32.2708 133.942C32.3868 132.912 34.4708 132.416 38.4388 132.472C40.7918 132.5 43.1429 132.328 45.4668 131.958C43.9308 131.536 41.1847 130.714 36.2007 129.17C32.6007 128.058 30.6168 126.728 30.8668 125.612C31.1848 124.192 34.5948 124.37 37.4008 124.766C39.7109 125.109 42.04 125.309 44.3748 125.366C41.8848 124.284 37.1168 122.152 33.2968 120.098C30.3128 118.498 28.8548 116.972 29.2968 115.926C29.7568 114.828 32.0828 114.84 35.6788 115.956C36.2928 116.156 43.0108 118.01 47.4788 119.246C45.5797 117.44 43.5024 115.832 41.2787 114.446C38.5567 112.716 37.2028 111.012 37.7468 110.004C38.3148 108.954 40.5468 109.216 43.8968 110.724C44.4428 110.974 54.3687 115.24 54.3687 115.24C56.1207 115.986 59.0707 116.606 59.5547 115.936C61.6807 112.976 60.2088 103.864 63.8708 103.29C64.05 103.26 64.2333 103.268 64.4092 103.314C64.5851 103.359 64.7498 103.44 64.8928 103.552C66.4928 104.752 66.7648 109.752 67.3848 113.624C67.7468 115.858 71.1548 117.87 73.7108 118.046C73.7788 118.046 74.0028 118.068 74.8988 118.17C75.8808 116.512 77.6347 114.53 79.4767 114.816C94.6587 116.786 163.943 125.35 177.433 117.908C179.905 116.562 182.179 114.164 182.113 105.858C180.385 105.33 171.337 102.282 169.427 95.8577C168.387 92.3737 169.667 88.5376 173.227 84.4576C171.737 85.221 170.085 85.6135 168.411 85.6016C157.885 85.6016 151.521 72.3136 158.785 65.3536C161.099 63.3748 164.103 62.3934 167.139 62.6243C170.175 62.8552 172.996 64.2796 174.985 66.5856C176.76 68.3331 177.949 70.5889 178.387 73.0414C178.825 75.4939 178.49 78.0218 177.429 80.2756C185.605 73.3976 192.175 75.6176 196.887 84.2116C200.087 90.0436 201.985 99.9296 199.589 105.628C199.107 107.028 198.133 108.206 196.847 108.942C195.562 109.678 194.053 109.922 192.601 109.628C192.29 110.385 192.081 111.181 191.979 111.994C191.921 113.028 193.003 117.794 193.929 118.308C203.869 123.87 225.173 117.766 235.997 114.172L246.663 80.1196C247.135 78.5896 250.325 78.8636 251.917 79.0456C253.117 74.8456 254.821 68.1436 255.651 63.1476C256.521 57.9216 257.183 54.4756 258.415 54.1716C260.927 53.5456 261.719 65.2576 261.853 67.8516C263.379 69.1719 264.326 71.0397 264.487 73.0516C264.941 77.0516 262.987 80.4156 262.389 80.4156C262.317 80.4158 262.247 80.3955 262.187 80.3573C262.127 80.3191 262.078 80.2644 262.048 80.1998C262.018 80.1352 262.006 80.0632 262.015 79.9923C262.024 79.9215 262.053 79.8546 262.099 79.7996C263.447 77.8568 264.031 75.4845 263.739 73.1376C263.669 72.2119 263.413 71.3098 262.986 70.4851C262.56 69.6605 261.972 68.9301 261.257 68.3376C261.213 68.3044 261.178 68.2622 261.153 68.2138C261.128 68.1654 261.113 68.1121 261.111 68.0576C261.111 67.9536 260.591 57.4216 258.853 55.1236C258.721 54.9476 258.617 54.8956 258.595 54.9016C257.751 55.1016 256.833 60.6216 256.395 63.2716C255.579 68.1636 253.941 74.6716 252.675 79.1416C258.497 80.0836 264.16 81.8338 269.499 84.3417C271.63 79.1226 273.23 73.7018 274.273 68.1616L275.009 68.3096C273.95 73.9159 272.329 79.4011 270.169 84.6816C271.543 85.4136 274.157 86.9076 273.689 88.3936C256.089 144.416 256.381 142.288 256.189 142.488L256.121 142.536C243.24 149.128 229.106 152.91 214.655 153.634C213.549 160.95 209.779 170.726 203.137 183.5C248.609 242.846 262.161 263.506 315.915 314.362C317.669 315.962 318.103 318.496 317.179 321.71C322.333 325.756 331.691 332.992 337.979 337.188C352.341 346.776 354.015 349.35 353.869 350.524C352.995 357.686 329.103 346.724 316.951 347.724C314.077 348.028 311.172 347.767 308.399 346.958C305.185 345.946 302.643 343.14 300.073 340.506C297.473 341.506 294.687 341.8 292.633 339.932C244.853 296.792 216.745 272.07 177.277 222.792L157.953 255.978C155.735 259.766 152.41 262.783 148.426 264.624C144.441 266.465 139.988 267.041 135.667 266.274L59.0428 252.488C57.0928 252.156 56.2947 249.698 55.9807 248.088C50.1807 247.274 36.4587 245.428 27.8647 244.932C10.6287 243.944 7.88077 242.572 7.41077 241.486C4.54277 234.858 30.7128 232.208 40.6608 225.204ZM139.633 203.26C137.433 213.36 138.751 206.964 133.445 230.618C133.426 230.701 133.379 230.775 133.313 230.828C133.247 230.882 133.164 230.911 133.079 230.912L78.6988 222.818C75.6248 222.3 72.8288 234.774 72.2468 238.194L136.741 246.58C138.382 246.789 140.046 246.424 141.449 245.545C142.851 244.666 143.906 243.328 144.433 241.76C147.803 231.68 153.609 213.436 154.651 204.498C156.355 189.898 172.851 181.048 176.405 179.298C173.433 177.555 170.7 175.436 168.271 172.994C168.163 172.884 168.161 172.754 168.103 172.482C161.049 174.617 154.693 178.595 149.689 184.005C144.684 189.415 141.213 196.061 139.633 203.26V203.26ZM37.2948 125.51C32.8388 124.876 31.6608 125.51 31.6008 125.774C31.5228 126.12 32.6308 127.274 36.4228 128.45C38.9048 129.218 46.3708 131.528 47.2688 131.626C48.4688 131.376 49.3628 131.128 49.7908 131C49.5775 129.265 49.558 127.511 49.7328 125.772C45.5958 126.284 41.4065 126.196 37.2948 125.51V125.51ZM35.4528 116.664C31.8088 115.53 30.1648 115.78 29.9868 116.206C29.8228 116.606 30.6728 117.82 33.6528 119.424C38.6848 122.128 45.3807 124.974 46.2527 125.344C47.4523 125.33 48.6484 125.211 49.8268 124.986C50.0341 123.612 50.3689 122.261 50.8268 120.95C49.9208 120.7 36.2768 116.918 35.4528 116.664V116.664ZM73.6828 118.778C70.7708 118.578 67.0607 116.328 66.6407 113.724C66.1907 110.924 65.6788 103.762 63.9848 104.014C61.2168 104.448 62.2908 113.39 60.1628 116.354C59.0468 117.906 54.1208 115.934 54.0688 115.912C54.0688 115.912 44.1347 111.642 43.5847 111.388C40.2187 109.872 38.6248 109.94 38.4068 110.34C38.2288 110.674 38.7928 111.956 41.6808 113.792C44.3358 115.405 46.7621 117.368 48.8947 119.628L51.0948 120.228C51.4208 119.364 51.8088 118.47 52.2628 117.538C52.3065 117.448 52.3841 117.379 52.4784 117.347C52.5728 117.315 52.6761 117.321 52.7657 117.365C52.8554 117.408 52.924 117.486 52.9564 117.58C52.9889 117.675 52.9825 117.778 52.9388 117.868C50.4744 122.559 49.7421 127.968 50.8708 133.146C50.8822 133.241 50.8566 133.338 50.799 133.415C50.7415 133.492 50.6565 133.545 50.5615 133.561C50.4666 133.577 50.369 133.557 50.2888 133.503C50.2087 133.45 50.1521 133.368 50.1308 133.274C50.0408 132.76 49.9627 132.254 49.8947 131.752C46.164 132.78 42.3062 133.273 38.4368 133.218C34.0368 133.158 33.0368 133.832 33.0268 134.018C33.0168 134.204 33.8068 135.1 37.8728 135.962C39.5368 136.31 41.1328 136.6 42.6128 136.82C56.7808 138.926 60.1747 140.124 80.4427 141.778C83.8067 136.63 84.9647 126.076 82.8647 119.706C70.7247 118.482 74.3588 118.808 73.6828 118.778ZM193.559 118.958C192.221 118.21 191.281 113.312 191.225 112.11C188.893 109.464 188.095 108.592 187.797 108.236C187.419 107.786 187.607 107.374 188.093 107.504C188.443 107.598 189.055 107.892 190.197 108.272C193.071 109.222 195.907 109.422 197.833 107.102C200.913 103.394 200.195 94.6777 197.963 88.3857L196.637 85.3216C192.559 77.6216 186.311 79.8896 184.863 88.4516C184.715 89.5296 184.011 89.8196 183.547 89.6236C182.231 89.3236 181.559 88.2056 180.367 88.2376C178.249 88.2976 177.513 92.2637 181.435 93.5777L181.481 93.5956C181.534 93.6227 181.58 93.6621 181.614 93.7104C181.649 93.7588 181.672 93.8147 181.681 93.8736C182.355 97.7327 182.747 101.636 182.855 105.552C182.981 114.504 180.363 117.152 177.787 118.552C174.568 119.985 171.116 120.82 167.599 121.018C181.399 124.17 193.527 124.26 204.491 121.292C200.71 121.424 196.955 120.623 193.559 118.958V118.958ZM213.959 153.214C214.699 148.235 214.053 143.149 212.093 138.514C212.073 138.455 212.067 138.392 212.078 138.33C212.088 138.269 212.113 138.211 212.152 138.162C212.19 138.113 212.24 138.074 212.297 138.049C212.354 138.024 212.417 138.014 212.479 138.02C212.863 138.09 212.345 137.154 218.701 152.588C231.578 151.433 244.114 147.818 255.629 141.94L272.971 88.1656C273.055 87.8916 272.875 87.5656 272.557 87.2256C269.651 84.1456 257.707 80.5476 252.223 79.8356C252.023 79.8536 247.733 79.2076 247.381 80.3436C236.321 116.084 236.749 114.584 236.493 114.78C235.871 115.14 219.463 120.628 207.357 121.224C193.541 125.66 179.235 124.694 165.267 121.224C143.449 122.958 103.365 118.6 81.5088 115.81C86.9428 121.062 84.9087 141.41 78.5587 144.682C103.527 150.428 129.068 153.318 154.689 153.298C161.375 143.548 161.173 143.77 161.341 143.63L161.363 143.612C161.422 143.573 161.49 143.551 161.561 143.549C161.632 143.547 161.702 143.564 161.763 143.6L161.789 143.616C163.389 144.868 168.403 170.264 168.895 172.548C176.695 180.548 193.983 188.148 202.415 183.256C209.143 170.332 212.919 160.5 213.957 153.214H213.959ZM293.133 339.372C300.647 346.2 322.843 321.682 315.409 314.914C312.773 312.418 310.208 309.963 307.715 307.55C308.759 314.85 292.653 333.052 285.621 332.578C288.062 334.792 290.566 337.057 293.133 339.372ZM279.569 327.108C281.073 328.47 282.569 329.874 284.147 331.25C286.193 333.05 290.669 330.57 295.067 326.59C256.694 290.622 220.18 252.721 185.667 213.036L181.513 226.858C216.409 269.21 235.515 287.268 279.569 327.108ZM73.0088 254.234L135.809 265.532C139.978 266.271 144.275 265.715 148.119 263.939C151.963 262.163 155.171 259.252 157.311 255.598L187.889 203.082C187.936 203.003 188.009 202.944 188.097 202.916C188.184 202.888 188.278 202.892 188.362 202.929C188.446 202.966 188.514 203.032 188.553 203.115C188.591 203.198 188.599 203.292 188.573 203.38L185.927 212.18C220.526 251.992 257.14 290.009 295.623 326.082C296.911 324.873 298.138 323.601 299.299 322.27C304.663 316.124 308.829 308.586 306.279 306.166C288.542 289.414 271.801 271.637 256.143 252.928C240.801 234.742 226.571 215.328 202.593 184.024C195.739 187.792 184.117 183.74 177.193 179.766C175.143 180.728 157.157 189.566 155.405 204.586C154.355 213.586 148.531 231.892 145.153 242C144.571 243.734 143.405 245.213 141.855 246.185C140.305 247.156 138.465 247.56 136.651 247.328L72.1248 238.938C71.5242 242.277 71.2443 245.665 71.2888 249.058C71.3928 252.166 72.0088 254.052 73.0088 254.234ZM59.1747 251.744L71.5508 253.972C68.5508 249.086 72.6828 226.268 77.2168 222.596L64.8428 220.754C58.4368 219.58 52.8088 250.682 59.1688 251.744H59.1747Z"
     fill="#3D3D3D"
     id="path24" />
  <path
     d="M189.951 134.572C189.546 134.537 189.16 134.382 188.843 134.128C188.525 133.873 188.29 133.531 188.168 133.143C188.046 132.755 188.041 132.339 188.155 131.949C188.268 131.558 188.495 131.21 188.807 130.949C189.119 130.687 189.501 130.524 189.905 130.48C190.309 130.436 190.718 130.512 191.078 130.7C191.439 130.888 191.736 131.179 191.932 131.536C192.127 131.892 192.212 132.299 192.177 132.704C192.154 132.973 192.078 133.235 191.953 133.474C191.829 133.714 191.658 133.926 191.451 134.1C191.245 134.273 191.006 134.405 190.748 134.486C190.491 134.567 190.22 134.596 189.951 134.572V134.572Z"
     fill="#26AAFD"
     id="path26"
     style="fill:#8f4f23;fill-opacity:1" />
  <path
     d="M193.299 148.427C192.894 148.392 192.509 148.237 192.192 147.983C191.876 147.728 191.642 147.386 191.519 146.998C191.397 146.611 191.393 146.196 191.507 145.806C191.62 145.416 191.847 145.069 192.158 144.808C192.469 144.547 192.851 144.384 193.255 144.339C193.658 144.295 194.066 144.372 194.426 144.559C194.787 144.746 195.083 145.037 195.279 145.393C195.474 145.749 195.56 146.155 195.525 146.559C195.502 146.828 195.426 147.09 195.301 147.329C195.177 147.569 195.006 147.782 194.799 147.955C194.593 148.129 194.354 148.26 194.096 148.341C193.839 148.422 193.568 148.451 193.299 148.427Z"
     fill="#26AAFD"
     id="path28"
     style="fill:#8f4f23;fill-opacity:1" />
  <path
     d="M193.299 163.882C192.894 163.846 192.508 163.692 192.191 163.437C191.873 163.183 191.639 162.84 191.516 162.452C191.394 162.064 191.389 161.649 191.503 161.258C191.616 160.868 191.844 160.52 192.155 160.258C192.467 159.997 192.849 159.834 193.253 159.79C193.657 159.745 194.066 159.822 194.427 160.01C194.787 160.198 195.084 160.488 195.28 160.845C195.475 161.202 195.56 161.608 195.525 162.014C195.502 162.283 195.426 162.544 195.301 162.784C195.177 163.023 195.006 163.236 194.799 163.41C194.593 163.583 194.354 163.714 194.096 163.795C193.839 163.876 193.568 163.906 193.299 163.882V163.882Z"
     fill="#26AAFD"
     id="path30"
     style="fill:#8f4f23;fill-opacity:1" />
</svg>
