<?xml version="1.0" encoding="UTF-8" standalone="no"?>
<svg
   width="866"
   height="683"
   viewBox="0 0 866 683"
   fill="none"
   version="1.1"
   id="svg95"
   sodipodi:docname="Business_analytics.svg"
   inkscape:version="1.4.4 (dcaf3e7, 2026-05-05)"
   xmlns:inkscape="http://www.inkscape.org/namespaces/inkscape"
   xmlns:sodipodi="http://sodipodi.sourceforge.net/DTD/sodipodi-0.dtd"
   xmlns="http://www.w3.org/2000/svg"
   xmlns:svg="http://www.w3.org/2000/svg">
  <defs
     id="defs95" />
  <sodipodi:namedview
     id="namedview95"
     pagecolor="#ffffff"
     bordercolor="#000000"
     borderopacity="0.25"
     inkscape:showpageshadow="2"
     inkscape:pageopacity="0.0"
     inkscape:pagecheckerboard="0"
     inkscape:deskcolor="#d1d1d1"
     inkscape:zoom="1.193265"
     inkscape:cx="416.50429"
     inkscape:cy="281.99939"
     inkscape:window-width="1920"
     inkscape:window-height="1017"
     inkscape:window-x="-8"
     inkscape:window-y="-8"
     inkscape:window-maximized="1"
     inkscape:current-layer="svg95" />
  <path
     d="m 77.84,575.59 c -6.6473,-1.312 -13.0659,-3.593 -19.05,-6.77 -19.6,-10.52 -42.63,-35.93 58.68,-79.1 0,0 62.91,-24.41 149.57,-37.77 0,0 61.63,-8.84 103.64,-8.13 l 170.57,4.41 c 0,0 238.91,32.13 257.8,91.95 0,0 23.3,48.48 -169.37,72.41 0,0 -100.74,6.29 -82.48,-34 0,-0.01 -243.58,42.85 -469.36,-3 z"
     fill="#1D9AE5"
     id="path1"
     style="display:inline;fill:#ffffff;stroke:#000000;stroke-width:0.5;stroke-dasharray:none;stroke-opacity:0.962264" />
  <mask
     id="mask0_13_68"
     style="mask-type:luminance"
     maskUnits="userSpaceOnUse"
     x="61"
     y="75"
     width="678"
     height="412">
    <path
       d="M683.83 417.73C731.74 393.8 738.19 298.52 738.75 258.56C739.123 238.748 733.992 219.221 723.93 202.15C682.57 133 586.2 149.5 586.2 149.5C507.47 164 451.15 123.29 451.15 123.29C381.56 88.5799 342.36 78.8299 342.36 78.8299C189.58 54.6399 107.1 160.83 107.1 160.83C-6.47005 319.61 127.82 486.27 127.82 486.27C127.82 486.27 246.12 439.14 400.12 444.17L612.36 449L683.83 417.73Z"
       fill="white"
       id="path5" />
  </mask>
  <g
     mask="url(#mask0_13_68)"
     id="g26"
     style="display:inline">
    <path
       d="m 378.41,129 h 143.52 v 286.9 c 0,1.461 -0.581,2.863 -1.614,3.896 -1.033,1.033 -2.435,1.614 -3.896,1.614 h -138 c -1.281,0 -2.51,-0.509 -3.415,-1.415 -0.906,-0.905 -1.415,-2.134 -1.415,-3.415 V 133.79 c 0.01,-1.272 0.523,-2.489 1.425,-3.386 0.903,-0.897 2.122,-1.401 3.395,-1.404 z"
       fill="#1D9AE5"
       id="path6"
       style="fill:none;stroke:#000000;stroke-width:0.5;stroke-dasharray:none;stroke-opacity:1" />
    <path
       opacity="0.2"
       d="m 505.47,313.98 h -102.3 c -2.916,0 -5.28,2.364 -5.28,5.28 v 78.54 c 0,2.916 2.364,5.28 5.28,5.28 h 102.3 c 2.916,0 5.28,-2.364 5.28,-5.28 v -78.54 c 0,-2.916 -2.364,-5.28 -5.28,-5.28 z"
       fill="white"
       id="path10"
       style="opacity:1;fill:none;stroke:#353535;stroke-width:0.5;stroke-dasharray:none;stroke-opacity:1;paint-order:fill markers stroke" />
    <path
       opacity="0.2"
       d="m 505.47,204.29 h -102.3 c -2.916,0 -5.28,2.364 -5.28,5.28 v 31.94 c 0,2.916 2.364,5.28 5.28,5.28 h 102.3 c 2.916,0 5.28,-2.364 5.28,-5.28 v -31.94 c 0,-2.916 -2.364,-5.28 -5.28,-5.28 z"
       fill="white"
       id="path12"
       style="opacity:1;fill:none;stroke:#000000;stroke-width:0.5;stroke-dasharray:none;stroke-opacity:1" />
    <path
       opacity="0.2"
       d="m 492.56,146.67 h -89.39 c -2.916,0 -5.28,2.364 -5.28,5.28 v 31.94 c 0,2.916 2.364,5.28 5.28,5.28 h 89.39 c 2.916,0 5.28,-2.364 5.28,-5.28 v -31.94 c 0,-2.916 -2.364,-5.28 -5.28,-5.28 z"
       fill="white"
       id="path14"
       style="opacity:1;fill:none;stroke:#000000;stroke-width:0.5;stroke-dasharray:none;stroke-opacity:1" />
    <path
       opacity="0.2"
       d="m 505.47,261.47 h -102.3 c -2.916,0 -5.28,2.364 -5.28,5.28 v 31.94 c 0,2.916 2.364,5.28 5.28,5.28 h 102.3 c 2.916,0 5.28,-2.364 5.28,-5.28 v -31.94 c 0,-2.916 -2.364,-5.28 -5.28,-5.28 z"
       fill="white"
       id="path15"
       style="opacity:1;fill:none;stroke:#000000;stroke-width:0.5;stroke-dasharray:none;stroke-opacity:1" />
    <path
       opacity="0.2"
       d="M 124.34,453.75 H 38.8599 c -1.922,0 -3.48,1.558 -3.48,3.48 v 19.89 c 0,1.922 1.558,3.48 3.48,3.48 H 124.34 c 1.922,0 3.48,-1.558 3.48,-3.48 v -19.89 c 0,-1.922 -1.558,-3.48 -3.48,-3.48 z"
       fill="#ffffff"
       id="path26" />
  </g>
  <path
     d="m 127.82,486.27 c -2.56,-1.91 -5,-4 -7.34,-6.16 -2.34,-2.16 -4.65,-4.38 -6.88,-6.67 -4.45,-4.58 -8.67,-9.39 -12.69,-14.37 -4.02,-4.98 -7.82,-10.07 -11.4,-15.41 -1.83,-2.62 -3.51,-5.34 -5.25,-8 -1.74,-2.66 -3.38,-5.44 -4.93,-8.24 -12.6977,-22.261 -22.4876,-46.058 -29.13,-70.81 -3.372,-12.346 -6.0429,-24.873 -8,-37.52 -2.2176,-12.633 -3.2422,-25.446 -3.06,-38.27 0.33,-25.6 4.54,-51.29 13.62,-75.32 4.5303,-12.02 10.2698,-23.55 17.13,-34.41 l 2.64,-4 c 0.9,-1.33 1.7,-2.73 2.71,-4 l 5.79,-7.7 c 2,-2.5 4.17,-4.88 6.25,-7.32 2.08,-2.44 4.36,-4.71 6.61,-7 4.38,-4.71 9.37,-8.77 14.15,-13.06 l 7.64,-5.86 c 1.29,-0.95 2.51,-2 3.85,-2.88 l 4,-2.66 4,-2.67 2,-1.33 c 0.66,-0.45 1.34,-0.88 2.05,-1.27 l 8.35,-4.77 c 1.41,-0.78 2.77,-1.64 4.21,-2.34 l 4.32,-2.11 8.65,-4.22 c 2.95,-1.26 5.92,-2.45 8.89,-3.68 l 4.44,-1.83 2.23,-0.91 2.27,-0.78 9.06,-3.13 c 3,-1 6.06,-2.11 9.15,-3 12.299,-3.6042 24.784,-6.5418 37.4,-8.8 12.61,-2.2989 25.33,-3.9411 38.11,-4.92 3.2,-0.19 6.39,-0.49 9.6,-0.59 L 287.9,70 h 9.62 2.4 l 2.41,0.11 4.8,0.24 c 25.736,1.3079 50.972,7.6118 74.3,18.56 5.84,2.68 11.53,5.67 17.09,8.87 5.56,3.2 11,6.41 16.74,9.21 11.382,5.704 23.171,10.557 35.27,14.52 6,2 12.17,3.74 18.34,5.32 l 9.29,2.18 9.38,1.78 c 12.564,2.125 25.262,3.368 38,3.72 h 9.55 c 1.59,0 3.18,0 4.77,-0.08 l 4.76,-0.29 4.77,-0.28 c 1.59,-0.09 3.18,-0.17 4.75,-0.35 3.15,-0.32 6.3,-0.77 9.44,-1.27 12.661,-2.088 25.478,-3.092 38.31,-3 12.849,0.023 25.659,1.398 38.22,4.1 12.6,2.673 24.693,7.342 35.82,13.83 5.525,3.297 10.699,7.151 15.44,11.5 4.707,4.347 8.974,9.147 12.74,14.33 7.592,10.408 13.639,21.86 17.95,34 2.164,6.036 3.922,12.209 5.26,18.48 1.303,6.272 2.225,12.617 2.76,19 0.502,6.384 0.638,12.791 0.41,19.19 -0.19,3.2 -0.29,6.4 -0.65,9.58 -0.36,3.18 -0.56,6.37 -1,9.54 -1.937,12.644 -4.713,25.145 -8.31,37.42 -3.52,12.29 -7.64,24.4 -12.27,36.31 4.547,-11.94 8.547,-24.067 12,-36.38 3.497,-12.285 6.169,-24.789 8,-37.43 0.45,-3.15 0.68,-6.33 1,-9.51 0.32,-3.18 0.41,-6.37 0.58,-9.55 0.177,-6.375 -0.007,-12.755 -0.55,-19.11 -0.576,-6.345 -1.535,-12.65 -2.87,-18.88 -1.376,-6.215 -3.163,-12.332 -5.35,-18.31 -4.34,-11.981 -10.378,-23.276 -17.93,-33.54 -3.742,-5.127 -7.975,-9.876 -12.64,-14.18 -4.697,-4.281 -9.824,-8.065 -15.3,-11.29 -11.015,-6.371 -22.98,-10.936 -35.44,-13.52 -12.453,-2.636 -25.151,-3.947 -37.88,-3.91 -12.734,-0.033 -25.447,1.024 -38,3.16 -3.16,0.53 -6.35,1 -9.55,1.31 -1.6,0.19 -3.2,0.26 -4.8,0.36 l -4.8,0.29 -4.8,0.29 c -1.6,0.13 -3.21,0.06 -4.81,0.1 l -9.62,0.06 c -12.824,-0.341 -25.608,-1.578 -38.26,-3.7 l -9.49,-1.78 -9.37,-2.18 c -6.21,-1.6 -12.38,-3.33 -18.47,-5.34 -12.201,-3.98 -24.091,-8.86 -35.57,-14.6 -5.76,-2.8 -11.35,-6 -16.86,-9.23 -5.51,-3.23 -11.15,-6.13 -16.93,-8.77 C 357.451,80.071 332.471,73.8525 307,72.57 l -4.77,-0.23 -2.38,-0.12 h -2.38 l -9.55,-0.06 -9.55,0.29 c -3.18,0.1 -6.35,0.39 -9.53,0.58 -12.688,0.9445 -25.319,2.55 -37.84,4.81 -12.548,2.226 -24.966,5.1303 -37.2,8.7 -3,0.87 -6.06,1.93 -9.07,3 l -9.05,3.08 -2.26,0.77 -2.21,0.9 -4.42,1.81 c -2.94,1.22 -5.89,2.4 -8.82,3.64 l -8.58,4.18 -4.33,2.08 c -1.43,0.7 -2.78,1.55 -4.17,2.32 L 132.6,113 c -0.687,0.383 -1.355,0.8 -2,1.25 l -2,1.32 -4,2.63 -4,2.64 c -1.33,0.87 -2.54,1.9 -3.82,2.85 l -7.58,5.79 c -4.73,4.24 -9.68,8.25 -14,12.91 -2.22,2.27 -4.54,4.45 -6.55,6.92 -2.01,2.47 -4.19,4.78 -6.19,7.25 l -5.74,7.6 c -1,1.24 -1.8,2.63 -2.7,3.94 l -2.62,4 c -6.8363,10.725 -12.5657,22.117 -17.1,34 -9.1,23.78 -13.39,49.28 -13.81,74.73 -0.2395,12.746 0.7282,25.486 2.89,38.05 0.53,3.15 1,6.31 1.57,9.45 l 1.83,9.39 2.1,9.33 c 0.74,3.1 1.57,6.18 2.34,9.28 6.4626,24.727 16.0675,48.525 28.58,70.81 1.53,2.8 3.23,5.5 4.85,8.25 1.62,2.75 3.38,5.42 5.19,8 3.54,5.333 7.3,10.49 11.28,15.47 4,5 8.16,9.84 12.58,14.45 2.21,2.3 4.48,4.55 6.83,6.71 2.324,2.204 4.757,4.29 7.29,6.25 z"
     fill="#1D9AE5"
     id="path27"
     style="display:inline;fill:#000000;stroke-width:0.5;stroke-dasharray:none" />
  <path
     d="M273.21 457.37L95.96 548.89H452.49L482.43 456.98L273.21 457.37Z"
     fill="#1D9AE5"
     id="path28"
     style="fill:#8f4f23;fill-opacity:0.89999998" />
  <path
     opacity="0.3"
     d="M333.43 511.73C378.231 511.73 414.55 500.331 414.55 486.27C414.55 472.209 378.231 460.81 333.43 460.81C288.629 460.81 252.31 472.209 252.31 486.27C252.31 500.331 288.629 511.73 333.43 511.73Z"
     fill="black"
     id="path29" />
  <path
     d="M279.93 475.42C279.93 475.42 279.13 478.96 280.31 480.93C280.31 480.93 292.19 499.35 307.85 507.29C307.85 507.29 316.12 511.7 329.03 503.83C329.03 503.83 335.03 500.37 327.81 497.53L291.07 483.67L279.93 475.42Z"
     fill="#2F2E41"
     id="path30"
     style="fill:#000000" />
  <path
     d="M355.76 490.86L332.82 463.41V460.82L352.67 483.15C354.484 485.254 356.72 486.951 359.234 488.131C361.748 489.312 364.483 489.948 367.26 490C370.125 490.021 372.957 489.389 375.54 488.15C375.984 487.999 376.392 487.757 376.738 487.439C377.083 487.122 377.359 486.736 377.547 486.306C377.735 485.876 377.832 485.411 377.83 484.942C377.829 484.473 377.73 484.009 377.54 483.58L377.83 483.72C382.75 492.6 368.35 493.57 361.4 493.55C360.321 493.541 359.256 493.295 358.282 492.831C357.307 492.366 356.447 491.693 355.76 490.86Z"
     fill="#2F2E41"
     id="path31"
     style="fill:#000000" />
  <path
     d="M284.41 449V464.11C284.41 464.11 288.19 469.25 299.52 467.71V450.38L284.41 449Z"
     fill="#F9B499"
     id="path32"
     style="fill:#ffffff;stroke:#000000;stroke-opacity:1;stroke-width:0.5;stroke-dasharray:none" />
  <path
     d="M334.59 444.81L335.18 451.4C335.18 451.4 343.65 460.46 350.12 451.99V439.87L334.59 444.81Z"
     fill="#F9B499"
     id="path33"
     style="fill:#ffffff;stroke:#000000;stroke-opacity:1;stroke-width:0.5;stroke-dasharray:none" />
  <path
     d="M185.21 129H328.74V415.9C328.74 417.361 328.159 418.763 327.126 419.796C326.093 420.829 324.691 421.41 323.23 421.41H185.23C183.949 421.41 182.72 420.901 181.815 419.995C180.909 419.09 180.4 417.861 180.4 416.58V133.79C180.41 132.519 180.921 131.304 181.822 130.408C182.722 129.511 183.939 129.005 185.21 129Z"
     fill="#1D9AE5"
     id="path36"
     style="fill:none;stroke:#000000;stroke-opacity:1;opacity:1;paint-order:fill markers stroke;stroke-width:0.5;stroke-dasharray:none" />
  <path
     opacity="0.2"
     d="m 301.02018,313.98 h -102.3 c -2.916,0 -5.28,2.364 -5.28,5.28 v 78.54 c 0,2.916 2.364,5.28 5.28,5.28 h 102.3 c 2.916,0 5.28,-2.364 5.28,-5.28 v -78.54 c 0,-2.916 -2.364,-5.28 -5.28,-5.28 z"
     fill="#ffffff"
     id="path38"
     style="fill:none;stroke:#000000;stroke-opacity:1;opacity:1;stroke-width:0.5;stroke-dasharray:none" />
  <path
     opacity="0.2"
     d="m 299.34411,206.80411 h -102.3 c -2.916,0 -5.28,2.364 -5.28,5.28 v 31.94 c 0,2.916 2.364,5.28 5.28,5.28 h 102.3 c 2.916,0 5.28,-2.364 5.28,-5.28 v -31.94 c 0,-2.916 -2.364,-5.28 -5.28,-5.28 z"
     fill="#ffffff"
     id="path40"
     style="fill:none;stroke:#000000;stroke-opacity:1;opacity:1;stroke-width:0.5;stroke-dasharray:none" />
  <path
     opacity="0.2"
     d="m 288.11018,148.34607 h -89.39 c -2.916,0 -5.28,2.364 -5.28,5.28 v 31.94 c 0,2.916 2.364,5.28 5.28,5.28 h 89.39 c 2.916,0 5.28,-2.364 5.28,-5.28 v -31.94 c 0,-2.916 -2.364,-5.28 -5.28,-5.28 z"
     fill="#ffffff"
     id="path42"
     style="opacity:0.7147651;fill:none;fill-opacity:1;stroke:#000000;stroke-dasharray:none;stroke-opacity:1;paint-order:stroke fill markers;stroke-width:0.5;stroke-linejoin:bevel;stroke-linecap:square" />
  <path
     opacity="0.2"
     d="m 300.18215,261.47 h -102.3 c -2.916,0 -5.28,2.364 -5.28,5.28 v 31.94 c 0,2.916 2.364,5.28 5.28,5.28 h 102.3 c 2.916,0 5.28,-2.364 5.28,-5.28 v -31.94 c 0,-2.916 -2.364,-5.28 -5.28,-5.28 z"
     fill="#ffffff"
     id="path43"
     style="fill:none;stroke:#000000;stroke-opacity:1;opacity:1;stroke-width:0.5;stroke-dasharray:none" />
  <path
     d="M354.09 208.51L358.54 222.59L374.08 217.5L369.78 205.26C369.78 205.26 364.41 209.91 354.09 208.51Z"
     fill="#F9B499"
     id="path44"
     style="fill:#ffffff;stroke:#000000;stroke-opacity:1;stroke-width:0.5;stroke-dasharray:none" />
  <path
     d="M354.09 208.51L355.8 213.92C355.8 213.92 366.42 213.7 370.45 207.16L369.78 205.26C369.78 205.26 365.23 209.79 354.09 208.51Z"
     fill="#F7A48B"
     id="path45"
     style="fill:#ffffff;stroke:#000000;stroke-opacity:1;stroke-width:0.5;stroke-dasharray:none" />
  <path
     d="M327.33 183C318.78 183.58 308.54 165.77 308.54 165.77L307.13 140.35L309.8 138.77L328.2 155.72L328.55 167.4C335.16 181.38 327.33 183 327.33 183Z"
     fill="#F9B499"
     id="path46"
     style="fill:#ffffff;stroke:#000000;stroke-opacity:1;stroke-width:0.5;stroke-dasharray:none" />
  <path
     d="M371.57 203.29C366.43 210.59 354.09 208.51 354.09 208.51C354.384 214.252 352.934 219.948 349.93 224.85L345.29 249.19L342.08 262.19C312.45 267.79 287.46 255.62 287.46 255.62C283.3 253.54 286.51 248.89 286.51 248.89L299.79 219.11C273.86 225.83 273.05 213.01 273.05 212.06C273.05 211.11 284.42 178.11 284.42 178.11C286.02 164.81 308.54 165.83 308.54 165.83C308.54 165.83 318.78 183.64 327.33 183.06C327.33 183.06 335.16 181.4 328.55 167.46L340.32 167.7C344.292 167.679 348.191 168.761 351.585 170.825C354.978 172.889 357.732 175.854 359.54 179.39L371.67 198.45C372.132 199.177 372.369 200.024 372.352 200.885C372.334 201.746 372.062 202.583 371.57 203.29Z"
     fill="#1D9AE5"
     id="path47"
     style="fill:#8f4f23;fill-opacity:1" />
  <path
     opacity="0.2"
     d="M299.79 219.09C300.299 219.016 300.803 218.912 301.3 218.78C302.111 218.565 302.823 218.076 303.315 217.396C303.807 216.717 304.049 215.888 304 215.05L303 196.34C303 196.34 305.73 196.82 310.21 215.56C310.21 215.56 317.26 246.47 342.08 244.39L346.19 244.49L342.08 262.17C323.62 265.24 304.666 262.96 287.46 255.6C287.46 255.6 283.18 254.11 286.51 248.87L299.79 219.09Z"
     fill="black"
     id="path48" />
  <path
     d="M356.13 276.87V334.33L353.82 436.13C353.32 452.21 340.66 448.57 336.82 447.13C336.13 446.86 335.73 446.67 335.73 446.67C333.716 446.497 331.714 446.217 329.73 445.83C329.271 445.741 328.854 445.506 328.54 445.16C328.226 444.814 328.033 444.375 327.99 443.91L322.99 389.79V348C322.99 348.5 322.99 349 322.88 349.58V349.8C321.78 361.22 315 384.5 315 384.5L306 451.31C305.17 458.47 299.14 458.22 293 455.96C288.109 453.976 283.461 451.436 279.15 448.39C278.27 402.88 285 348 285 348C276 267.78 287.48 255.56 287.48 255.56C292.33 257.515 297.305 259.149 302.37 260.45C334.37 268.14 348.88 258.74 348.88 258.74L356.13 276.87Z"
     fill="#2F2E41"
     id="path49"
     style="fill:#ffffff;stroke:#000000;stroke-opacity:1;stroke-width:0.5;stroke-dasharray:none" />
  <path
     opacity="0.2"
     d="M287.31 304.28L288.48 351.83C288.48 351.83 286.53 433 293 456C288.109 454.016 283.461 451.476 279.15 448.43C278.27 402.88 285 348 285 348C276 267.78 287.48 255.56 287.48 255.56C292.348 257.466 297.319 259.099 302.37 260.45L303.09 261.32C303.09 261.32 287.89 272.78 287.31 304.28Z"
     fill="black"
     id="path50" />
  <path
     d="M322.91 349.62L323 348C323 348.54 323 349.05 322.91 349.62Z"
     stroke="#ED1C24"
     stroke-width="0.25"
     stroke-miterlimit="10"
     id="path51" />
  <path
     opacity="0.2"
     d="M336.83 447.1C336.14 446.83 335.74 446.64 335.74 446.64C333.726 446.467 331.724 446.187 329.74 445.8C329.281 445.711 328.864 445.476 328.55 445.13C328.236 444.784 328.043 444.345 328 443.88L323 389.76V348L331 282.79C330.73 286.06 324.71 359.11 329.56 397.88L336.83 447.1Z"
     fill="black"
     id="path52" />
  <path
     d="M327.89 499.16C324.95 501.66 315.76 508.27 305.51 503.46C303.858 502.663 302.308 501.673 300.89 500.51C300.89 500.51 285.06 485.31 280.41 476.84C280.11 476.29 279.949 475.676 279.94 475.05C279.886 470.891 280.394 466.743 281.45 462.72C281.492 462.584 281.571 462.462 281.679 462.369C281.787 462.276 281.919 462.215 282.059 462.193C282.2 462.171 282.344 462.189 282.475 462.245C282.606 462.301 282.719 462.393 282.8 462.51C284.01 464.31 286.91 467.14 293.27 467.78C295.353 467.978 297.451 467.958 299.53 467.72C299.53 467.72 301.64 467.03 303.08 473.39C303.08 473.39 311.2 485.73 327.81 497.53C327.945 497.616 328.057 497.733 328.137 497.871C328.217 498.009 328.264 498.165 328.271 498.324C328.279 498.484 328.249 498.643 328.182 498.788C328.116 498.934 328.016 499.061 327.89 499.16Z"
     fill="#1D9AE5"
     id="path53"
     style="fill:#8f4f23;fill-opacity:1" />
  <path
     opacity="0.2"
     d="M305.51 503.46C303.858 502.663 302.308 501.673 300.89 500.51C300.89 500.51 285.06 485.31 280.41 476.84C280.11 476.29 279.949 475.676 279.94 475.05C279.886 470.891 280.394 466.743 281.45 462.72C281.492 462.584 281.571 462.462 281.679 462.369C281.787 462.276 281.919 462.215 282.059 462.193C282.2 462.171 282.344 462.189 282.475 462.245C282.606 462.301 282.719 462.393 282.8 462.51C284.01 464.31 286.91 467.14 293.27 467.78C293 474.05 293.54 490.85 305.51 503.46Z"
     fill="black"
     id="path54"
     style="fill:#8f4f23;fill-opacity:1" />
  <path
     d="M375.54 488.11C373.155 489.251 370.558 489.879 367.916 489.953C365.273 490.027 362.645 489.546 360.2 488.54C357.314 487.337 354.74 485.494 352.67 483.15L332.82 460.82V455.6C332.59 449.81 335.17 451.41 335.17 451.41L339.64 451.58L350.11 451.99C351.62 450.55 353.17 452.72 354.18 454.72C355.333 456.958 356.764 459.041 358.44 460.92L375.53 480.34C376.389 481.274 377.067 482.359 377.53 483.54C377.72 483.968 377.82 484.432 377.822 484.9C377.823 485.369 377.728 485.833 377.54 486.263C377.353 486.693 377.079 487.079 376.734 487.397C376.39 487.715 375.983 487.958 375.54 488.11Z"
     fill="#1D9AE5"
     id="path55"
     style="fill:#8f4f23;fill-opacity:1" />
  <path
     opacity="0.2"
     d="M360.2 488.54C357.314 487.337 354.74 485.494 352.67 483.15L332.82 460.82V455.6C332.59 449.81 335.17 451.41 335.17 451.41L339.64 451.58L339.84 454.7C339.84 454.7 347.34 481.78 360.2 488.54Z"
     fill="black"
     id="path56"
     style="fill:#000000" />
  <path
     d="M95.9999 548.89C95.9999 548.89 93.52 558.17 102.41 558.17H465.15L631.57 439.87L626 435.11L465.34 548.89L556.64 263.5L690.84 214.72H677.29L544.36 263.31L452.49 548.89H95.9999Z"
     fill="#2F2E41"
     id="path57" />
  <path
     d="M430.08 242.31L438.63 159.04L516.97 130.85L506.58 217.03L430.08 242.31Z"
     fill="white"
     id="path58"
     style="stroke:#000000;stroke-opacity:0.96226418;paint-order:stroke fill markers;stroke-width:0.5;stroke-dasharray:none" />
  <path
     d="M443.31 220.84L449.44 167.88L459 164.63L453.69 217.34L443.31 220.84Z"
     fill="#1D9AE5"
     id="path59"
     style="fill:#8f4f23;fill-opacity:1" />
  <path
     d="M462.43 177.6L472.11 173.35L467.48 212.2L457.24 216.32L462.43 177.6Z"
     fill="#2F2E41"
     id="path60"
     style="fill:#000000" />
  <path
     d="M477.42 157.18L472.11 210.89L482.03 206.88L487.22 152.81L477.42 157.18Z"
     fill="#E6E7E8"
     id="path61" />
  <path
     d="M490.53 164.63L486.57 205.76L496.31 201.8L500.68 160.84L490.53 164.63Z"
     fill="#D1D3D4"
     id="path62" />
  <path
     d="M328.2 155.76L328.4 162.49C328.4 162.49 322.05 162.96 318.87 155.58L328.2 155.76Z"
     fill="#F7A48B"
     id="path65"
     style="fill:#ffffff" />
  <path
     d="M327.33 158.08C338.481 158.08 347.52 145.889 347.52 130.85C347.52 115.811 338.481 103.62 327.33 103.62C316.179 103.62 307.14 115.811 307.14 130.85C307.14 145.889 316.179 158.08 327.33 158.08Z"
     fill="#F9B499"
     id="path66"
     style="fill:#ffffff;paint-order:markers stroke fill;stroke-width:1;stroke-dasharray:none;stroke:#000000;stroke-opacity:1" />
  <path
     d="M350.69 123C350.69 123 354.39 112.91 340.48 103.61C340.48 103.61 325.07 84.55 307.14 99.54L298.14 106.71L298.09 106.81C297.577 105.861 296.822 105.065 295.902 104.504C294.982 103.942 293.929 103.634 292.851 103.611C291.773 103.589 290.708 103.853 289.765 104.376C288.822 104.899 288.034 105.662 287.483 106.589C286.931 107.515 286.634 108.571 286.624 109.65C286.613 110.728 286.889 111.79 287.422 112.727C287.955 113.664 288.727 114.443 289.66 114.985C290.592 115.526 291.652 115.811 292.73 115.81H292.96C289.29 122.16 281.47 139.98 300.69 151.81C301.158 152.1 301.69 152.271 302.239 152.308C302.788 152.345 303.338 152.246 303.84 152.02L307.84 150.17L307.29 143.25L315.5 130C315.5 130 332.75 134.51 343.35 114.33C345.851 119.192 347.27 124.538 347.51 130C347.51 130 352.87 118 343.51 108.27C343.52 108.24 350.26 110.85 350.69 123Z"
     fill="#2F2E41"
     id="path67"
     style="fill:#000000" />
  <path
     d="M303.39 144.61C306.952 144.61 309.84 141.722 309.84 138.16C309.84 134.598 306.952 131.71 303.39 131.71C299.828 131.71 296.94 134.598 296.94 138.16C296.94 141.722 299.828 144.61 303.39 144.61Z"
     fill="#F9B499"
     id="path68"
     style="fill:#ffffff" />
  <path
     d="M287.46 255.6C286.44 257.033 285.688 258.639 285.24 260.34C285.24 260.34 326.15 271.81 334.9 262.94C334.9 262.94 312.64 266.07 287.46 255.6Z"
     fill="#2F2E41"
     id="path69" />
  <path
     opacity="0.4"
     d="M287.46 255.6C286.44 257.033 285.688 258.639 285.24 260.34C285.24 260.34 326.15 271.81 334.9 262.94C334.9 262.94 312.64 266.07 287.46 255.6Z"
     fill="black"
     id="path70" />
  <path
     d="M348.21 225.79C347.632 225.961 347.125 226.314 346.764 226.797C346.403 227.28 346.209 227.867 346.21 228.47C346.21 235.33 345.51 257.68 336.8 275.47C336.8 275.47 332.45 283.47 337.88 282.64L376.34 274.38C376.34 274.38 385.25 272.59 386.99 263.49C386.99 263.49 395.44 229.89 395.3 212.26C395.299 212.033 395.243 211.809 395.138 211.608C395.033 211.407 394.88 211.233 394.694 211.103C394.508 210.973 394.293 210.889 394.068 210.859C393.843 210.829 393.614 210.853 393.4 210.93C386.57 213.3 362.31 221.62 348.21 225.79Z"
     fill="white"
     id="path71"
     style="stroke:#000000;stroke-opacity:1;stroke-width:0.5;stroke-dasharray:none" />
  <path
     d="M394.06 227.7C394.06 227.7 399.06 248.07 391.21 253.55C390.963 253.724 390.675 253.832 390.375 253.863C390.074 253.894 389.77 253.848 389.493 253.729C389.215 253.61 388.972 253.421 388.788 253.181C388.604 252.942 388.484 252.659 388.44 252.36C388.344 251.842 388.351 251.311 388.461 250.796C388.571 250.281 388.781 249.793 389.08 249.36C389.08 249.36 388.08 245.36 390.65 243.78C390.65 243.78 387.7 238.7 392.65 236.92L394.06 227.7Z"
     fill="#F9B499"
     id="path72"
     style="fill:#ffffff;stroke:#000000;stroke-opacity:1;stroke-width:0.5;stroke-dasharray:none" />
  <path
     d="M390.65 243.83C391.069 243.251 391.538 242.709 392.05 242.21L392.77 241.53C393.02 241.3 393.26 241.05 393.6 240.78C393.665 241.185 393.629 241.6 393.495 241.987C393.36 242.374 393.132 242.722 392.83 243C392.55 243.29 392.209 243.515 391.833 243.659C391.456 243.802 391.052 243.861 390.65 243.83Z"
     fill="#F7A48B"
     id="path73"
     style="fill:#000000" />
  <path
     d="M389.08 249.41C389.91 248.89 390.63 248.52 391.34 248.09C391.7 247.89 392.05 247.68 392.41 247.46C392.793 247.214 393.191 246.99 393.6 246.79C393.492 247.267 393.284 247.715 392.989 248.104C392.694 248.494 392.319 248.816 391.89 249.05C391.469 249.289 391.008 249.452 390.53 249.53C390.045 249.62 389.544 249.579 389.08 249.41Z"
     fill="#F7A48B"
     id="path74"
     style="fill:#000000" />
  <path
     d="M281.2 220.42C281.2 220.42 277.79 233.33 285.2 236.81L332.85 261.81C332.85 261.81 350.45 270.5 358.92 264.81C358.92 264.81 363.92 263.73 363.48 261.34C363.48 261.34 367.48 259.17 363.48 256.99C363.48 256.99 365.62 254.39 356.48 254.39C347.81 254.39 344 250.39 345 244.79C345.014 244.7 345.004 244.609 344.971 244.524C344.938 244.44 344.883 244.366 344.811 244.31C344.74 244.254 344.655 244.218 344.565 244.205C344.475 244.193 344.384 244.205 344.3 244.24C341.349 245.364 338.529 246.806 335.89 248.54C335.249 248.997 334.507 249.292 333.727 249.402C332.947 249.511 332.153 249.432 331.41 249.17C325.05 246.88 308.96 239.77 300.21 223.97C300.21 223.97 298.55 222.86 299.7 219.07C299.79 219.09 288.82 222.29 281.2 220.42Z"
     fill="#F9B499"
     id="path75"
     style="fill:#ffffff;paint-order:markers fill stroke;stroke:#000000;stroke-opacity:1;stroke-linecap:butt;stroke-width:0.5;stroke-dasharray:none" />
  <path
     d="M363.55 257C362.908 257.421 362.186 257.707 361.43 257.84C360.688 257.978 359.935 258.042 359.18 258.03C357.675 258.018 356.19 257.676 354.83 257.03C355.567 256.953 356.309 256.919 357.05 256.93C357.78 256.93 358.49 256.93 359.21 256.93C360.65 257 362 257 363.55 257Z"
     fill="#F7A48B"
     id="path76"
     style="fill:#000000" />
  <path
     d="M363.52 261.36C361.873 261.898 360.153 262.178 358.42 262.19C357.558 262.205 356.695 262.155 355.84 262.04C354.967 261.943 354.114 261.714 353.31 261.36C355.05 261.21 356.71 261.13 358.4 261.09C360.111 261.036 361.824 261.127 363.52 261.36Z"
     fill="#F7A48B"
     id="path77"
     style="fill:#000000" />
  <path
     d="M359 264.83C358.607 265.162 358.147 265.405 357.65 265.54C357.174 265.687 356.679 265.764 356.18 265.77C355.154 265.812 354.147 265.478 353.35 264.83C354.286 264.715 355.228 264.662 356.17 264.67C357.116 264.652 358.062 264.705 359 264.83Z"
     fill="#F7A48B"
     id="path78"
     style="fill:#000000" />
  <path
     d="M556.64 263.5L465.34 548.89L625.95 435.11L653.84 319.21L690.84 214.72L556.64 263.5Z"
     fill="#1D9AE5"
     id="path79"
     style="fill:#8f4f23;fill-opacity:0.89999998" />
  <path
     d="M687.85 277.34H577.09C572.755 277.34 569.24 280.855 569.24 285.19V563.24C569.24 567.576 572.755 571.09 577.09 571.09H687.85C692.185 571.09 695.7 567.576 695.7 563.24V285.19C695.7 280.855 692.185 277.34 687.85 277.34Z"
     fill="#1D9AE5"
     id="path83"
     style="paint-order:fill markers stroke;stroke:#000000;stroke-opacity:0.96226418;fill:#ffffff;stroke-width:0.5;stroke-dasharray:none" />
  <path
     opacity="0.2"
     d="M675.16 293.65H589.68C587.758 293.65 586.2 295.208 586.2 297.13V317.02C586.2 318.942 587.758 320.5 589.68 320.5H675.16C677.082 320.5 678.64 318.942 678.64 317.02V297.13C678.64 295.208 677.082 293.65 675.16 293.65Z"
     fill="white"
     id="path86"
     style="stroke:#000000;stroke-opacity:0.96226418;opacity:1;stroke-width:0.5;stroke-dasharray:none" />
  <path
     opacity="0.2"
     d="M675.21 336.23H589.73C587.808 336.23 586.25 337.788 586.25 339.71V359.6C586.25 361.522 587.808 363.08 589.73 363.08H675.21C677.132 363.08 678.69 361.522 678.69 359.6V339.71C678.69 337.788 677.132 336.23 675.21 336.23Z"
     fill="white"
     id="path87"
     style="stroke:#000000;stroke-opacity:0.96226418;opacity:1;stroke-width:0.5;stroke-dasharray:none" />
  <path
     opacity="0.2"
     d="M675.18 378.8H589.7C587.778 378.8 586.22 380.358 586.22 382.28V402.17C586.22 404.092 587.778 405.65 589.7 405.65H675.18C677.102 405.65 678.66 404.092 678.66 402.17V382.28C678.66 380.358 677.102 378.8 675.18 378.8Z"
     fill="white"
     id="path88"
     style="stroke:#000000;stroke-opacity:0.96226418;opacity:1;stroke-width:0.5;stroke-dasharray:none" />
  <path
     opacity="0.2"
     d="M675.23 421.38H589.75C587.828 421.38 586.27 422.938 586.27 424.86V444.75C586.27 446.672 587.828 448.23 589.75 448.23H675.23C677.152 448.23 678.71 446.672 678.71 444.75V424.86C678.71 422.938 677.152 421.38 675.23 421.38Z"
     fill="white"
     id="path89"
     style="stroke:#000000;stroke-opacity:0.96226418;opacity:1;stroke-width:0.5;stroke-dasharray:none" />
  <path
     opacity="0.2"
     d="M676.72 463.95H591.24C589.318 463.95 587.76 465.508 587.76 467.43V487.32C587.76 489.242 589.318 490.8 591.24 490.8H676.72C678.642 490.8 680.2 489.242 680.2 487.32V467.43C680.2 465.508 678.642 463.95 676.72 463.95Z"
     fill="white"
     id="path90"
     style="stroke:#000000;stroke-opacity:0.96226418;opacity:1;stroke-width:0.5;stroke-dasharray:none" />
  <path
     opacity="0.2"
     d="M676.76 506.53H591.28C589.358 506.53 587.8 508.088 587.8 510.01V529.9C587.8 531.822 589.358 533.38 591.28 533.38H676.76C678.682 533.38 680.24 531.822 680.24 529.9V510.01C680.24 508.088 678.682 506.53 676.76 506.53Z"
     fill="white"
     id="path91"
     style="opacity:1;stroke-width:0.5;stroke-dasharray:none;stroke:#000000;stroke-opacity:0.96226418" />
  <path
     d="M445.1 299.17L422.82 335.81C422.82 335.81 438.03 356.39 458.82 324.89C458.82 324.89 479.82 290.89 469.96 263.64L445.53 297.64L443.3 260.15C443.3 260.15 416.39 285 419 321.67L445.1 299.17Z"
     fill="white"
     id="path92"
     style="stroke:#353535;stroke-opacity:1;fill:#ffffff;stroke-width:0.5;stroke-dasharray:none;fill-opacity:1" />
  <path
     d="M445.53 297.67L443.3 260.18C443.3 260.18 459.89 245 470 263.64L445.53 297.67Z"
     fill="#1D9AE5"
     id="path93"
     style="fill:#8f4f23;fill-opacity:1;stroke:#000000;stroke-opacity:0.96226418;stroke-width:0.5;stroke-dasharray:none" />
</svg>
