<?xml version="1.0" encoding="UTF-8" standalone="no"?>
<svg
   xmlns:dc="http://purl.org/dc/elements/1.1/"
   xmlns:cc="http://creativecommons.org/ns#"
   xmlns:rdf="http://www.w3.org/1999/02/22-rdf-syntax-ns#"
   xmlns:svg="http://www.w3.org/2000/svg"
   xmlns="http://www.w3.org/2000/svg"
   xmlns:sodipodi="http://sodipodi.sourceforge.net/DTD/sodipodi-0.dtd"
   xmlns:inkscape="http://www.inkscape.org/namespaces/inkscape"
   width="366"
   height="206"
   viewBox="0 0 366 206"
   fill="none"
   version="1.1"
   id="svg994"
   sodipodi:docname="photo.svg"
   inkscape:version="0.92.4 (5da689c313, 2019-01-14)">
  <metadata
     id="metadata1000">
    <rdf:RDF>
      <cc:Work
         rdf:about="">
        <dc:format>image/svg+xml</dc:format>
        <dc:type
           rdf:resource="http://purl.org/dc/dcmitype/StillImage" />
      </cc:Work>
    </rdf:RDF>
  </metadata>
  <defs
     id="defs998" />
  <sodipodi:namedview
     pagecolor="#ffffff"
     bordercolor="#666666"
     borderopacity="1"
     objecttolerance="10"
     gridtolerance="10"
     guidetolerance="10"
     inkscape:pageopacity="0"
     inkscape:pageshadow="2"
     inkscape:window-width="1920"
     inkscape:window-height="1017"
     id="namedview996"
     showgrid="false"
     inkscape:zoom="1.9672131"
     inkscape:cx="52.777079"
     inkscape:cy="80.689908"
     inkscape:window-x="-8"
     inkscape:window-y="-8"
     inkscape:window-maximized="1"
     inkscape:current-layer="svg994" />
  <path
     d="M335.459 122.492C337.523 123.785 339.664 124.953 341.869 125.988C342.215 125.988 341.719 126.66 348.643 114.158C348.691 114.07 348.702 113.968 348.675 113.872C348.647 113.776 348.582 113.696 348.495 113.648C341.753 109.914 342.197 110.104 341.981 110.166C341.765 110.228 342.181 109.566 335.311 121.98C335.263 122.067 335.252 122.17 335.28 122.266C335.307 122.362 335.372 122.443 335.459 122.492V122.492ZM342.231 111.038L347.803 114.124L341.723 125.102L336.151 122.016L342.231 111.038Z"
     fill="#26AAFD"
     id="path940"
     style="fill:#c5d6e6;fill-opacity:1" />
  <path
     d="M327.467 118.053C329.529 119.352 331.671 120.52 333.879 121.551C334.223 121.551 333.727 122.225 340.651 109.721C340.699 109.634 340.711 109.532 340.683 109.436C340.656 109.341 340.592 109.26 340.505 109.211L334.275 105.761C334.232 105.737 334.185 105.722 334.136 105.716C334.087 105.711 334.037 105.715 333.99 105.728C333.942 105.742 333.898 105.765 333.859 105.795C333.821 105.826 333.789 105.864 333.765 105.907L327.319 117.543C327.271 117.631 327.26 117.733 327.288 117.829C327.315 117.925 327.38 118.005 327.467 118.053V118.053Z"
     fill="#26AAFD"
     id="path942"
     style="fill:#c5d6e6;fill-opacity:1" />
  <path
     d="M319.475 113.63C321.538 114.927 323.679 116.095 325.887 117.126C326.231 117.126 325.761 117.814 332.659 105.298C332.707 105.211 332.719 105.108 332.692 105.012C332.664 104.916 332.6 104.835 332.513 104.786C325.729 101.03 326.213 101.244 325.997 101.302C325.781 101.36 326.187 100.732 319.329 113.118C319.305 113.161 319.29 113.209 319.284 113.258C319.278 113.307 319.282 113.357 319.296 113.405C319.309 113.452 319.332 113.496 319.363 113.535C319.394 113.574 319.432 113.606 319.475 113.63V113.63ZM326.247 102.176L331.819 105.262L325.739 116.238L320.169 113.154L326.247 102.176Z"
     fill="#26AAFD"
     id="path944"
     style="fill:#c5d6e6;fill-opacity:1" />
  <path
     d="M364.969 78.9381C364.966 78.8382 364.924 78.7434 364.852 78.6745C364.78 78.6055 364.683 78.568 364.583 78.5701L292.097 80.1381C285.349 74.038 277.496 69.2859 268.961 66.1381C268.869 66.1113 268.77 66.1205 268.685 66.1636C268.599 66.2068 268.534 66.2808 268.5 66.3707C268.467 66.4607 268.47 66.5597 268.507 66.648C268.544 66.7362 268.614 66.807 268.701 66.8461C280.731 71.2755 291.337 78.8806 299.392 88.8538C307.447 98.827 312.65 110.796 314.448 123.489C316.247 136.182 314.574 149.125 309.607 160.943C304.64 172.761 296.564 183.014 286.238 190.611C275.912 198.208 263.721 202.866 250.96 204.091C238.199 205.316 225.344 203.061 213.762 197.566C202.179 192.071 192.301 183.542 185.177 172.884C178.053 162.226 173.949 149.837 173.301 137.034C173.299 136.985 173.286 136.936 173.265 136.892C173.244 136.847 173.214 136.807 173.177 136.774C173.141 136.741 173.098 136.715 173.051 136.698C173.005 136.682 172.955 136.675 172.906 136.677C172.857 136.68 172.808 136.692 172.764 136.713C172.719 136.734 172.679 136.764 172.646 136.801C172.613 136.837 172.587 136.88 172.57 136.927C172.554 136.973 172.547 137.023 172.549 137.072C173.063 147.228 175.731 157.158 180.376 166.204C185.022 175.25 191.538 183.204 199.492 189.539C207.447 195.874 216.658 200.444 226.514 202.947C236.37 205.45 246.645 205.828 256.658 204.055C266.672 202.283 276.193 198.401 284.591 192.668C292.99 186.934 300.072 179.48 305.369 170.799C310.666 162.119 314.056 152.412 315.314 142.321C316.573 132.23 315.67 121.987 312.667 112.272C344.243 129.76 343.025 129.142 343.227 129.142C343.547 129.142 342.827 130.272 352.049 113.612C352.097 113.525 352.109 113.422 352.081 113.326C352.054 113.23 351.99 113.149 351.903 113.1L324.149 97.7301C367.667 96.7901 365.053 96.9301 365.245 96.7301C365.437 96.5301 365.351 97.4921 364.969 78.9381ZM306.521 98.1141L314.993 97.9321L310.445 106.142C309.303 103.388 307.993 100.707 306.521 98.1141ZM310.809 107.04L315.863 97.9121L317.323 97.8821L311.401 108.576C311.209 108.06 311.021 107.55 310.809 107.04V107.04ZM318.193 97.8621C318.557 97.8621 317.851 97.5261 323.827 100.836L317.747 111.812L312.177 108.728L318.193 97.8621ZM351.207 113.582L343.077 128.258L312.331 111.23C312.119 110.586 311.898 109.945 311.667 109.306L317.713 112.654C317.801 112.702 317.904 112.713 318 112.686C318.096 112.658 318.177 112.593 318.225 112.506L324.667 100.872C324.691 100.829 324.706 100.781 324.712 100.732C324.718 100.683 324.714 100.633 324.7 100.586C324.687 100.538 324.664 100.494 324.633 100.455C324.602 100.416 324.564 100.384 324.521 100.36L319.943 97.8241L322.651 97.7661L351.207 113.582ZM306.093 97.3721C302.523 91.2569 298.076 85.6984 292.893 80.8741L364.221 79.3321L364.583 96.1081L306.093 97.3721Z"
     fill="#26AAFD"
     id="path946"
     style="fill:#c5d6e6;fill-opacity:1" />
  <path
     d="M361.909 80.7461C354.637 80.8421 354.719 80.8141 354.527 81.0141C354.335 81.2141 354.425 80.5921 354.711 94.5801C354.713 94.6784 354.754 94.772 354.824 94.8408C354.894 94.9096 354.989 94.9481 355.087 94.9481L362.213 94.7961C362.313 94.7935 362.408 94.7514 362.477 94.679C362.546 94.6067 362.583 94.51 362.581 94.4101L362.293 81.1141C362.288 81.0154 362.245 80.9223 362.174 80.8539C362.103 80.7856 362.008 80.747 361.909 80.7461V80.7461Z"
     fill="#26AAFD"
     id="path948"
     style="fill:#c5d6e6;fill-opacity:1" />
  <path
     d="M353.045 81.0481C352.845 80.8481 353.033 80.9301 345.657 81.0961C345.608 81.0972 345.559 81.1079 345.514 81.1278C345.469 81.1476 345.428 81.1762 345.394 81.2119C345.359 81.2475 345.333 81.2896 345.315 81.3356C345.297 81.3816 345.288 81.4307 345.289 81.4801L345.577 94.7781C345.579 94.8765 345.62 94.97 345.69 95.0388C345.76 95.1076 345.855 95.1461 345.953 95.1461L353.079 94.9921C353.129 94.9911 353.177 94.9803 353.222 94.9605C353.268 94.9406 353.309 94.912 353.343 94.8764C353.377 94.8407 353.404 94.7987 353.422 94.7526C353.44 94.7066 353.448 94.6575 353.447 94.6081C353.159 80.6121 353.245 81.2361 353.045 81.0481Z"
     fill="#26AAFD"
     id="path950"
     style="fill:#c5d6e6;fill-opacity:1" />
  <path
     d="M343.911 81.2438C343.711 81.0438 343.985 81.1438 336.523 81.2938C336.474 81.2949 336.425 81.3056 336.38 81.3255C336.335 81.3454 336.294 81.3739 336.26 81.4096C336.225 81.4453 336.199 81.4873 336.181 81.5333C336.163 81.5794 336.154 81.6285 336.155 81.6778L336.443 94.9738C336.445 95.0722 336.486 95.1658 336.556 95.2346C336.626 95.3033 336.721 95.3419 336.819 95.3418L343.947 95.1898C344.047 95.1872 344.141 95.1454 344.21 95.0735C344.279 95.0016 344.317 94.9054 344.315 94.8058C344.021 80.8258 344.111 81.4358 343.911 81.2438ZM337.187 94.5838L336.917 82.0378L343.283 81.8998L343.555 94.4458L337.187 94.5838Z"
     fill="#26AAFD"
     id="path952"
     style="fill:#c5d6e6;fill-opacity:1" />
  <path
     d="M334.509 81.3379C327.239 81.4939 327.323 81.4039 327.127 81.6059C326.931 81.8079 326.993 81.1679 327.309 95.1739C327.312 95.2721 327.352 95.3654 327.423 95.434C327.493 95.5027 327.587 95.5414 327.685 95.5419L334.813 95.3859C334.912 95.3838 335.007 95.3424 335.076 95.2708C335.145 95.1993 335.183 95.1033 335.181 95.0039L334.893 81.7059C334.885 81.6081 334.842 81.5167 334.771 81.4488C334.7 81.381 334.607 81.3415 334.509 81.3379V81.3379ZM328.055 94.7799L327.783 82.2359L334.149 82.0979L334.421 94.6419L328.055 94.7799Z"
     fill="#26AAFD"
     id="path954"
     style="fill:#c5d6e6;fill-opacity:1" />
  <path
     d="M325.643 81.6382C325.443 81.4382 325.643 81.5222 318.257 81.6882C318.157 81.6908 318.063 81.7326 317.994 81.8045C317.925 81.8764 317.887 81.9726 317.889 82.0722L318.177 95.3702C318.179 95.4685 318.22 95.5621 318.29 95.6309C318.36 95.6997 318.455 95.7382 318.553 95.7382L325.679 95.5842C325.779 95.5821 325.874 95.5405 325.943 95.4685C326.013 95.3966 326.051 95.3001 326.049 95.2002C325.759 81.2202 325.845 81.8322 325.643 81.6382ZM318.921 94.9782L318.649 82.4322L325.017 82.2962L325.287 94.8402L318.921 94.9782Z"
     fill="#26AAFD"
     id="path956"
     style="fill:#c5d6e6;fill-opacity:1" />
  <path
     d="M240.323 106.868C240.123 106.868 240.085 106.812 226.779 101.868C226.685 101.833 226.609 101.763 226.568 101.672C226.526 101.581 226.522 101.478 226.557 101.384C226.592 101.291 226.662 101.215 226.753 101.173C226.844 101.131 226.947 101.127 227.041 101.162L240.455 106.144C240.535 106.177 240.601 106.236 240.643 106.312C240.684 106.387 240.698 106.475 240.683 106.56C240.667 106.645 240.623 106.722 240.558 106.778C240.492 106.834 240.409 106.866 240.323 106.868V106.868Z"
     fill="#3B29AB"
     id="path958"
     style="fill:#c5d6e6;fill-opacity:1" />
  <path
     d="M184.741 85.4496C118.205 60.7856 122.685 62.3376 122.467 62.4496C122.249 62.5616 122.517 61.9956 119.535 70.0256C119.296 69.5549 118.928 69.1622 118.473 68.8936L97.8511 56.6116C97.2403 56.2492 96.5138 56.1346 95.8211 56.2916L66.4391 60.1516C66.4729 60.0564 66.4694 59.9519 66.4293 59.8592C66.3892 59.7664 66.3156 59.6923 66.2231 59.6516L64.9231 59.1676L114.105 16.1156C114.751 16.7088 115.6 17.032 116.477 17.0188C117.354 17.0056 118.192 16.657 118.82 16.0447C119.448 15.4323 119.817 14.6028 119.852 13.7264C119.887 12.8501 119.585 11.9937 119.009 11.3331C118.432 10.6725 117.624 10.258 116.751 10.1747C115.878 10.0914 115.006 10.3457 114.315 10.8853C113.623 11.4249 113.165 12.2089 113.034 13.076C112.902 13.9431 113.108 14.8276 113.609 15.5476L64.1171 58.8636C61.4051 57.8636 60.3511 57.4476 59.9031 57.2996C59.5891 57.1976 59.4411 57.1636 59.3031 57.4996C59.1031 57.9456 58.6071 59.3456 56.9031 63.9176C56.8687 64.0113 56.8728 64.1147 56.9144 64.2053C56.956 64.296 57.0317 64.3665 57.1251 64.4016L57.5971 64.5756L5.67706 110.012C5.01329 109.438 4.15482 109.14 3.27811 109.179C2.4014 109.218 1.57308 109.592 0.963406 110.223C0.353734 110.854 0.00903802 111.695 0.000175223 112.573C-0.00868758 113.45 0.318956 114.298 0.915755 114.941C1.51255 115.585 2.33316 115.975 3.20889 116.032C4.08463 116.089 4.94894 115.809 5.62418 115.248C6.29941 114.688 6.73425 113.89 6.83932 113.018C6.94438 112.147 6.71169 111.269 6.18906 110.564L58.3891 64.8756C62.8311 66.5236 63.4891 66.8176 63.6911 66.8176C63.7678 66.8174 63.8427 66.794 63.9059 66.7505C63.9691 66.7069 64.0176 66.6453 64.0451 66.5736L64.0611 66.5256L83.7451 88.8156C84.1744 89.3903 84.808 89.7784 85.5151 89.8996L109.139 94.0416C109.654 94.1329 110.184 94.0775 110.669 93.8816L107.757 101.722C107.739 101.768 107.731 101.817 107.733 101.866C107.734 101.916 107.746 101.964 107.766 102.009C107.787 102.055 107.816 102.095 107.852 102.129C107.888 102.162 107.931 102.188 107.977 102.206C155.967 120.04 154.577 119.562 154.777 119.562C154.865 119.562 154.95 119.531 155.018 119.474C155.086 119.418 155.131 119.339 155.147 119.253C155.163 119.166 155.147 119.077 155.104 119C155.06 118.923 154.991 118.865 154.909 118.834L108.589 101.634C108.589 101.634 111.809 93.4116 115.841 82.5476C163.939 100.41 163.287 100.218 163.487 100.218C163.575 100.216 163.659 100.185 163.726 100.128C163.793 100.071 163.838 99.9931 163.853 99.9069C163.869 99.8207 163.854 99.7317 163.811 99.6553C163.769 99.5788 163.701 99.5195 163.619 99.4876L116.101 81.8416C119.953 71.4556 122.837 63.2656 122.837 63.2656L184.471 86.1576C184.565 86.1934 184.669 86.1904 184.761 86.1494C184.853 86.1083 184.924 86.0325 184.96 85.9386C184.996 85.8447 184.993 85.7405 184.952 85.6488C184.911 85.557 184.835 85.4854 184.741 85.4496V85.4496ZM64.2671 63.8196L61.7291 62.8016C61.6504 62.7712 61.5638 62.768 61.4831 62.7925C61.4024 62.817 61.3322 62.8678 61.2837 62.9368C61.2352 63.0057 61.2111 63.089 61.2153 63.1732C61.2196 63.2574 61.2519 63.3378 61.3071 63.4016L63.5071 65.8836L63.4791 65.9596L57.7391 63.8276L59.8651 58.0916L65.6051 60.2236L65.5911 60.2616C63.6391 60.5176 62.8831 60.5976 62.5631 60.6616C62.4763 60.6652 62.3934 60.6986 62.3286 60.7563C62.2637 60.814 62.2208 60.8924 62.2071 60.9781C62.1934 61.0639 62.2099 61.1517 62.2536 61.2267C62.2974 61.3017 62.3657 61.3593 62.4471 61.3896L64.8471 62.2376L64.2671 63.8196ZM98.7731 75.7096C98.7166 75.9248 98.6159 76.1259 98.4774 76.3C98.3388 76.4742 98.1655 76.6175 97.9684 76.7208C97.7713 76.8241 97.5549 76.8852 97.3329 76.9002C97.1109 76.9151 96.8882 76.8836 96.6791 76.8076L64.9671 64.0916L65.5671 62.4756L97.6871 73.7736C98.0733 73.908 98.397 74.179 98.5971 74.5357C98.7972 74.8924 98.8598 75.3099 98.7731 75.7096Z"
     fill="#26AAFD"
     id="path960"
     style="fill:#c5d6e6;fill-opacity:1" />
  <path
     d="M295.221 130.548C295.125 130.338 295.807 130.646 282.777 125.808C284.023 122.456 284.019 122.608 283.927 122.398C283.835 122.188 285.641 122.826 256.703 112.172C256.61 112.137 256.506 112.141 256.415 112.183C256.324 112.224 256.254 112.3 256.219 112.394C256.184 112.488 256.188 112.591 256.23 112.682C256.272 112.773 256.348 112.843 256.441 112.878L283.101 122.778L276.221 141.292L243.857 129.272C243.764 129.237 243.66 129.241 243.569 129.283C243.478 129.324 243.408 129.4 243.373 129.494C243.338 129.588 243.342 129.691 243.384 129.782C243.426 129.873 243.502 129.943 243.595 129.978L275.957 141.998L268.851 161.136L177.501 127.22C177.408 127.185 177.304 127.189 177.213 127.231C177.122 127.272 177.052 127.348 177.017 127.442C176.982 127.536 176.986 127.639 177.028 127.73C177.07 127.821 177.146 127.891 177.239 127.926C270.839 162.626 268.865 162.004 269.065 162.004C269.142 162.004 269.218 161.981 269.281 161.937C269.344 161.893 269.393 161.83 269.419 161.758L270.645 158.454C281.717 162.564 282.807 163.018 283.009 163.018C283.086 163.018 283.161 162.995 283.224 162.952C283.288 162.908 283.336 162.846 283.363 162.774C296.031 128.792 295.313 130.764 295.221 130.548Z"
     fill="#26AAFD"
     id="path962"
     style="fill:#c5d6e6;fill-opacity:1" />
  <path
     d="M241.285 129.13L239.627 128.514C239.533 128.479 239.458 128.408 239.416 128.318C239.374 128.227 239.37 128.123 239.405 128.03C239.44 127.936 239.51 127.86 239.601 127.818C239.692 127.777 239.795 127.773 239.889 127.808L241.547 128.424C241.641 128.458 241.717 128.529 241.758 128.62C241.8 128.71 241.804 128.814 241.769 128.908C241.734 129.001 241.664 129.077 241.573 129.119C241.482 129.161 241.379 129.164 241.285 129.13V129.13Z"
     fill="#3B29AB"
     id="path964" />
  <path
     d="M237.073 127.566L234.173 126.488C234.086 126.45 234.016 126.379 233.979 126.291C233.942 126.203 233.94 126.104 233.973 126.014C234.006 125.925 234.072 125.851 234.157 125.808C234.243 125.765 234.341 125.757 234.433 125.784L237.335 126.86C237.429 126.895 237.505 126.966 237.546 127.056C237.588 127.147 237.592 127.251 237.557 127.344C237.522 127.438 237.452 127.514 237.361 127.556C237.27 127.597 237.167 127.601 237.073 127.566V127.566Z"
     fill="#3B29AB"
     id="path966" />
  <path
     d="M233.733 126.292C233.533 126.292 234.831 126.742 192.395 110.966C192.301 110.931 192.225 110.861 192.184 110.77C192.142 110.679 192.138 110.575 192.173 110.482C192.208 110.388 192.278 110.312 192.369 110.271C192.46 110.229 192.563 110.225 192.657 110.26L233.857 125.564C233.939 125.595 234.007 125.653 234.051 125.729C234.095 125.804 234.11 125.893 234.096 125.979C234.081 126.065 234.037 126.144 233.971 126.201C233.904 126.258 233.82 126.29 233.733 126.292Z"
     fill="#3B29AB"
     id="path968"
     style="fill:#c5d6e6;fill-opacity:1" />
  <path
     d="M268.831 66.4916C268.071 64.3436 259.011 45.1016 256.031 39.6796C251.781 31.9376 248.289 31.6356 244.893 28.4456C244.872 28.417 244.854 28.3869 244.837 28.3556C241.893 28.0785 239.044 27.1669 236.485 25.6836C236.135 25.8851 235.763 26.0435 235.375 26.1556C236.285 27.6496 233.827 29.6196 231.821 29.9216C233.479 29.7656 232.769 32.6556 230.281 33.0896C229.737 33.1056 225.447 33.2356 223.471 33.2716C221.089 39.1236 217.361 34.1936 217.361 25.0416C217.312 22.419 217.695 19.8062 218.493 17.3076C219.093 15.6276 219.893 14.5256 220.779 14.3076L194.199 16.4876C191.556 16.705 189.06 17.7959 187.105 19.5885C185.151 21.381 183.848 23.7732 183.403 26.3879C182.958 29.0025 183.396 31.6909 184.648 34.0291C185.9 36.3672 187.894 38.2223 190.317 39.3016L207.959 47.1936L205.791 57.7676L238.833 73.3836L248.347 52.7956V65.0736L252.547 72.6256L241.847 102.004C247.142 105.837 253.459 108.005 259.991 108.232L269.005 80.6636C270.509 76.0493 270.448 71.0676 268.831 66.4916V66.4916Z"
     fill="#B2E305"
     id="path970"
     style="fill:#8f4f23;fill-opacity:1" />
  <path
     d="M269.185 66.3623C268.417 64.1843 259.319 44.8783 256.365 39.4963C252.029 31.5983 248.513 31.3503 245.165 28.1603C244.703 27.3511 244.444 26.4421 244.409 25.5109C244.374 24.5796 244.565 23.6538 244.965 22.8123C245.524 21.5367 246.238 20.3355 247.093 19.2363C251.517 14.4903 260.425 22.1063 260.493 22.1783C261.576 23.3246 263.023 24.0597 264.587 24.2583C264.823 24.2788 265.06 24.2471 265.283 24.1655C265.505 24.084 265.706 23.9545 265.873 23.7864C266.04 23.6183 266.167 23.4155 266.247 23.1926C266.326 22.9696 266.356 22.7319 266.333 22.4963C266.069 20.8216 265.195 19.3037 263.879 18.2343C266.327 18.6343 267.355 15.6503 263.787 12.3483C266.637 13.1483 267.805 10.1243 264.215 6.64831C263.843 6.29078 263.442 5.96498 263.015 5.67431C249.987 -5.25169 242.063 3.27431 241.561 3.84631C239.038 6.18273 237.047 9.03546 235.725 12.2103C233.86 12.6487 232.095 13.438 230.525 14.5363C228.36 15.4967 226.066 16.1335 223.715 16.4263C223.423 15.7603 222.475 13.8623 221.157 13.9063C220.957 13.9063 221.589 13.8703 194.157 16.1183C191.661 16.3359 189.29 17.3044 187.355 18.8963C185.42 20.4883 184.013 22.6289 183.319 25.0363C180.536 24.8158 177.752 25.4688 175.357 26.9043C136.821 49.8223 138.565 48.6703 138.481 48.9683C138.476 49.215 138.517 49.4605 138.601 49.6923C134.743 50.3603 128.985 50.9243 125.965 51.4743C113.387 53.7803 111.321 55.1023 110.965 56.0923C108.893 61.7843 128.235 61.7403 135.499 66.5263C137.586 67.9988 139.9 69.1184 142.349 69.8403C144.667 69.9096 146.95 69.2576 148.881 67.9743C149.601 68.7343 149.653 68.8403 149.867 68.8403C150.081 68.8403 148.805 69.4623 176.735 54.4503L189.821 83.7163L177.401 87.7443C174.098 88.8213 171.058 90.5775 168.474 92.9001C165.891 95.2227 163.822 98.0603 162.401 101.23C143.261 143.958 144.401 141.196 144.641 141.518C144.759 141.638 145.641 142.318 145.763 142.418C141.899 149.586 137.163 157.694 134.763 163.108C129.079 175.896 129.071 178.54 129.699 179.414C133.533 184.742 145.309 167.338 154.113 163.73C156.246 162.914 158.168 161.63 159.739 159.972C161.831 157.39 163.489 154.486 164.649 151.372C165.201 151.508 165.761 151.612 166.325 151.682C166.649 151.6 165.325 154.148 184.755 112.734C192.497 110.948 205.427 108.18 218.725 105.718C236.783 102.372 239.069 75.1803 239.187 73.5483L245.293 60.3343L252.143 72.6603C243.595 96.1283 241.795 100.9 241.531 101.932C241.443 102.278 241.531 102.202 241.587 102.27C241.715 102.382 242.375 102.828 242.515 102.922C241.165 105.672 239.185 108.063 236.735 109.902C233.309 112.4 231.843 114.122 232.375 115.014C233.225 116.448 238.477 114.014 239.995 113.31C238.409 116.886 236.421 120.269 234.069 123.394C233.161 124.674 232.969 125.75 233.555 126.268C234.927 127.49 238.035 124.002 239.269 122.62C238.453 124.311 237.547 125.957 236.555 127.55C235.717 128.782 235.583 129.814 236.197 130.31C237.115 131.052 238.651 129.91 239.495 129.018C240.592 127.819 241.617 126.555 242.565 125.234C241.991 126.664 241.469 127.834 241.177 128.424C239.719 131.378 241.965 132.728 244.279 129.534C245.106 128.36 245.867 127.141 246.559 125.882C246.435 126.33 246.313 126.722 246.183 127.082C245.507 128.966 245.997 129.538 246.349 129.71C247.285 130.17 248.495 128.614 249.061 127.728C252.754 121.576 255.986 115.158 258.731 108.528C258.875 108.538 259.931 108.624 260.065 108.598C260.445 108.494 259.851 109.924 269.371 80.7763C270.89 76.0811 270.825 71.0168 269.185 66.3623V66.3623ZM242.065 4.41432C242.265 4.30032 246.613 -0.125693 249.485 1.96631C252.229 3.96631 250.185 9.30832 250.385 8.72432C249.973 9.92432 250.785 10.2383 252.037 10.1103C252.733 10.0403 253.413 9.95431 253.801 10.5743C254.443 11.6003 253.477 13.5123 251.015 13.1343C250.949 13.1237 250.88 13.1307 250.817 13.1545C250.754 13.1784 250.698 13.2183 250.655 13.2703C249.655 14.5443 246.605 18.5963 246.411 18.8703C244.427 21.6263 242.739 24.7823 244.149 27.8703C241.716 27.5652 239.357 26.8276 237.183 25.6923C237.802 25.298 238.324 24.7677 238.707 24.1419C239.091 23.516 239.327 22.811 239.397 22.0803C241.507 21.4103 245.647 18.9243 246.455 16.8323C246.531 16.6718 246.572 16.4974 246.577 16.3201C246.581 16.1427 246.549 15.9664 246.481 15.8023C245.785 14.3623 241.317 16.5863 239.337 17.1163C238.337 17.3843 237.381 17.5983 236.453 17.7583C235.969 16.9306 235.743 15.9773 235.803 15.0203C236.467 14.1903 237.403 12.8443 236.499 12.3163C237.78 9.32134 239.677 6.62913 242.065 4.41432V4.41432ZM235.065 15.8703C235.1 16.5768 235.295 17.2662 235.635 17.8863C234.693 18.0201 233.744 18.1042 232.793 18.1383C233.763 17.2463 234.505 16.4923 235.075 15.8703H235.065ZM230.905 15.1843C234.621 12.9723 235.927 12.8463 236.105 12.9663C236.105 12.9663 236.359 13.9043 231.657 18.1663C230.769 18.1663 229.821 18.1303 228.833 18.0563C228.734 18.0489 228.635 18.0813 228.56 18.1463C228.484 18.2114 228.438 18.3039 228.43 18.4033C228.423 18.5028 228.455 18.6011 228.52 18.6767C228.585 18.7523 228.678 18.7989 228.777 18.8063C232.387 19.1395 236.027 18.8149 239.521 17.8483C240.699 17.5343 245.335 15.6123 245.793 16.1363C245.829 16.281 245.812 16.4339 245.743 16.5663C244.204 18.8018 241.966 20.4628 239.381 21.2883C237.68 21.733 235.954 22.0716 234.211 22.3023C234.115 22.3223 234.031 22.3788 233.976 22.4599C233.922 22.5409 233.901 22.6401 233.918 22.7364C233.935 22.8327 233.989 22.9185 234.068 22.9757C234.148 23.0328 234.246 23.0567 234.343 23.0423C235.343 22.8663 237.173 22.6243 238.623 22.2883C238.492 22.9428 238.214 23.5591 237.811 24.091C237.408 24.623 236.89 25.057 236.295 25.3603C235.295 25.9323 235.109 25.8363 231.579 26.2503C231.483 26.2602 231.394 26.3069 231.331 26.3807C231.268 26.4545 231.236 26.5496 231.242 26.6464C231.248 26.7431 231.291 26.8339 231.362 26.8999C231.433 26.9658 231.526 27.0018 231.623 27.0003L234.681 26.6443H234.717C234.749 26.6434 234.782 26.6394 234.813 26.6323L234.851 26.6203L235.163 26.5843C235.645 27.7743 233.421 29.1843 232.019 29.5003C231.819 29.5463 229.593 29.8443 229.419 29.8443C229.323 29.8463 229.232 29.8848 229.164 29.9519C229.095 30.0189 229.055 30.1095 229.051 30.2052C229.048 30.3009 229.08 30.3944 229.143 30.4667C229.206 30.539 229.294 30.5847 229.389 30.5943C229.663 30.6063 231.589 30.3143 232.113 30.2703C232.743 30.7483 231.913 32.4163 230.257 32.7123C229.769 32.7263 220.619 32.9123 218.947 32.9463C217.382 27.9885 217.313 22.6794 218.747 17.6823C220.38 17.6476 222.008 17.4911 223.617 17.2143C226.127 16.8522 228.579 16.1699 230.915 15.1843H230.905ZM206.221 57.5583L210.435 37.0203L221.327 36.1563C222.237 36.0203 223.067 35.1563 223.727 33.6403C225.373 33.6063 228.237 33.5243 229.623 33.4803C224.348 42.7681 220.504 52.7991 218.223 63.2343L206.221 57.5583ZM199.773 43.9463L207.531 47.4183L205.653 56.5803L199.773 43.9463ZM194.231 16.8683L219.421 14.8023C216.159 18.5763 216.183 32.2143 219.667 35.5323L192.789 37.6603C192.696 37.6699 192.61 37.7137 192.547 37.7831C192.485 37.8526 192.45 37.9428 192.45 38.0363C192.45 38.1298 192.485 38.2201 192.547 38.2895C192.61 38.3589 192.696 38.4027 192.789 38.4123L209.189 39.2863L207.673 46.6623C188.001 37.8623 194.325 40.6883 190.459 38.9643C188.113 37.9191 186.181 36.1226 184.968 33.8582C183.756 31.5937 183.331 28.99 183.762 26.4577C184.193 23.9254 185.454 21.6084 187.347 19.8722C189.24 18.1359 191.657 17.0791 194.217 16.8683H194.231ZM218.575 104.98C217.519 105.18 184.657 111.562 184.175 112.198C184.053 112.398 184.775 110.88 166.021 150.892C158.446 149.396 151.358 146.054 145.383 141.162L163.083 101.538C164.463 98.4648 166.47 95.7137 168.976 93.4615C171.482 91.2094 174.43 89.5059 177.633 88.4603L209.433 78.1523C209.521 78.1248 209.595 78.0663 209.642 77.9878C209.689 77.9093 209.706 77.8163 209.69 77.7262C209.673 77.6361 209.625 77.5551 209.553 77.4984C209.481 77.4417 209.391 77.4132 209.299 77.4183L188.271 78.3963L177.395 54.0923L179.765 52.8183C179.853 52.7708 179.918 52.6904 179.947 52.5948C179.975 52.4992 179.965 52.3961 179.917 52.3083C179.87 52.2205 179.789 52.1552 179.694 52.1267C179.598 52.0982 179.495 52.1088 179.407 52.1563L149.937 67.9963C144.73 62.8396 141.04 56.3505 139.271 49.2383L175.755 27.5523C177.979 26.2193 180.558 25.5995 183.145 25.7763C182.547 28.5437 182.918 31.4328 184.197 33.959C185.476 36.4851 187.584 38.4946 190.169 39.6503L198.725 43.4783C205.687 58.4283 205.363 57.8783 205.569 58.0783C205.769 58.2023 204.203 57.4423 238.413 73.6103C238.233 75.9143 235.821 101.788 218.577 104.98H218.575ZM252.869 72.4463L248.723 64.9803V52.8003C248.723 52.7151 248.693 52.6326 248.64 52.5664C248.586 52.5001 248.511 52.454 248.428 52.4357C248.345 52.4173 248.258 52.4278 248.182 52.4653C248.105 52.5028 248.044 52.5653 248.007 52.6423L238.653 72.8923L218.931 63.5703C221.223 52.9851 225.136 42.8174 230.531 33.4263C232.531 32.9963 233.531 31.0743 232.907 30.0263C234.293 29.5243 236.043 28.2983 235.993 26.8523V26.8023C235.985 26.6597 235.957 26.5189 235.909 26.3843C236.103 26.3101 236.293 26.2253 236.477 26.1303C238.998 27.5323 241.775 28.4111 244.643 28.7143C248.121 31.9823 251.505 32.1983 255.713 39.8623C258.691 45.2903 267.741 64.5163 268.485 66.6163C270.067 71.1185 270.125 76.0158 268.651 80.5543L259.727 107.848C253.467 107.567 247.419 105.493 242.303 101.872C253.541 70.9863 253.001 72.6803 252.871 72.4463H252.869ZM248.421 127.33C247.473 128.816 246.785 129.094 246.677 129.042C246.623 129.016 246.439 128.592 246.889 127.342C247.305 126.174 247.981 123.376 248.005 123.174C248.575 122.052 249.041 121.074 249.323 120.442C249.363 120.352 249.365 120.249 249.33 120.156C249.294 120.064 249.223 119.989 249.133 119.948C249.042 119.908 248.94 119.904 248.847 119.939C248.754 119.974 248.679 120.044 248.637 120.134C247.893 121.804 243.181 131.534 241.601 130.582C241.401 130.466 241.301 129.866 241.847 128.758C242.744 126.848 243.537 124.889 244.221 122.892C245.237 121.428 246.091 120.13 246.519 119.442C246.567 119.358 246.581 119.259 246.557 119.165C246.534 119.07 246.475 118.989 246.393 118.937C246.311 118.886 246.212 118.868 246.117 118.887C246.022 118.907 245.938 118.962 245.883 119.042C243.802 122.362 241.479 125.523 238.931 128.5C237.801 129.68 236.899 129.928 236.649 129.726C236.479 129.588 236.465 128.99 237.157 127.972C238.672 125.487 240.029 122.909 241.221 120.254C241.973 119.292 242.527 118.512 242.801 118.12C242.829 118.08 242.849 118.034 242.859 117.985C242.87 117.937 242.871 117.887 242.862 117.838C242.853 117.79 242.834 117.743 242.808 117.702C242.781 117.66 242.746 117.624 242.705 117.596C242.664 117.568 242.619 117.548 242.57 117.538C242.522 117.528 242.472 117.527 242.423 117.536C242.375 117.545 242.328 117.563 242.287 117.59C242.245 117.617 242.209 117.652 242.181 117.692C240.441 120.204 238.444 122.528 236.223 124.626C234.951 125.78 234.197 125.85 234.033 125.706C232.997 124.784 238.505 120.396 241.867 110.482C241.883 110.436 241.89 110.386 241.886 110.337C241.883 110.288 241.87 110.239 241.848 110.195C241.827 110.151 241.796 110.111 241.759 110.079C241.722 110.046 241.679 110.021 241.632 110.005C241.585 109.989 241.536 109.983 241.487 109.986C241.437 109.989 241.389 110.002 241.345 110.024C241.301 110.046 241.261 110.076 241.229 110.113C241.196 110.15 241.171 110.194 241.155 110.24C240.913 110.954 240.657 111.64 240.393 112.302C240.356 112.307 240.321 112.318 240.287 112.334C234.687 114.998 233.117 114.822 233.001 114.63C232.905 114.47 233.331 113.3 237.157 110.51C239.681 108.62 241.726 106.163 243.127 103.338C247.583 106.199 252.657 107.956 257.927 108.462C255.221 114.974 252.044 121.28 248.421 127.33V127.33Z"
     fill="#3D3D3D"
     id="path972" />
  <path
     d="M213.821 99.8402C213.835 100.197 213.986 100.535 214.244 100.783C214.501 101.031 214.845 101.17 215.202 101.17C215.559 101.17 215.903 101.031 216.16 100.783C216.418 100.535 216.569 100.197 216.583 99.8402C216.569 99.483 216.418 99.145 216.16 98.8971C215.903 98.6492 215.559 98.5107 215.202 98.5107C214.845 98.5107 214.501 98.6492 214.244 98.8971C213.986 99.145 213.835 99.483 213.821 99.8402V99.8402Z"
     fill="#26AAFD"
     id="path974"
     style="fill:#c5d6e6;fill-opacity:1" />
  <path
     d="M226.663 75.1517C226.677 75.5089 226.828 75.8469 227.086 76.0948C227.343 76.3427 227.687 76.4811 228.044 76.4811C228.402 76.4811 228.745 76.3427 229.003 76.0948C229.26 75.8469 229.411 75.5089 229.425 75.1517C229.411 74.7945 229.26 74.4565 229.003 74.2086C228.745 73.9607 228.402 73.8223 228.044 73.8223C227.687 73.8223 227.343 73.9607 227.086 74.2086C226.828 74.4565 226.677 74.7945 226.663 75.1517V75.1517Z"
     fill="#26AAFD"
     id="path976"
     style="fill:#c5d6e6;fill-opacity:1" />
  <path
     d="M192.821 70.8919C192.835 71.2491 192.986 71.5871 193.244 71.835C193.501 72.0829 193.845 72.2214 194.202 72.2214C194.559 72.2214 194.903 72.0829 195.16 71.835C195.418 71.5871 195.569 71.2491 195.583 70.8919C195.569 70.5348 195.418 70.1968 195.16 69.9489C194.903 69.701 194.559 69.5625 194.202 69.5625C193.845 69.5625 193.501 69.701 193.244 69.9489C192.986 70.1968 192.835 70.5348 192.821 70.8919V70.8919Z"
     fill="#26AAFD"
     id="path978"
     style="fill:#c5d6e6;fill-opacity:1" />
  <path
     d="M195.093 47.3158C195.107 47.6729 195.258 48.0109 195.516 48.2588C195.773 48.5067 196.117 48.6452 196.474 48.6452C196.831 48.6452 197.175 48.5067 197.432 48.2588C197.69 48.0109 197.841 47.6729 197.855 47.3158C197.841 46.9586 197.69 46.6206 197.432 46.3727C197.175 46.1248 196.831 45.9863 196.474 45.9863C196.117 45.9863 195.773 46.1248 195.516 46.3727C195.258 46.6206 195.107 46.9586 195.093 47.3158V47.3158Z"
     fill="#26AAFD"
     id="path980"
     style="fill:#c5d6e6;fill-opacity:1" />
  <path
     d="M174.147 35.0619C174.161 35.419 174.312 35.757 174.57 36.0049C174.827 36.2528 175.171 36.3913 175.528 36.3913C175.885 36.3913 176.229 36.2528 176.486 36.0049C176.744 35.757 176.895 35.419 176.909 35.0619C176.895 34.7047 176.744 34.3667 176.486 34.1188C176.229 33.8709 175.885 33.7324 175.528 33.7324C175.171 33.7324 174.827 33.8709 174.57 34.1188C174.312 34.3667 174.161 34.7047 174.147 35.0619V35.0619Z"
     fill="#26AAFD"
     id="path982"
     style="fill:#c5d6e6;fill-opacity:1" />
  <path
     d="M143.893 49.9942C143.893 50.3602 144.038 50.7113 144.297 50.9701C144.556 51.2289 144.907 51.3743 145.273 51.3743C145.639 51.3743 145.99 51.2289 146.249 50.9701C146.508 50.7113 146.653 50.3602 146.653 49.9942C146.653 49.6282 146.508 49.2772 146.249 49.0184C145.99 48.7596 145.639 48.6143 145.273 48.6143C144.907 48.6143 144.556 48.7596 144.297 49.0184C144.038 49.2772 143.893 49.6282 143.893 49.9942V49.9942Z"
     fill="#26AAFD"
     id="path984"
     style="fill:#c5d6e6;fill-opacity:1" />
  <path
     d="M164.713 52.8001C164.727 53.1573 164.878 53.4953 165.136 53.7432C165.393 53.9911 165.737 54.1296 166.094 54.1296C166.452 54.1296 166.795 53.9911 167.053 53.7432C167.31 53.4953 167.462 53.1573 167.475 52.8001C167.462 52.443 167.31 52.105 167.053 51.8571C166.795 51.6092 166.452 51.4707 166.094 51.4707C165.737 51.4707 165.393 51.6092 165.136 51.8571C164.878 52.105 164.727 52.443 164.713 52.8001V52.8001Z"
     fill="#26AAFD"
     id="path986"
     style="fill:#c5d6e6;fill-opacity:1" />
  <path
     d="M175.989 112.787C176.003 113.145 176.154 113.483 176.412 113.731C176.669 113.978 177.013 114.117 177.37 114.117C177.727 114.117 178.071 113.978 178.328 113.731C178.586 113.483 178.737 113.145 178.751 112.787C178.737 112.43 178.586 112.092 178.328 111.844C178.071 111.596 177.727 111.458 177.37 111.458C177.013 111.458 176.669 111.596 176.412 111.844C176.154 112.092 176.003 112.43 175.989 112.787Z"
     fill="#26AAFD"
     id="path988"
     style="fill:#c5d6e6;fill-opacity:1" />
  <path
     d="M191.145 88.1134C191.145 88.4794 191.29 88.8304 191.549 89.0892C191.808 89.348 192.159 89.4934 192.525 89.4934C192.891 89.4934 193.242 89.348 193.501 89.0892C193.76 88.8304 193.905 88.4794 193.905 88.1134C193.905 87.7474 193.76 87.3964 193.501 87.1376C193.242 86.8788 192.891 86.7334 192.525 86.7334C192.159 86.7334 191.808 86.8788 191.549 87.1376C191.29 87.3964 191.145 87.7474 191.145 88.1134Z"
     fill="#26AAFD"
     id="path990"
     style="fill:#c5d6e6;fill-opacity:1" />
  <path
     d="M151.543 130.995C151.557 131.353 151.708 131.691 151.966 131.939C152.223 132.186 152.567 132.325 152.924 132.325C153.281 132.325 153.625 132.186 153.882 131.939C154.14 131.691 154.291 131.353 154.305 130.995C154.291 130.638 154.14 130.3 153.882 130.052C153.625 129.805 153.281 129.666 152.924 129.666C152.567 129.666 152.223 129.805 151.966 130.052C151.708 130.3 151.557 130.638 151.543 130.995V130.995Z"
     fill="#26AAFD"
     id="path992"
     style="fill:#c5d6e6;fill-opacity:1" />
</svg>
