<?xml version="1.0" encoding="UTF-8" standalone="no"?>
<!-- Created with Inkscape (http://www.inkscape.org/) -->

<svg
   version="1.1"
   id="svg1"
   width="429"
   height="341"
   viewBox="0 0 429 341"
   sodipodi:docname="bobr.svg"
   inkscape:version="1.4.4 (dcaf3e7, 2026-05-05)"
   xmlns:inkscape="http://www.inkscape.org/namespaces/inkscape"
   xmlns:sodipodi="http://sodipodi.sourceforge.net/DTD/sodipodi-0.dtd"
   xmlns="http://www.w3.org/2000/svg"
   xmlns:svg="http://www.w3.org/2000/svg">
  <defs
     id="defs1">
    <inkscape:path-effect
       effect="spiro"
       id="path-effect1"
       is_visible="true"
       lpeversion="1" />
  </defs>
  <sodipodi:namedview
     id="namedview1"
     pagecolor="#ffffff"
     bordercolor="#666666"
     borderopacity="1.0"
     inkscape:showpageshadow="2"
     inkscape:pageopacity="0.0"
     inkscape:pagecheckerboard="0"
     inkscape:deskcolor="#d1d1d1"
     showgrid="false"
     inkscape:zoom="1.1950147"
     inkscape:cx="36.819632"
     inkscape:cy="83.262577"
     inkscape:window-width="1920"
     inkscape:window-height="1017"
     inkscape:window-x="-8"
     inkscape:window-y="-8"
     inkscape:window-maximized="1"
     inkscape:current-layer="g1" />
  <g
     inkscape:groupmode="layer"
     inkscape:label="Image"
     id="g1">
    <path
       style="opacity:1;fill:#8f4f23;fill-opacity:1;stroke:#462616;stroke-width:3.77953;stroke-linecap:butt;stroke-linejoin:miter;stroke-dasharray:none;stroke-opacity:1"
       d="m 285.77055,73.639264 c 23.4821,3.426223 45.82381,13.178361 65.27117,26.777916 16.89042,11.81148 31.81982,26.66204 42.5294,44.27175 10.70958,17.60972 17.08246,38.04621 16.88409,58.65586 -0.21693,22.53886 -8.35857,44.76942 -21.94571,62.75378 -13.58713,17.98435 -32.45984,31.75178 -53.36717,40.17382 -22.18577,8.93703 -46.3747,11.93181 -70.29202,12.13374 -20.95292,0.1769 -41.98278,-1.74018 -62.34233,-6.69447 -15.59111,-3.79393 -30.85599,-9.41487 -44.42894,-17.97359 -13.57295,-8.55872 -25.42558,-20.16835 -32.97597,-34.32703 -8.52492,-15.98614 -11.25831,-34.6758 -9.62332,-52.71902 2.45405,-27.08216 14.45395,-52.77476 31.38037,-74.05766 16.3916,-20.61043 37.57879,-37.51956 61.69603,-48.094649 24.11725,-10.575089 51.15642,-14.702512 77.2144,-10.900447 z"
       id="path1"
       inkscape:path-effect="#path-effect1"
       inkscape:original-d="m 285.77055,73.639264 c 46.30348,-19.665031 43.23518,17.433538 65.27117,26.777916 22.03599,9.34437 39.74846,68.89734 59.41349,102.92761 19.66504,34.03026 -50.34805,68.75787 -75.31288,102.9276 -24.96482,34.16974 -46.86135,8.08916 -70.29202,12.13374 -23.43068,4.04459 -41.42209,-4.74192 -62.34233,-6.69447 -20.92025,-1.95256 -51.74274,-34.72761 -77.40491,-52.30062 -25.66217,-17.573 -6.41554,-35.28548 -9.62332,-52.71902 C 112.27198,189.25849 136.4,157.45971 146.86012,132.63436 157.32025,107.809 239.46708,93.304294 285.77055,73.639264 Z"
       transform="translate(2.5620665,0.08559751)" />
    <path
       style="fill:#8f4f23;fill-opacity:1;stroke:#462616;stroke-width:3.77953;stroke-linecap:butt;stroke-linejoin:miter;stroke-dasharray:none;stroke-opacity:1"
       d="m 204.4792,87.558785 27.21884,-11.242561 c 0,0 2.64948,-10.509753 3.10649,-15.828346 0.49389,-5.747682 -2.27855,-14.134694 -4.28992,-17.159703 -2.89628,-4.355896 -5.80232,-7.49202 -9.54138,-9.245531 -3.50163,-1.642162 -5.03252,-2.7468 -9.3195,-2.884604 -4.3649,-0.14031 -9.63364,0.732326 -13.68339,2.366854 -3.45704,1.395306 -8.57985,6.065068 -8.57985,6.065068 0,0 -4.17341,4.034607 -5.62128,6.508853 -1.90643,3.257867 -3.60497,6.883889 -3.84614,10.65085 -0.23237,3.629458 0.98316,7.287468 2.36686,10.65085 1.19714,2.909918 2.86484,5.704567 5.02957,7.988138 4.81905,5.083598 17.1597,12.130132 17.1597,12.130132 z"
       id="uho-left"
       sodipodi:nodetypes="ccssssscssssc"
       inkscape:label="uho-left" />
    <path
       style="fill:#8f4f23;fill-opacity:1;stroke:#462616;stroke-width:3.78;stroke-linecap:butt;stroke-linejoin:miter;stroke-dasharray:none;stroke-opacity:1"
       d="m 287.83472,73.260488 30.91705,8.875709 c 5.64878,-4.002132 11.54397,-7.634645 15.68042,-13.905277 2.69383,-6.212097 6.65546,-11.191902 3.55029,-21.3017 -1.90866,-6.214226 -4.98154,-11.173084 -8.87571,-14.349062 -4.17594,-3.405789 -8.29458,-4.354568 -13.31356,-5.029568 -4.12244,-0.554425 -9.50091,-0.159596 -14.497,1.479284 -4.47394,1.467599 -8.57845,4.431138 -12.42599,9.615351 -2.0305,2.735909 -4.14095,5.822168 -4.73371,13.905277 -0.39967,7.10738 0.94286,13.996983 3.69821,20.709986 z"
       id="uho-right"
       sodipodi:nodetypes="cccssssscc"
       inkscape:label="uho-right" />
    <ellipse
       style="opacity:1;fill:#8f4f23;fill-opacity:1;stroke:#462616;stroke-width:3.77953;stroke-dasharray:none;stroke-opacity:1"
       id="path4"
       cx="367.69495"
       cy="276.41122"
       rx="19.230701"
       ry="28.402267"
       transform="rotate(2.6158462)" />
    <path
       style="opacity:0.819149;fill:#8f4f23;fill-opacity:1;stroke:#462616;stroke-width:3.77953;stroke-dasharray:none;stroke-opacity:1"
       id="path5"
       sodipodi:type="arc"
       sodipodi:cx="186.12456"
       sodipodi:cy="294.97546"
       sodipodi:rx="17.363804"
       sodipodi:ry="28.451534"
       sodipodi:start="0"
       sodipodi:end="0.017687839"
       sodipodi:arc-type="arc"
       d="m 203.48836,294.97546 a 17.363804,28.451534 0 0 1 -0.003,0.50322"
       sodipodi:open="true" />
    <path
       style="fill:#8f4f23;fill-opacity:1;stroke:#462616;stroke-width:3.77953;stroke-linecap:butt;stroke-linejoin:miter;stroke-dasharray:none;stroke-opacity:1"
       d="m 173.48952,299.70407 c -3.20258,-14.38685 0.48713,-30.6763 11.42384,-32.53841 15.46273,-2.63272 22.5877,10.49599 24.55898,28.35437 0.98356,8.91029 2.93691,20.21906 -8.14838,26.30874 -12.07865,6.63538 -23.63126,-3.24285 -27.83444,-22.1247 z"
       id="path6"
       sodipodi:nodetypes="sssss" />
    <ellipse
       style="opacity:1;fill:#462616;fill-opacity:1;stroke:#462616;stroke-width:3.77953;stroke-dasharray:none;stroke-opacity:1"
       id="eye-left"
       cx="204.42842"
       cy="152.21471"
       rx="2.9288344"
       ry="6.6944785"
       transform="rotate(-3.2589917)"
       inkscape:transform-center-x="198.81587"
       inkscape:transform-center-y="3.5502834"
       inkscape:label="eye-left" />
    <ellipse
       style="fill:#462616;fill-opacity:1;stroke:#462616;stroke-width:3.77953;stroke-dasharray:none;stroke-opacity:1"
       id="eye-right"
       cx="315.67517"
       cy="152.85443"
       rx="2.9288344"
       ry="6.6944785"
       transform="rotate(-3.2589917)"
       inkscape:transform-center-x="198.81587"
       inkscape:transform-center-y="3.5502834"
       inkscape:label="eye-right" />
    <path
       style="fill:none;stroke:#462616;stroke-width:3.77953;stroke-linecap:round;stroke-linejoin:miter;stroke-dasharray:none;stroke-opacity:1"
       d="m 218.13253,258.99264 c 8.14207,10.28212 17.17157,15.23974 26.98712,15.48098 6.74681,-3.13325 4.89717,-16.42594 6.06687,-26.15031"
       id="lapa-left"
       sodipodi:nodetypes="ccc"
       inkscape:label="lapa-left" />
    <path
       style="fill:none;stroke:#462616;stroke-width:3.77953;stroke-linecap:round;stroke-linejoin:miter;stroke-dasharray:none;stroke-opacity:1"
       d="m 282.52229,247.16416 c -0.22892,15.71919 3.71226,25.04547 7.02442,26.27308 3.31216,1.22761 5.49267,-0.9233 8.82768,-2.72767 3.33501,-1.80437 7.12845,-4.31583 9.79659,-6.40559 2.66814,-2.08976 4.1623,-4.02832 7.93107,-6.93276"
       id="lapa-right"
       sodipodi:nodetypes="czzzc"
       inkscape:label="lapa-right" />
    <path
       style="opacity:1;fill:#462616;fill-opacity:1;stroke:none;stroke-width:3.82571;stroke-linecap:butt;stroke-linejoin:miter;stroke-dasharray:none;stroke-opacity:1"
       d="m 234.45066,154.80983 c -0.35129,-3.05867 6.0195,-5.08638 13.21102,-6.98673 5.19687,-1.37327 12.55039,-3.96638 22.02316,-4.74347 3.13182,-0.0106 7.44446,0.003 9.40518,0.58851 0.70614,0.21083 28.39457,2.30245 32.52503,7.58525 3.98964,4.12387 -2.36663,6.66736 -4.23613,8.84715 -5.89387,6.87213 -16.65573,9.94273 -30.48784,12.2823 l -28.93665,-4.39326 c -5.17181,-0.7852 -12.35526,-3.17972 -13.50377,-13.17975 z"
       id="path10"
       sodipodi:nodetypes="sscscscss" />
    <path
       style="fill:#ffffff;fill-opacity:1;stroke:#000000;stroke-width:1px;stroke-linecap:butt;stroke-linejoin:miter;stroke-opacity:1"
       d="m 281.3185,149.53462 c 4.40834,12.55004 9.56016,9.71805 17.20691,10.64318 6.81135,-0.66659 12.53483,-5.75472 10.72163,-7.29593 l -2.09202,-1.77822 c -1.6788,-1.42697 -6.34387,-2.6189 -11.81994,-3.55644 -9.45897,0.0797 -15.38831,-2.34384 -14.01658,1.98741 z"
       id="path11"
       sodipodi:nodetypes="scsscs" />
    <path
       style="fill:none;stroke:#462616;stroke-width:3.77953;stroke-linecap:round;stroke-linejoin:round;stroke-dasharray:none;stroke-opacity:1"
       d="m 226.26615,169.7363 c -11.34447,28.38576 16.76236,40.57555 46.7454,17.30763 25.37585,18.66689 55.69238,13.36666 45.78386,-20.04431"
       id="path12"
       sodipodi:nodetypes="ccc" />
    <path
       style="opacity:1;fill:#ffffff;stroke:#000000;stroke-width:2.13543;stroke-linecap:round;stroke-linejoin:miter;stroke-dasharray:none;stroke-opacity:1"
       d="m 249.75274,200.8523 c -4.19296,8.94051 -2.44088,12.28569 -2.19662,17.05 14.2152,9.75876 45.26842,5.09587 51.5684,-0.73221 1.35706,-5.65655 1.32989,-11.45152 -0.10242,-17.387 -5.61516,0.0782 -14.91334,-3.58986 -25.52378,-9.57057 l -0.50615,17.21171 -0.41841,-17.18742 c -8.75738,5.38013 -15.73904,9.64356 -22.82102,10.61549 z"
       id="path13"
       sodipodi:nodetypes="cccccccc" />
    <g
       id="g27"
       transform="translate(2.6539965,-0.41840451)"
       inkscape:label="hvost">
      <path
         style="opacity:1;fill:#694128;fill-opacity:1;stroke:#462616;stroke-width:3.77953;stroke-linecap:butt;stroke-linejoin:miter;stroke-dasharray:none;stroke-opacity:1"
         d="m 121.38928,178.39856 c -1.25741,-8.59831 -3.07953,-22.31974 -5.40119,-36.92949 -3.09433,-20.30914 -12.83554,-29.98201 -24.26748,-34.72761 -18.79138,-7.030651 -31.28089,-3.44712 -43.51411,2.09203 -11.57727,6.74475 -20.95424,15.27705 -27.40553,26.15031 -8.01057,11.52596 -8.8785,23.92947 -11.08773,35.98282 -1.46607,22.3993 1.00377,36.36538 5.85767,49.58097 6.81155,17.62613 15.17183,33.18727 26.98712,44.14173 15.41447,16.1682 32.77183,26.23015 52.09141,30.12515 22.01112,4.7838 42.01503,3.45955 62.91085,0.58954 -18.60255,-12.31819 -30.56918,-24.35372 -40.10778,-53.51776 -3.59717,-26.62544 -2.14757,-43.4897 3.93677,-63.48769 z"
         id="path14"
         sodipodi:nodetypes="cccccccccccc" />
      <path
         style="fill:none;stroke:#462616;stroke-width:3.77953;stroke-linecap:butt;stroke-linejoin:miter;stroke-dasharray:none;stroke-opacity:1"
         d="m 81.656518,103.54993 38.461402,81.06481"
         id="path15" />
      <path
         style="fill:none;stroke:#462616;stroke-width:3.77953;stroke-linecap:butt;stroke-linejoin:miter;stroke-dasharray:none;stroke-opacity:1"
         d="m 56.21282,106.5085 59.83489,104.04013"
         id="path16"
         sodipodi:nodetypes="cc" />
      <path
         style="fill:none;stroke:#462616;stroke-width:3.77953;stroke-linecap:round;stroke-linejoin:miter;stroke-dasharray:none;stroke-opacity:1"
         d="m 35.74793,117.78696 83.77828,133.09973"
         id="path17"
         sodipodi:nodetypes="cc" />
      <path
         style="fill:none;stroke:#462616;stroke-width:3.77953;stroke-linecap:butt;stroke-linejoin:miter;stroke-dasharray:none;stroke-opacity:1"
         d="M 23.668556,130.17706 128.40192,297.63209"
         id="path18" />
      <path
         style="fill:none;stroke:#462616;stroke-width:3.77953;stroke-linecap:butt;stroke-linejoin:miter;stroke-dasharray:none;stroke-opacity:1"
         d="m 13.60942,152.66218 92.30737,143.78648"
         id="path19" />
      <path
         style="fill:none;stroke:#462616;stroke-width:3.77953;stroke-linecap:butt;stroke-linejoin:miter;stroke-dasharray:none;stroke-opacity:1"
         d="M 10.059136,176.33074 77.51452,288.75638"
         id="path20" />
      <path
         style="fill:none;stroke:#462616;stroke-width:3.77953;stroke-linecap:butt;stroke-linejoin:miter;stroke-dasharray:none;stroke-opacity:1"
         d="M 23.668556,132.54391 108.28364,120.11792"
         id="path21" />
      <path
         style="fill:none;stroke:#462616;stroke-width:3.77953;stroke-linecap:butt;stroke-linejoin:miter;stroke-dasharray:none;stroke-opacity:1"
         d="M 11.134884,164.32315 115.97592,144.37819"
         id="path22"
         sodipodi:nodetypes="cc" />
      <path
         style="fill:none;stroke:#462616;stroke-width:3.77953;stroke-linecap:butt;stroke-linejoin:miter;stroke-dasharray:none;stroke-opacity:1"
         d="M 10.752372,200.2085 119.52621,173.37217"
         id="path23"
         sodipodi:nodetypes="cc" />
      <path
         style="fill:none;stroke:#462616;stroke-width:3.77953;stroke-linecap:butt;stroke-linejoin:miter;stroke-dasharray:none;stroke-opacity:1"
         d="M 20.984817,231.56933 114.7925,206.50815"
         id="path24"
         sodipodi:nodetypes="cc" />
      <path
         style="fill:none;stroke:#462616;stroke-width:3.77953;stroke-linecap:butt;stroke-linejoin:miter;stroke-dasharray:none;stroke-opacity:1"
         d="M 37.869689,257.98726 115.38421,237.86899"
         id="path25" />
      <path
         style="fill:none;stroke:#462616;stroke-width:3.77953;stroke-linecap:butt;stroke-linejoin:miter;stroke-dasharray:none;stroke-opacity:1"
         d="M 63.313387,282.24753 124.85163,261.53754"
         id="path26" />
      <path
         style="fill:none;stroke:#462616;stroke-width:3.77953;stroke-linecap:butt;stroke-linejoin:miter;stroke-dasharray:none;stroke-opacity:1"
         d="m 102.3665,295.26523 33.7277,-15.97627"
         id="path27" />
    </g>
  </g>
</svg>
