<?xml version="1.0" encoding="UTF-8" standalone="no"?>
<svg
   xmlns:dc="http://purl.org/dc/elements/1.1/"
   xmlns:cc="http://creativecommons.org/ns#"
   xmlns:rdf="http://www.w3.org/1999/02/22-rdf-syntax-ns#"
   xmlns:svg="http://www.w3.org/2000/svg"
   xmlns="http://www.w3.org/2000/svg"
   xmlns:xlink="http://www.w3.org/1999/xlink"
   xmlns:sodipodi="http://sodipodi.sourceforge.net/DTD/sodipodi-0.dtd"
   xmlns:inkscape="http://www.inkscape.org/namespaces/inkscape"
   width="231"
   height="231"
   viewBox="0 0 231 231"
   version="1.1"
   id="svg16"
   sodipodi:docname="amoCRM.svg"
   inkscape:version="0.92.4 (5da689c313, 2019-01-14)">
  <metadata
     id="metadata20">
    <rdf:RDF>
      <cc:Work
         rdf:about="">
        <dc:format>image/svg+xml</dc:format>
        <dc:type
           rdf:resource="http://purl.org/dc/dcmitype/StillImage" />
        <dc:title></dc:title>
      </cc:Work>
    </rdf:RDF>
  </metadata>
  <sodipodi:namedview
     pagecolor="#ffffff"
     bordercolor="#666666"
     borderopacity="1"
     objecttolerance="10"
     gridtolerance="10"
     guidetolerance="10"
     inkscape:pageopacity="0"
     inkscape:pageshadow="2"
     inkscape:window-width="1920"
     inkscape:window-height="1017"
     id="namedview18"
     showgrid="false"
     inkscape:zoom="1.6406926"
     inkscape:cx="115.5"
     inkscape:cy="22"
     inkscape:window-x="-8"
     inkscape:window-y="-8"
     inkscape:window-maximized="1"
     inkscape:current-layer="svg16" />
  <defs
     id="defs4">
    <path
       id="ww6fa"
       d="m 519.3,292.217 c -1.59,0.725 -3.14,1.086 -4.65,1.086 -2.054,0 -3.429,-1.772 -4.126,-5.32 a 12.571,12.571 0 0 1 -3.951,4.033 c -1.628,1.05 -3.807,1.574 -6.538,1.574 -2.731,0 -4.93,-0.838 -6.595,-2.518 -1.666,-1.677 -2.48,-3.718 -2.441,-6.12 0,-6.481 2.188,-11.591 6.566,-15.33 1.86,-1.562 3.593,-2.591 5.201,-3.088 a 17.176,17.176 0 0 1 5.085,-0.743 c 1.781,0 3.234,0.305 4.358,0.915 0.542,-1.105 1.163,-1.658 1.86,-1.658 1.356,0 2.644,0.58 3.864,1.744 1.22,1.164 1.83,2.259 1.83,3.288 -0.542,1.26 -1.336,2.765 -2.381,4.52 -0.311,1.753 -0.466,4.214 -0.466,7.379 0,3.165 0.407,4.746 1.22,4.746 0.624,0 1.798,-0.76 3.521,-2.28 0.076,-3.615 0.277,-6.344 0.604,-8.187 0.582,-3.547 1.898,-6.902 3.952,-10.067 0.698,-1.067 1.453,-1.601 2.266,-1.601 1.279,0 2.46,1.03 3.545,3.088 0.31,0.535 0.542,1.03 0.698,1.487 1.86,-2.287 4.047,-3.432 6.566,-3.432 1.665,0 3.157,0.543 4.475,1.63 1.316,1.087 1.975,2.451 1.975,4.09 v 0.629 c 2.363,-2.897 5.25,-4.347 8.658,-4.347 2.093,0 3.681,0.535 4.765,1.602 1.085,1.067 1.628,2.384 1.628,3.947 0,1.564 -0.116,2.974 -0.349,4.233 a 49.516,49.516 0 0 1 -0.784,3.546 442.07,442.07 0 0 1 -0.784,2.945 c -0.233,0.859 -0.35,1.527 -0.35,2.002 0,0.479 0.155,0.715 0.465,0.715 0.581,0 1.298,-0.361 2.151,-1.086 l 0.039,-0.033 a 12.168,12.168 0 0 1 -0.388,-3.285 c -0.039,-4.537 1.414,-8.446 4.358,-11.726 2.945,-3.279 6.8,-4.918 11.565,-4.918 2.169,0 3.912,0.266 5.23,0.8 2.285,0.915 3.428,1.773 3.428,2.574 0,0.61 -1.599,0.925 -4.793,0.944 -3.197,0.02 -5.87,1.106 -8.021,3.26 -2.149,2.154 -3.225,4.871 -3.225,8.152 0,1.715 0.513,3.154 1.54,4.318 1.027,1.164 2.48,1.745 4.359,1.745 1.878,0 3.438,-0.382 4.678,-1.145 -2.752,-1.83 -4.127,-4.48 -4.127,-7.951 -0.039,-1.83 0.63,-3.497 2.005,-5.004 1.376,-1.506 3.139,-2.27 5.288,-2.288 2.15,-0.02 3.69,0.563 4.62,1.745 0.93,1.182 1.395,2.698 1.395,4.547 0,1.849 -0.446,3.804 -1.337,5.863 h 0.35 c 1.704,-0.039 3.175,-0.629 4.415,-1.774 0.466,-0.458 0.862,-0.858 1.192,-1.201 0.328,-0.343 0.669,-0.514 1.017,-0.514 0.542,0 0.813,0.63 0.813,1.886 0,2.328 -0.697,4.072 -2.092,5.234 -1.394,1.164 -2.934,1.745 -4.62,1.745 -1.685,0 -3.108,-0.114 -4.27,-0.343 -3.061,3.547 -6.733,5.32 -11.013,5.32 -4.281,0 -7.487,-1.078 -9.617,-3.232 a 11.86,11.86 0 0 1 -0.283,-0.297 c -2.556,2.161 -5.271,3.242 -8.143,3.242 -2.79,0 -4.184,-2.497 -4.184,-7.492 0,-1.259 0.213,-2.994 0.64,-5.206 0.425,-2.21 0.639,-3.832 0.639,-4.862 0,-1.258 -0.736,-1.887 -2.209,-1.887 -1.008,0 -2.13,0.963 -3.37,2.889 a 20.304,20.304 0 0 0 -2.673,6.206 v 0.113 c 0,1.298 0.203,2.633 0.61,4.005 0.407,1.372 0.61,2.326 0.61,2.86 0,1.296 -1.647,2.573 -4.94,3.832 -0.503,0.19 -0.95,0.287 -1.336,0.287 -0.97,0 -1.637,-0.497 -2.005,-1.488 -0.369,-0.99 -0.552,-2.335 -0.552,-4.033 0,-1.696 0.048,-3.297 0.146,-4.804 0.096,-1.506 0.193,-2.897 0.29,-4.176 0.096,-1.277 0.193,-2.402 0.29,-3.374 0.097,-0.973 0.146,-1.764 0.146,-2.374 0,-1.296 -0.601,-1.945 -1.802,-1.945 -1.2,0 -2.596,1.382 -4.184,4.146 -1.589,2.767 -2.382,4.958 -2.382,6.578 0,1.622 0.203,3.119 0.61,4.491 0.407,1.373 0.61,2.326 0.61,2.86 0,1.296 -1.647,2.573 -4.939,3.832 -0.504,0.19 -0.95,0.287 -1.337,0.287 -0.969,0 -1.637,-0.497 -2.005,-1.488 -0.17,-0.457 -0.3,-1.03 -0.392,-1.716 -0.784,0.518 -1.612,0.976 -2.483,1.373 z m -19.759,-9.153 c 0,2.938 1.104,4.406 3.313,4.406 2.362,-0.038 4.319,-1.278 5.869,-3.719 0.542,-0.838 0.988,-1.867 1.336,-3.089 0,-4.27 0.387,-7.93 1.162,-10.982 -3.137,0.61 -5.869,2.098 -8.193,4.461 -2.324,2.365 -3.487,5.341 -3.487,8.923 z m 84.492,-1.43 c 0.659,-1.372 0.989,-2.707 0.989,-4.003 0,-1.296 -0.428,-1.944 -1.279,-1.944 -0.349,0 -0.64,0.247 -0.872,0.743 -0.233,0.495 -0.348,0.972 -0.348,1.43 0,1.525 0.503,2.784 1.51,3.774 z"
       inkscape:connector-curvature="0" />
    <path
       id="ww6fb"
       d="m 722,287.866 c 0,3.162 -2.604,5.724 -5.816,5.724 -3.21,-0.002 -5.813,-2.564 -5.813,-5.726 0,-3.161 2.604,-5.723 5.814,-5.721 3.212,0 5.815,2.562 5.815,5.723 z m -73.488,5.36 c -1.589,0.727 -3.099,1.088 -4.532,1.088 -1.434,0 -2.556,-0.266 -3.37,-0.8 -0.814,-0.535 -1.453,-1.26 -1.918,-2.173 -0.66,-1.296 -1.201,-3.767 -1.627,-7.409 -0.427,-3.64 -0.853,-6.186 -1.278,-7.635 -1.009,-0.191 -1.89,-0.581 -2.645,-1.173 -0.755,-0.59 -1.133,-1.316 -1.133,-2.174 0,-0.858 0.397,-1.478 1.192,-1.86 0.792,-0.38 1.704,-0.571 2.731,-0.571 1.026,0 1.947,0.248 2.76,0.744 a 10.839,10.839 0 0 0 2.645,-3.118 c 0.677,-1.2 1.015,-2.82 1.015,-4.861 0,-2.04 -0.697,-3.67 -2.092,-4.891 -1.394,-1.22 -3.438,-1.83 -6.13,-1.83 -2.692,0 -4.756,0.21 -6.188,0.63 -1.434,0.419 -2.665,0.877 -3.69,1.372 a 86.205,86.205 0 0 0 -2.732,1.372 c -0.795,0.42 -1.54,0.63 -2.237,0.63 -0.697,0 -1.046,-0.22 -1.046,-0.659 0,-0.437 0.368,-1.152 1.104,-2.144 0.736,-0.992 1.82,-1.982 3.254,-2.975 3.603,-2.478 7.67,-3.708 12.204,-3.688 4.532,0.018 8.27,0.867 11.215,2.545 a 11.643,11.643 0 0 1 2.25,1.662 c 0.488,-0.744 1.171,-1.412 2.05,-2.005 1.898,-1.374 4.202,-2.06 6.914,-2.06 3.486,0 5.54,1.602 6.16,4.805 0.154,0.953 0.27,1.964 0.35,3.031 2.865,-5.299 6.488,-7.95 10.866,-7.95 4.765,0 7.496,2.25 8.194,6.75 0.233,1.296 0.33,2.688 0.29,4.175 v 0.457 c 2.517,-3.432 5.5,-5.148 8.949,-5.148 4.882,0 7.322,2.899 7.322,8.695 0,2.517 -0.397,5.463 -1.191,8.836 a 614.16,614.16 0 0 1 -1.742,7.265 c -0.37,1.468 -0.553,2.603 -0.553,3.404 0,1.449 0.513,2.173 1.54,2.173 1.025,0 3.477,-1.981 7.35,-5.949 0.699,-0.762 1.202,-1.143 1.512,-1.143 0.658,0 0.988,0.877 0.988,2.63 0,0.954 -0.407,2.108 -1.22,3.462 -0.814,1.354 -1.87,2.594 -3.167,3.717 a 17.886,17.886 0 0 1 -4.33,2.774 11.952,11.952 0 0 1 -5.026,1.087 c -1.763,0 -3.138,-0.562 -4.126,-1.687 -0.989,-1.124 -1.483,-2.383 -1.483,-3.776 0,-1.39 0.233,-2.964 0.698,-4.718 a 315.52,315.52 0 0 1 1.512,-5.49 c 1.471,-5.072 2.226,-8.638 2.266,-10.697 0,-0.877 -0.117,-1.554 -0.35,-2.032 -0.233,-0.476 -0.677,-0.715 -1.336,-0.715 -1.163,0 -2.402,0.687 -3.719,2.06 -1.318,1.373 -2.557,3.127 -3.718,5.261 -2.675,4.882 -4.088,9.649 -4.243,14.302 l 0.232,1.601 c 0.078,0.534 0.116,1.106 0.116,1.715 0,1.221 -0.61,2.337 -1.83,3.348 -1.22,1.009 -2.585,1.515 -4.097,1.515 -0.89,0 -1.55,-0.43 -1.977,-1.288 -0.426,-0.857 -0.638,-1.916 -0.638,-3.173 0,-1.259 0.29,-2.975 0.871,-5.148 0.583,-2.175 1.22,-4.482 1.918,-6.923 1.86,-6.443 2.81,-11.248 2.847,-14.413 0,-1.602 -0.202,-2.86 -0.609,-3.776 -0.407,-0.914 -1.192,-1.372 -2.353,-1.372 -2.092,0 -4.166,1.468 -6.219,4.404 -2.054,2.937 -3.894,7.494 -5.522,13.671 a 67.058,67.058 0 0 0 -0.987,4.175 l -0.059,1.087 c 0.736,3.51 1.105,5.796 1.105,6.865 0,2.212 -0.794,3.698 -2.382,4.461 -0.737,0.343 -1.445,0.667 -2.122,0.972 a 5.238,5.238 0 0 1 -2.179,0.458 c -1.675,0 -2.626,-1.361 -2.852,-4.084 a 17.863,17.863 0 0 1 -3.772,2.31 z m 2.674,-30.657 c 0.038,3.28 -0.834,6.006 -2.616,8.179 a 15.02,15.02 0 0 1 -6.624,4.69 23.424,23.424 0 0 1 1.424,4.06 c 0.367,1.451 0.726,2.786 1.074,4.006 0.35,1.221 0.746,2.23 1.192,3.03 0.445,0.802 0.988,1.202 1.627,1.202 0.64,0 1.414,-0.37 2.325,-1.115 0.91,-0.744 1.81,-1.553 2.701,-2.43 l 0.396,-0.392 c 0.486,-3.89 1.362,-9.097 2.626,-15.625 0.735,-3.813 1.104,-5.948 1.104,-6.406 0,-3.09 -0.795,-4.633 -2.383,-4.633 a 2.57,2.57 0 0 0 -1.482,0.457 c -0.445,0.306 -0.89,0.629 -1.335,0.973 -0.193,0.148 -0.386,0.292 -0.582,0.432 0.369,1.085 0.553,2.275 0.553,3.572 z m -20.223,-2.517 c 0.503,0 0.756,0.649 0.756,1.945 0,1.296 -0.079,2.516 -0.233,3.66 a 52.604,52.604 0 0 1 -1.337,6.178 c -1.394,5.185 -2.092,8.217 -2.092,9.094 v 8.408 c 0,2.06 -0.794,3.47 -2.382,4.234 -0.737,0.343 -1.444,0.667 -2.122,0.972 -0.677,0.305 -1.443,0.458 -2.294,0.458 -1.627,0 -2.44,-1.84 -2.44,-5.52 0,-0.177 0.002,-0.356 0.006,-0.537 -1.53,1.487 -3.366,2.79 -5.51,3.903 -2.666,1.387 -5.807,2.08 -9.421,2.08 -3.618,0 -6.785,-1.188 -9.502,-3.57 -2.721,-2.381 -4.078,-5.816 -4.078,-10.305 0,-4.487 0.637,-8.556 1.915,-12.201 1.278,-3.646 2.963,-6.795 5.057,-9.446 2.092,-2.651 4.473,-4.715 7.137,-6.192 2.665,-1.476 5.193,-2.215 7.586,-2.215 4.188,0 6.28,1.84 6.28,5.515 0,2.11 -0.393,3.795 -1.181,5.061 -0.79,1.265 -1.591,1.897 -2.407,1.897 -1.088,0 -2.039,-0.42 -2.854,-1.266 -0.816,-0.841 -1.714,-1.279 -2.693,-1.309 -0.98,-0.03 -3.637,-0.102 -5.898,3.473 -1.58,2.499 -1.337,2.245 -1.937,3.932 -1.195,3.376 -1.896,5.968 -1.896,10.486 0.054,2.17 2.025,5.487 3.765,6.573 1.196,0.722 2.622,1.33 4.242,1.129 3.494,-0.433 5.456,-2.064 6.884,-3.57 1.318,-1.391 2.48,-2.71 3.732,-4.128 a 94.703,94.703 0 0 0 3.303,-3.93 c 0.172,-0.218 0.336,-0.416 0.493,-0.594 1.619,-4.977 3.303,-8.819 5.054,-11.527 0.386,-0.572 0.948,-1.162 1.684,-1.773 0.736,-0.61 1.53,-0.915 2.383,-0.915 z"
       inkscape:connector-curvature="0" />
  </defs>
  <g
     id="g14"
     transform="translate(0,93.746702)">
    <g
       transform="translate(-491,-251)"
       id="g8">
      <use
         xlink:href="#ww6fa"
         id="use6"
         style="fill:#ffffff"
         x="0"
         y="0"
         width="100%"
         height="100%" />
    </g>
    <g
       transform="translate(-491,-251)"
       id="g12">
      <use
         xlink:href="#ww6fb"
         id="use10"
         style="fill:#7048b8"
         x="0"
         y="0"
         width="100%"
         height="100%" />
    </g>
  </g>
</svg>
