<?xml version="1.0" encoding="UTF-8" standalone="no"?>
<svg
   xmlns:dc="http://purl.org/dc/elements/1.1/"
   xmlns:cc="http://creativecommons.org/ns#"
   xmlns:rdf="http://www.w3.org/1999/02/22-rdf-syntax-ns#"
   xmlns:svg="http://www.w3.org/2000/svg"
   xmlns="http://www.w3.org/2000/svg"
   xmlns:sodipodi="http://sodipodi.sourceforge.net/DTD/sodipodi-0.dtd"
   xmlns:inkscape="http://www.inkscape.org/namespaces/inkscape"
   width="56"
   height="56"
   viewBox="0 0 56 56.000033"
   version="1.1"
   id="svg27"
   sodipodi:docname="deepseek.svg"
   style="fill:none"
   inkscape:version="0.92.4 (5da689c313, 2019-01-14)">
  <metadata
     id="metadata31">
    <rdf:RDF>
      <cc:Work
         rdf:about="">
        <dc:format>image/svg+xml</dc:format>
        <dc:type
           rdf:resource="http://purl.org/dc/dcmitype/StillImage" />
        <dc:title></dc:title>
      </cc:Work>
    </rdf:RDF>
  </metadata>
  <sodipodi:namedview
     pagecolor="#ffffff"
     bordercolor="#666666"
     borderopacity="1"
     objecttolerance="10"
     gridtolerance="10"
     guidetolerance="10"
     inkscape:pageopacity="0"
     inkscape:pageshadow="2"
     inkscape:window-width="1920"
     inkscape:window-height="1017"
     id="namedview29"
     showgrid="false"
     inkscape:zoom="1.9435897"
     inkscape:cx="13.891819"
     inkscape:cy="20.679687"
     inkscape:window-x="-8"
     inkscape:window-y="-8"
     inkscape:window-maximized="1"
     inkscape:current-layer="svg27" />
  <desc
     id="desc2">
			Created with Pixso.
	</desc>
  <defs
     id="defs6">
    <clipPath
       id="clip30_2029">
      <rect
         id="_图层_1"
         width="134.57747"
         height="25.511124"
         transform="translate(60.422485,10.022217)"
         x="0"
         y="0"
         style="fill:#ffffff" />
    </clipPath>
  </defs>
  <path
     id="path25"
     d="m 56.127312,10.908648 c -0.5953,-0.29175 -0.8517,0.26416 -1.1998,0.54663 -0.1191,0.09107 -0.2198,0.20947 -0.3206,0.31885 -0.8701,0.9292 -1.8867,1.53979 -3.2148,1.4668 -1.9417,-0.10938 -3.5995,0.50122 -5.065,1.98632 -0.3114,-1.83129 -1.3463,-2.9248 -2.9217,-3.62622 -0.8242,-0.3645 -1.6577,-0.729 -2.2348,-1.52172 -0.4029,-0.5647004 -0.5129,-1.1933604 -0.7143,-1.8129934 -0.1283,-0.373535 -0.2565,-0.756347 -0.687,-0.820068 -0.4671,-0.07275 -0.6503,0.318848 -0.8335,0.646973 -0.7327,1.339358 -1.0166,2.8154284 -0.9892,4.3095684 0.0641,3.36206 1.4838,6.04057 4.3048,7.94487 0.3206,0.2187 0.403,0.4372 0.3023,0.7563 -0.1924,0.656 -0.4214,1.2937 -0.6228,1.9497 -0.1283,0.4192 -0.3207,0.5103 -0.7694,0.3279 -1.5479,-0.6467 -2.8852,-1.6035 -4.0667,-2.7605 -2.0058,-1.9407 -3.8193,-4.08179 -6.0815,-5.75831 -0.5313,-0.39184 -1.0625,-0.7561 -1.6121,-1.10254 -2.3081,-2.24121 0.3023,-4.0817804 0.9068,-4.3002904 0.6319,-0.22778 0.2198,-1.01147 -1.8227,-1.0022 -2.0425,0.009 -3.9109,0.69239 -6.2922,1.6035204 -0.348,0.13672 -0.7145,0.23682 -1.09,0.31885 -2.1615,-0.4099204 -4.4055,-0.5012204 -6.7502,-0.23682 -4.4146901,0.49194 -7.9408201,2.57837 -10.5328601,6.14087 -3.11413402,4.28222 -3.84680002,9.14742 -2.94921702,14.22242 0.94335702,5.3481 3.67272702,9.7761 7.86755702,13.2385 4.3506201,3.5896 9.3606201,5.3482 15.0758201,5.011 3.4713,-0.2004 7.3364,-0.665 11.6961,-4.355 1.099,0.5467 2.2531,0.7652 4.1674,0.9292 1.4746,0.1367 2.8943,-0.0727 3.9933,-0.3005 1.7219,-0.3645 1.6029,-1.959 0.9801,-2.2505 -5.0466,-2.3506 -3.9385,-1.394 -4.9459,-2.1685 2.5645,-3.0339 6.4297,-6.1865 7.9409,-16.4001 0.119,-0.8108 0.0183,-1.3211 0,-1.9771 -0.0092,-0.4008 0.0824,-0.5556 0.5404,-0.6013 1.2639,-0.1457 2.4912,-0.4919 3.6178,-1.1115 3.2698,-1.7857 4.5886,-4.71953 4.9,-8.23638 0.0459,-0.53759 -0.0091,-1.0935 -0.577,-1.37573 z m -28.4938,31.65181 c -4.8909,-3.8447 -7.263,-5.1113 -8.2431,-5.0566 -0.9159,0.0547 -0.751,1.1025 -0.5496,1.7859 0.2107,0.6741 0.4855,1.1389 0.8701,1.731 0.2656,0.3918 0.4489,0.9748 -0.2655,1.4123 -1.5754,0.9749 -4.314,-0.3281 -4.4423,-0.3918 -3.1872,-1.877 -5.8524901,-4.3553 -7.7301801,-7.7444 -1.81347,-3.262 -2.8667,-6.7605 -3.04077,-10.4961 -0.04577,-0.9019 0.21985,-1.221 1.11743,-1.3848 1.18152,-0.2187 2.39966,-0.2644 3.58118,-0.0913 4.9917401,0.729 9.2414401,2.9612 12.8043401,6.4963 2.0333,2.0135 3.572,4.419 5.1566,6.7696 1.6852,2.4963 3.4987,4.8745 5.8068,6.8242 0.8151,0.6833 1.4654,1.2026 2.0882,1.5854 -1.8775,0.2095 -5.01,0.2552 -7.1532,-1.4397 z m 2.3447,-15.0788 c 0,-0.4009 0.3206,-0.7197 0.7237,-0.7197 0.0915,0 0.1739,0.018 0.2472,0.0454 0.1008,0.0366 0.1924,0.0913 0.2656,0.1731 0.1283,0.1277 0.2015,0.3098 0.2015,0.5012 0,0.4009 -0.3205,0.7197 -0.7235,0.7197 -0.4031,0 -0.7145,-0.3188 -0.7145,-0.7197 z m 7.2815,3.7356 c -0.4671,0.1914 -0.9342,0.3552 -1.383,0.3735 -0.6961,0.0364 -1.4563,-0.2461 -1.8684,-0.5923 -0.6411,-0.5376 -1.0991,-0.8381 -1.2915,-1.7766 -0.0824,-0.4009 -0.0367,-1.0205 0.0367,-1.3757 0.1648,-0.7654 -0.0184,-1.2573 -0.5587,-1.7039 -0.4397,-0.3645 -0.9984,-0.4646 -1.6121,-0.4646 -0.229,0 -0.4395,-0.1003 -0.5953,-0.1823 -0.2565,-0.1275 -0.467,-0.4463 -0.2656,-0.8382 0.0641,-0.1274 0.3756,-0.4372 0.4488,-0.4919 0.8335,-0.4739 1.7952,-0.3189 2.6836,0.0364 0.8244,0.3371 1.4472,0.9567 2.3447,1.8313 0.9159,1.0568 1.0807,1.3486 1.6028,2.1411 0.4123,0.6196 0.7878,1.2573 1.0442,1.9863 0.1557,0.4556 -0.0458,0.8291 -0.5862,1.0569 z"
     inkscape:connector-curvature="0"
     style="fill:#4d6bfe;fill-rule:nonzero" />
</svg>
