<?xml version="1.0" encoding="UTF-8" standalone="no"?>
<svg
   xmlns:dc="http://purl.org/dc/elements/1.1/"
   xmlns:cc="http://creativecommons.org/ns#"
   xmlns:rdf="http://www.w3.org/1999/02/22-rdf-syntax-ns#"
   xmlns:svg="http://www.w3.org/2000/svg"
   xmlns="http://www.w3.org/2000/svg"
   xmlns:sodipodi="http://sodipodi.sourceforge.net/DTD/sodipodi-0.dtd"
   xmlns:inkscape="http://www.inkscape.org/namespaces/inkscape"
   height="2500"
   viewBox="15.7 3.6 141.57169 121.6"
   width="2500"
   version="1.1"
   id="svg70"
   sodipodi:docname="go.svg"
   inkscape:version="0.92.4 (5da689c313, 2019-01-14)">
  <metadata
     id="metadata76">
    <rdf:RDF>
      <cc:Work
         rdf:about="">
        <dc:format>image/svg+xml</dc:format>
        <dc:type
           rdf:resource="http://purl.org/dc/dcmitype/StillImage" />
        <dc:title></dc:title>
      </cc:Work>
    </rdf:RDF>
  </metadata>
  <defs
     id="defs74" />
  <sodipodi:namedview
     pagecolor="#ffffff"
     bordercolor="#666666"
     borderopacity="1"
     objecttolerance="10"
     gridtolerance="10"
     guidetolerance="10"
     inkscape:pageopacity="0"
     inkscape:pageshadow="2"
     inkscape:window-width="1920"
     inkscape:window-height="1017"
     id="namedview72"
     showgrid="false"
     inkscape:zoom="0.0944"
     inkscape:cx="833.5"
     inkscape:cy="1250"
     inkscape:window-x="-8"
     inkscape:window-y="-8"
     inkscape:window-maximized="1"
     inkscape:current-layer="svg70" />
  <path
     d="m 45.695082,68.7 c 0.2,3.5 3.7,1.9 5.3,0.8 1.5,-1.1 2,-0.2 2.1,-2.3 0.1,-1.4 0.2,-2.7 0.2,-4.1 -2.3,-0.2 -4.8,0.3 -6.7,1.7 -0.9,0.7 -2.8,3 -0.9,3.9"
     id="path2"
     inkscape:connector-curvature="0"
     style="clip-rule:evenodd;fill:#f6d2a2;fill-rule:evenodd" />
  <path
     d="m 47.595082,71.2 c -0.7,0 -2,-0.3 -2.2,-2.3 -0.6,-0.4 -0.8,-0.9 -0.8,-1.2 -0.1,-1.2 1.2,-2.6 1.9,-3.1 1.6,-1.2 3.7,-1.8 5.9,-1.8 h 1.3 v 0.3 c 0.1,1.1 0,2.2 -0.1,3.2 0,0.3 0,0.6 -0.1,0.9 -0.1,1.5 -0.4,1.7 -1.1,2 -0.3,0.1 -0.6,0.2 -1.1,0.6 -0.5,0.3 -2.2,1.4 -3.7,1.4 z m 4.8,-7.8 c -2.1,0 -4,0.6 -5.5,1.7 -0.7,0.5 -1.7,1.7 -1.6,2.5 0,0.3 0.2,0.6 0.6,0.8 l 0.2,0.1 v 0.2 c 0.1,1.6 0.9,1.8 1.5,1.8 1,0 2.4,-0.7 3.3,-1.3 0.6,-0.4 1,-0.5 1.3,-0.6 0.5,-0.2 0.6,-0.2 0.7,-1.4 0,-0.3 0,-0.6 0.1,-0.9 0.1,-0.9 0.1,-1.9 0.1,-2.8 -0.3,-0.1 -0.5,-0.1 -0.7,-0.1 z"
     id="path4"
     inkscape:connector-curvature="0" />
  <path
     d="m 45.695082,68.7 c 0.5,-0.2 1.1,-0.3 1.4,-0.8"
     id="path6"
     inkscape:connector-curvature="0"
     style="clip-rule:evenodd;fill:#c6b198;fill-rule:evenodd" />
  <path
     d="m 45.695082,69 c -0.1,0 -0.3,-0.1 -0.3,-0.2 -0.1,-0.2 0,-0.4 0.2,-0.4 0.1,0 0.2,-0.1 0.2,-0.1 0.4,-0.2 0.8,-0.3 1,-0.6 0.1,-0.1 0.3,-0.2 0.5,-0.1 0.1,0.1 0.2,0.3 0.1,0.5 -0.4,0.5 -0.9,0.7 -1.3,0.8 l -0.2,0.1 z"
     id="path8"
     inkscape:connector-curvature="0" />
  <path
     d="m 53.895082,26.4 c -13.6,-3.8 -3.5,-21.1 7.4,-14 z"
     id="path10"
     inkscape:connector-curvature="0"
     style="clip-rule:evenodd;fill:#6ad7e5;fill-rule:evenodd" />
  <path
     d="m 54.095082,26.8 -0.3,-0.1 c -7,-2 -6.9,-7 -6.7,-8.5 0.5,-3.8 4.1,-7.8 8.9,-7.8 1.9,0 3.7,0.6 5.5,1.8 l 0.3,0.2 z m 1.9,-15.7 c -4.5,0 -7.8,3.7 -8.3,7.2 -0.5,3.6 1.7,6.4 6,7.7 l 7.1,-13.5 c -1.5,-0.9 -3.1,-1.4 -4.8,-1.4 z"
     id="path12"
     inkscape:connector-curvature="0" />
  <path
     d="m 114.19508,11.1 c 10.7,-7.5 20.5,9.5 8,13.8 z"
     id="path14"
     inkscape:connector-curvature="0"
     style="clip-rule:evenodd;fill:#6ad7e5;fill-rule:evenodd" />
  <path
     d="m 122.09508,25.3 -8.3,-14.3 0.3,-0.2 c 1.9,-1.3 3.8,-2 5.7,-2 4.6,0 7.9,3.8 8.6,7.5 0.3,1.5 0.6,6.6 -6,8.8 z m -7.4,-14 7.7,13.3 c 3.9,-1.4 5.9,-4.4 5.3,-8 -0.6,-3.4 -3.7,-6.9 -7.9,-6.9 -1.7,-0.1 -3.4,0.4 -5.1,1.6 z"
     id="path16"
     inkscape:connector-curvature="0" />
  <path
     d="m 116.59508,112.3 c 2.7,1.7 7.7,6.8 3.6,9.3 -3.9,3.6 -6.1,-4 -9.6,-5 1.5,-2 3.4,-3.9 6,-4.3"
     id="path18"
     inkscape:connector-curvature="0"
     style="clip-rule:evenodd;fill:#f6d2a2;fill-rule:evenodd" />
  <path
     d="m 118.09508,122.9 c -1.6,0 -3,-1.6 -4.2,-3.1 -1.1,-1.2 -2.2,-2.5 -3.4,-2.9 l -0.5,-0.1 0.3,-0.4 c 1.2,-1.7 3.2,-3.9 6.2,-4.4 h 0.1 l 0.1,0.1 c 1.7,1.1 5.4,4.2 5.3,7.1 0,1.1 -0.6,2 -1.7,2.7 -0.7,0.7 -1.4,1 -2.2,1 z m -7,-6.5 c 1.2,0.5 2.2,1.8 3.2,2.9 1.2,1.5 2.4,2.8 3.7,2.8 0.6,0 1.2,-0.3 1.8,-0.9 h 0.1 c 0.9,-0.6 1.4,-1.3 1.4,-2.2 0,-2.3 -2.9,-5.2 -4.9,-6.5 -1.8,0.5 -3.6,1.7 -5.3,3.9 z m 9.1,5.5 c -0.1,0 -0.2,-0.1 -0.3,-0.2 -0.2,-0.4 -0.4,-0.9 -0.5,-1.3 -0.3,-0.8 -0.6,-1.6 -1.2,-2.2 -0.1,-0.1 -0.1,-0.3 0,-0.5 0.1,-0.1 0.3,-0.1 0.5,0 0.7,0.7 1.1,1.6 1.4,2.5 l 0.5,1.2 c 0.1,0.2 0,0.4 -0.1,0.5 z"
     id="path20"
     inkscape:connector-curvature="0" />
  <path
     d="m 67.795082,118.1 c -3.2,0.5 -5,3.4 -7.7,4.9 -2.5,1.5 -3.5,-0.5 -3.7,-0.9 -0.4,-0.2 -0.4,0.2 -1,-0.4 -2.3,-3.7 2.4,-6.4 4.9,-8.2 3.5,-0.8 5.7,2.2 7.5,4.6"
     id="path22"
     inkscape:connector-curvature="0"
     style="clip-rule:evenodd;fill:#f6d2a2;fill-rule:evenodd" />
  <path
     d="m 58.395082,123.8 c -1.3,0 -2,-1.1 -2.2,-1.5 h -0.1 c -0.3,0 -0.5,-0.1 -0.9,-0.5 v -0.1 c -2.2,-3.5 1.6,-6.2 4.1,-8 l 0.9,-0.6 h 0.2 c 0.4,-0.1 0.7,-0.1 1.1,-0.1 3,0 4.9,2.6 6.5,4.7 l 0.5,0.7 -0.6,0.1 c -1.9,0.3 -3.3,1.5 -4.7,2.7 -0.9,0.8 -1.8,1.5 -2.8,2.1 -0.8,0.3 -1.4,0.5 -2,0.5 z m -2.2,-2.1 c 0.1,0 0.2,0 0.4,0.1 h 0.1 l 0.1,0.1 c 0.2,0.3 0.7,1.2 1.7,1.2 0.5,0 1,-0.2 1.5,-0.5 1,-0.5 1.9,-1.3 2.7,-2 1.3,-1.1 2.7,-2.3 4.5,-2.8 -1.5,-2 -3.3,-4.2 -5.8,-4.2 -0.3,0 -0.6,0 -0.9,0.1 l -0.8,0.6 c -2.6,1.8 -5.8,4.1 -3.9,7.1 0.1,0.2 0.2,0.3 0.4,0.3 z m 0.2,0.7 c -0.2,0 -0.4,-0.2 -0.3,-0.4 0.1,-1 0.6,-1.7 1.1,-2.5 0.3,-0.4 0.5,-0.8 0.7,-1.2 0.1,-0.2 0.3,-0.2 0.4,-0.2 0.2,0.1 0.2,0.3 0.2,0.4 -0.2,0.5 -0.5,0.9 -0.8,1.3 -0.5,0.7 -0.9,1.3 -1,2.1 0,0.4 -0.1,0.5 -0.3,0.5 z"
     id="path24"
     inkscape:connector-curvature="0" />
  <path
     d="m 54.495082,21.7 c -1.8,-0.9 -3.1,-2.2 -2,-4.3 1,-1.9 2.9,-1.7 4.7,-0.8 z m 64.899998,-1.8 c 1.8,-0.9 3.1,-2.2 2,-4.3 -1,-1.9 -2.9,-1.7 -4.7,-0.8 z"
     id="path26"
     inkscape:connector-curvature="0"
     style="clip-rule:evenodd;fill-rule:evenodd" />
  <path
     d="m 131.69508,68.2 c -0.2,3.5 -3.7,1.9 -5.3,0.8 -1.5,-1.1 -2,-0.2 -2.1,-2.3 -0.1,-1.4 -0.2,-2.7 -0.2,-4.1 2.3,-0.2 4.8,0.3 6.7,1.7 1,0.8 2.8,3 0.9,3.9"
     id="path28"
     inkscape:connector-curvature="0"
     style="clip-rule:evenodd;fill:#f6d2a2;fill-rule:evenodd" />
  <path
     d="m 129.89508,70.7 c -1.5,0 -3.2,-1.1 -3.7,-1.4 -0.5,-0.3 -0.8,-0.5 -1.1,-0.6 -0.8,-0.3 -1,-0.5 -1.1,-2 0,-0.3 0,-0.6 -0.1,-0.9 -0.1,-1 -0.2,-2.1 -0.1,-3.2 v -0.3 h 1.3 c 2.2,0 4.3,0.6 5.9,1.8 0.7,0.5 2,1.9 1.9,3.1 0,0.4 -0.2,0.9 -0.8,1.2 -0.2,2 -1.5,2.3 -2.2,2.3 z m -5.5,-7.7 c 0,0.9 0,1.9 0.1,2.8 0,0.3 0,0.6 0.1,0.9 0.1,1.2 0.2,1.2 0.7,1.4 0.3,0.1 0.7,0.3 1.3,0.6 0.9,0.6 2.3,1.3 3.3,1.3 0.6,0 1.4,-0.2 1.5,-1.8 V 68 l 0.2,-0.1 c 0.4,-0.2 0.6,-0.4 0.6,-0.8 0.1,-0.8 -0.9,-2 -1.6,-2.5 -1.5,-1.1 -3.5,-1.7 -5.5,-1.7 -0.2,0.1 -0.4,0.1 -0.7,0.1 z"
     id="path30"
     inkscape:connector-curvature="0" />
  <path
     d="m 131.69508,68.2 c -0.5,-0.2 -1.1,-0.3 -1.4,-0.8"
     id="path32"
     inkscape:connector-curvature="0"
     style="clip-rule:evenodd;fill:#c6b198;fill-rule:evenodd" />
  <path
     d="m 131.69508,68.6 h -0.1 l -0.2,-0.1 c -0.5,-0.2 -1,-0.3 -1.3,-0.8 -0.1,-0.1 -0.1,-0.4 0.1,-0.5 0.1,-0.1 0.4,-0.1 0.5,0.1 0.2,0.3 0.6,0.4 1,0.6 0.1,0 0.2,0.1 0.2,0.1 0.2,0.1 0.3,0.3 0.2,0.4 -0.1,0.1 -0.3,0.2 -0.4,0.2 z"
     id="path34"
     inkscape:connector-curvature="0" />
  <path
     d="m 87.395082,4 c 13.599998,0 26.299998,1.9 32.999998,15 6,14.6 3.8,30.4 4.8,45.9 0.8,13.3 2.5,28.6 -3.6,40.9 -6.5,12.9 -22.699998,16.2 -35.999998,15.7 -10.5,-0.4 -23.1,-3.8 -29.1,-13.4 -6.9,-11.2 -3.7,-27.9 -3.2,-40.4 0.6,-14.8 -4,-29.7 0.9,-44.1 4.9,-15.1 18.5,-18.5 33.2,-19.6"
     id="path36"
     inkscape:connector-curvature="0"
     style="clip-rule:evenodd;fill:#6ad7e5;fill-rule:evenodd" />
  <path
     d="m 87.895082,121.9 h -2.5 c -4.1,-0.1 -10.3,-0.8 -16.4,-3.3 -5.9,-2.4 -10.2,-5.8 -13,-10.3 -5.6,-9.1 -4.6,-21.6 -3.7,-32.7 0.2,-2.8 0.4,-5.4 0.5,-7.9 0.2,-5.2 -0.2,-10.6 -0.7,-15.7 -0.8,-9.4 -1.6,-19.1 1.5,-28.5 2.4,-7 6.7,-12 13.2,-15.2 5.1,-2.5 11.4,-3.9 20.4,-4.6 13.399998,-0.1 26.699998,1.8 33.399998,15.1 4.4,10.7 4.4,22.2 4.5,33.3 0,4.2 0,8.5 0.3,12.7 0.1,1.3 0.2,2.6 0.2,3.9 0.8,12.2 1.7,26 -3.9,37.2 -2.8,5.7 -7.7,9.9 -14.4,12.6 -5.4,2.2 -12.199998,3.4 -19.399998,3.4 z m -0.5,-117.6 c -14.1,1.1 -27.9,4.2 -33,19.4 -3.1,9.3 -2.3,18.9 -1.5,28.2 0.4,5.2 0.9,10.5 0.7,15.8 -0.1,2.5 -0.3,5.1 -0.5,7.9 -0.9,11 -1.9,23.4 3.6,32.3 2.3,3.7 9.7,12.5 28.8,13.2 h 2.5 c 22.099998,0 30.299998,-9.8 33.299998,-15.6 5.5,-11 4.6,-24.8 3.9,-36.9 -0.1,-1.3 -0.2,-2.6 -0.2,-3.9 -0.2,-4.2 -0.3,-8.5 -0.3,-12.7 -0.1,-11 -0.1,-22.5 -4.4,-33.1 -3,-5.9 -7.5,-9.9 -13.7,-12.2 -6.4,-2.1 -13.599998,-2.4 -19.199998,-2.4 z"
     id="path38"
     inkscape:connector-curvature="0" />
  <path
     d="m 89.795082,22.2 c 2.4,14.2 25.599998,10.4 22.299998,-3.9 -3,-12.8 -23.099998,-9.2 -22.299998,3.9"
     id="path40"
     inkscape:connector-curvature="0"
     style="clip-rule:evenodd;fill:#ffffff;fill-rule:evenodd" />
  <path
     d="m 100.79508,31.5 c -4.499998,0 -10.199998,-2.4 -11.399998,-9.2 -0.2,-3.2 0.8,-6.1 2.9,-8.3 2.3,-2.5 5.8,-3.9 9.399998,-3.9 4.2,0 9.2,2.2 10.6,8.3 0.8,3.4 0.2,6.4 -1.7,8.8 -2.1,2.6 -5.8,4.3 -9.8,4.3 z M 90.095082,22.2 c 0.5,2.8 1.8,5 3.9,6.6 1.8,1.4 4.3,2.1 6.799998,2.1 3.7,0 7.3,-1.6 9.3,-4.1 1.8,-2.2 2.3,-5.1 1.6,-8.3 -1.3,-5.7 -6,-7.7 -10,-7.7 -3.399998,0 -6.699998,1.4 -8.899998,3.7 -1.9,2 -2.9,4.7 -2.7,7.7 z"
     id="path42"
     inkscape:connector-curvature="0" />
  <path
     d="m 62.095082,24.5 c 3.2,12.3 22.9,9.2 22.2,-3.2 -0.9,-14.8 -25.3,-12 -22.2,3.2"
     id="path44"
     inkscape:connector-curvature="0"
     style="clip-rule:evenodd;fill:#ffffff;fill-rule:evenodd" />
  <path
     d="m 72.595082,32.7 c -4.3,0 -9.3,-2.1 -10.9,-8.1 -0.7,-3.5 0,-6.7 2,-9.1 2.2,-2.7 5.8,-4.3 9.7,-4.3 5.2,0 10.7,3.1 11.1,10.1 0.2,2.9 -0.7,5.5 -2.7,7.6 -2.1,2.3 -5.6,3.8 -9.2,3.8 z m 0.8,-20.8 c -3.7,0 -7.1,1.5 -9.2,4 -1.9,2.3 -2.5,5.2 -1.8,8.5 1.4,5.6 6.2,7.6 10.2,7.6 3.4,0 6.7,-1.3 8.8,-3.6 1.8,-1.9 2.7,-4.4 2.5,-7.1 -0.2,-4.3 -3.1,-9.4 -10.5,-9.4 z"
     id="path46"
     inkscape:connector-curvature="0" />
  <path
     d="m 92.595082,39.2 c 0,1.8 0.4,3.9 0.1,5.9 -0.5,0.9 -1.4,1 -2.2,1.3 -1.1,-0.2 -2,-0.9 -2.5,-1.9 -0.3,-2.2 0.1,-4.4 0.2,-6.6 z"
     id="path48"
     inkscape:connector-curvature="0"
     style="clip-rule:evenodd;fill:#ffffff;fill-rule:evenodd" />
  <path
     d="m 90.495082,46.8 c -1.3,-0.2 -2.3,-1 -2.8,-2.1 -0.2,-1.6 -0.1,-3.1 0,-4.6 0.1,-0.7 0.1,-1.4 0.1,-2.1 v -0.4 l 5.1,1.6 v 0.2 c 0,0.6 0.1,1.2 0.1,1.9 0.1,1.3 0.2,2.7 0,4 v 0.1 c -0.4,0.8 -1.1,1 -1.8,1.3 -0.2,-0.1 -0.4,0 -0.7,0.1 z m -2.2,-2.4 c 0.4,0.9 1.2,1.5 2.1,1.7 0.2,-0.1 0.4,-0.1 0.5,-0.2 0.6,-0.2 1.1,-0.4 1.4,-0.9 0.2,-1.2 0.1,-2.5 0,-3.8 0,-0.6 -0.1,-1.2 -0.1,-1.7 l -3.8,-1.2 c 0,0.6 -0.1,1.2 -0.1,1.7 -0.1,1.6 -0.2,3 0,4.4 z"
     id="path50"
     inkscape:connector-curvature="0" />
  <g
     id="g60"
     style="clip-rule:evenodd;fill-rule:evenodd"
     transform="translate(24.595082)">
    <path
       d="m 46.3,22.5 c 0,2 -1.5,3.6 -3.3,3.6 -1.8,0 -3.3,-1.6 -3.3,-3.6 0,-2 1.5,-3.6 3.3,-3.6 1.8,0 3.3,1.6 3.3,3.6"
       id="path52"
       inkscape:connector-curvature="0" />
    <path
       d="m 45.2,23.3 c 0,0.5 -0.4,0.9 -0.8,0.9 -0.4,0 -0.8,-0.4 -0.8,-0.9 0,-0.5 0.4,-0.9 0.8,-0.9 0.5,0 0.8,0.4 0.8,0.9"
       id="path54"
       inkscape:connector-curvature="0"
       style="fill:#ffffff" />
    <path
       d="m 74.2,21.6 c 0,2 -1.5,3.6 -3.3,3.6 -1.8,0 -3.3,-1.6 -3.3,-3.6 0,-2 1.5,-3.6 3.3,-3.6 1.8,0 3.3,1.6 3.3,3.6"
       id="path56"
       inkscape:connector-curvature="0" />
    <path
       d="m 73.2,22.4 c 0,0.5 -0.3,0.9 -0.8,0.9 -0.4,0 -0.8,-0.4 -0.8,-0.9 0,-0.5 0.3,-0.9 0.8,-0.9 0.4,0 0.8,0.4 0.8,0.9 M 58.4,39 c -1.5,3.5 0.8,10.6 4.8,5.4 -0.3,-2.2 0.1,-4.4 0.2,-6.6 z"
       id="path58"
       inkscape:connector-curvature="0"
       style="fill:#ffffff" />
  </g>
  <path
     d="m 85.095082,46.6 c -0.7,0 -1.4,-0.4 -1.9,-1.2 -1.1,-1.6 -1.3,-4.6 -0.5,-6.5 l 0.1,-0.2 5.5,-1.4 v 0.4 l -0.1,2.2 c -0.1,1.5 -0.2,2.9 0,4.4 v 0.1 l -0.1,0.1 c -1,1.4 -2,2.1 -3,2.1 z m -1.8,-7.3 c -0.6,1.7 -0.4,4.4 0.5,5.7 0.4,0.6 0.8,0.9 1.3,0.9 0.7,0 1.5,-0.6 2.3,-1.6 -0.2,-1.5 -0.1,-3 0.1,-4.4 l 0.1,-1.7 z"
     id="path62"
     inkscape:connector-curvature="0" />
  <path
     d="m 83.495082,32.2 c -2.7,0.2 -4.9,3.5 -3.5,6 1.9,3.4 6,-0.3 8.6,0 3,0.1 5.4,3.2 7.8,0.6 2.7,-2.9 -1.2,-5.7 -4.1,-7 z"
     id="path64"
     inkscape:connector-curvature="0"
     style="clip-rule:evenodd;fill:#f6d2a2;fill-rule:evenodd" />
  <path
     d="m 94.295082,40.2 c -0.9,0 -1.8,-0.4 -2.7,-0.8 -0.9,-0.4 -1.9,-0.8 -3,-0.8 h -0.3 c -0.8,0 -1.7,0.3 -2.7,0.7 -1.1,0.4 -2.2,0.7 -3.2,0.7 -1.2,0 -2.1,-0.5 -2.7,-1.6 -0.7,-1.2 -0.6,-2.6 0.1,-3.9 0.8,-1.5 2.2,-2.4 3.7,-2.6 l 8.9,-0.4 h 0.1 c 2.2,0.9 4.7,2.6 5.2,4.6 0.2,1 -0.1,2 -0.9,2.9 -0.8,0.9 -1.6,1.2 -2.5,1.2 z m -5.6,-2.2 c 1.1,0 2.2,0.5 3.2,0.9 0.9,0.4 1.7,0.7 2.5,0.7 0.7,0 1.3,-0.3 1.9,-0.9 0.7,-0.7 0.9,-1.5 0.8,-2.3 -0.4,-1.7 -2.8,-3.3 -4.7,-4.1 l -8.7,0.4 c -1.3,0.1 -2.5,1 -3.2,2.2 -0.6,1.1 -0.6,2.3 -0.1,3.3 0.5,0.9 1.1,1.3 2.1,1.3 0.9,0 1.9,-0.4 2.9,-0.7 1.1,-0.4 2,-0.7 3,-0.7 0,-0.2 0.1,-0.2 0.3,-0.1 z"
     id="path66"
     inkscape:connector-curvature="0"
     style="fill:#231f20" />
  <path
     d="m 83.195082,32.1 c -0.2,-4.7 8.8,-5.3 9.8,-1.4 1.1,4 -9.4,4.9 -9.8,1.4"
     id="path68"
     inkscape:connector-curvature="0"
     style="clip-rule:evenodd;fill-rule:evenodd" />
</svg>
