<?xml version="1.0" encoding="UTF-8" standalone="no"?>
<svg
   xmlns:dc="http://purl.org/dc/elements/1.1/"
   xmlns:cc="http://creativecommons.org/ns#"
   xmlns:rdf="http://www.w3.org/1999/02/22-rdf-syntax-ns#"
   xmlns:svg="http://www.w3.org/2000/svg"
   xmlns="http://www.w3.org/2000/svg"
   xmlns:sodipodi="http://sodipodi.sourceforge.net/DTD/sodipodi-0.dtd"
   xmlns:inkscape="http://www.inkscape.org/namespaces/inkscape"
   width="2500"
   height="2500"
   viewBox="0 0 345.94595 346"
   preserveAspectRatio="xMinYMin meet"
   version="1.1"
   id="svg12"
   sodipodi:docname="java.svg"
   inkscape:version="0.92.4 (5da689c313, 2019-01-14)">
  <metadata
     id="metadata18">
    <rdf:RDF>
      <cc:Work
         rdf:about="">
        <dc:format>image/svg+xml</dc:format>
        <dc:type
           rdf:resource="http://purl.org/dc/dcmitype/StillImage" />
        <dc:title></dc:title>
      </cc:Work>
    </rdf:RDF>
  </metadata>
  <defs
     id="defs16" />
  <sodipodi:namedview
     pagecolor="#ffffff"
     bordercolor="#666666"
     borderopacity="1"
     objecttolerance="10"
     gridtolerance="10"
     guidetolerance="10"
     inkscape:pageopacity="0"
     inkscape:pageshadow="2"
     inkscape:window-width="1920"
     inkscape:window-height="1017"
     id="namedview14"
     showgrid="false"
     inkscape:zoom="0.0944"
     inkscape:cx="925"
     inkscape:cy="1250"
     inkscape:window-x="-8"
     inkscape:window-y="-8"
     inkscape:window-maximized="1"
     inkscape:current-layer="svg12" />
  <path
     d="m 123.60485,267.473 c 0,0 -13.198,7.675 9.393,10.272 27.369,3.122 41.356,2.675 71.517,-3.034 0,0 7.93,4.972 19.003,9.279 -67.611,28.977 -153.019003,-1.679 -99.913,-16.517 m -8.262,-37.814 c 0,0 -14.803,10.958 7.805,13.296 29.236,3.016 52.324,3.263 92.276,-4.43 0,0 5.526,5.602 14.215,8.666 -81.747,23.904 -172.798003,1.885 -114.296,-17.532"
     id="path2"
     inkscape:connector-curvature="0"
     style="fill:#5382a1" />
  <path
     d="m 184.99285,165.515 c 16.66,19.18 -4.377,36.44 -4.377,36.44 0,0 42.301,-21.837 22.874,-49.183 -18.144,-25.5 -32.059,-38.172 43.268,-81.858 0,0 -118.238,29.53 -61.765,94.6"
     id="path4"
     inkscape:connector-curvature="0"
     style="fill:#e76f00" />
  <path
     d="m 274.41485,295.442 c 0,0 9.767,8.047 -10.757,14.273 -39.026,11.823 -162.432,15.393 -196.714003,0.471 -12.323,-5.36 10.787,-12.8 18.056,-14.362 7.581,-1.644 11.914,-1.337 11.914,-1.337 -13.705,-9.655 -88.5829995,18.957 -38.034,27.15 C 196.73285,343.993 310.17185,311.571 274.41485,295.442 M 129.95085,190.48 c 0,0 -62.771003,14.91 -22.228,20.323 17.118,2.292 51.243,1.774 83.03,-0.89 25.978,-2.19 52.063,-6.85 52.063,-6.85 0,0 -9.16,3.923 -15.787,8.448 -63.744,16.765 -186.886003,8.966 -151.435003,-8.183 29.981003,-14.492 54.358003,-12.848 54.358003,-12.848 m 112.605,62.942 c 64.8,-33.672 34.839,-66.03 13.927,-61.67 -5.126,1.066 -7.411,1.99 -7.411,1.99 0,0 1.903,-2.98 5.537,-4.27 41.37,-14.545 73.187,42.897 -13.355,65.647 0,0.001 1.003,-0.895 1.302,-1.697"
     id="path6"
     inkscape:connector-curvature="0"
     style="fill:#5382a1" />
  <path
     d="m 203.48985,0.371 c 0,0 35.887,35.9 -34.037,91.101 -56.071,44.282 -12.786,69.53 -0.023,98.377 -32.73,-29.53 -56.75,-55.526 -40.635,-79.72 23.651,-35.517 89.174,-52.736 74.695,-109.759"
     id="path8"
     inkscape:connector-curvature="0"
     style="fill:#e76f00" />
  <path
     d="m 136.31885,344.665 c 62.199,3.982 157.712,-2.209 159.974,-31.64 0,0 -4.348,11.158 -51.404,20.018 -53.088,9.99 -118.564,8.824 -157.399003,2.421 0.001,0 7.95,6.58 48.830003,9.201"
     id="path10"
     inkscape:connector-curvature="0"
     style="fill:#5382a1" />
</svg>
