<?xml version="1.0" encoding="UTF-8" standalone="no"?>
<svg
   xmlns:dc="http://purl.org/dc/elements/1.1/"
   xmlns:cc="http://creativecommons.org/ns#"
   xmlns:rdf="http://www.w3.org/1999/02/22-rdf-syntax-ns#"
   xmlns:svg="http://www.w3.org/2000/svg"
   xmlns="http://www.w3.org/2000/svg"
   xmlns:sodipodi="http://sodipodi.sourceforge.net/DTD/sodipodi-0.dtd"
   xmlns:inkscape="http://www.inkscape.org/namespaces/inkscape"
   width="700"
   height="488"
   viewBox="0 0 143.36 100"
   preserveAspectRatio="xMidYMid"
   version="1.1"
   id="svg11"
   sodipodi:docname="opencart.svg"
   inkscape:version="0.92.4 (5da689c313, 2019-01-14)">
  <metadata
     id="metadata15">
    <rdf:RDF>
      <cc:Work
         rdf:about="">
        <dc:format>image/svg+xml</dc:format>
        <dc:type
           rdf:resource="http://purl.org/dc/dcmitype/StillImage" />
        <dc:title></dc:title>
      </cc:Work>
    </rdf:RDF>
  </metadata>
  <sodipodi:namedview
     pagecolor="#ffffff"
     bordercolor="#666666"
     borderopacity="1"
     objecttolerance="10"
     gridtolerance="10"
     guidetolerance="10"
     inkscape:pageopacity="0"
     inkscape:pageshadow="2"
     inkscape:window-width="1920"
     inkscape:window-height="1017"
     id="namedview13"
     showgrid="false"
     inkscape:zoom="0.1516"
     inkscape:cx="1250"
     inkscape:cy="244"
     inkscape:window-x="-8"
     inkscape:window-y="-8"
     inkscape:window-maximized="1"
     inkscape:current-layer="svg11" />
  <defs
     id="defs7">
    <linearGradient
       x1="112.8743"
       y1="179.62852"
       x2="112.8743"
       y2="1.0523565"
       id="a"
       gradientTransform="matrix(2.1901788,0,0,0.44091524,-366.31321,6.7585103)"
       gradientUnits="userSpaceOnUse">
      <stop
         stop-color="#04B6F0"
         offset="0%"
         id="stop2" />
      <stop
         stop-color="#3ECAF0"
         offset="100%"
         id="stop4" />
    </linearGradient>
  </defs>
  <path
     d="m -366.31321,59.11151 c -0.095,29.962397 -0.0475,14.981199 0,0 z m 54.70595,45.337 c -26.9933,-0.26227 -13.49665,-0.13113 0,0 z m 303.8425867,-89.05 c -229.5550267,59.104397 -114.7775067,29.552199 0,0 z m 135.8812933,15.626 c -0.0396,-4.631 -8.30295,-6.733 -29.693803,-6.733 -50.19235,0 -62.92585,-2.22 -76.55356,-17.0689997 5.73229,8.9159997 8.86883,25.6389997 61.92057,24.8069997 55.351033,-0.883 21.583983,14.779 11.75912,32.474 17.717393,-16.376 32.514563,-27.17 32.567673,-33.412 z m -70.530613,47.553 c -0.002,4.333483 -3.39391,7.845896 -7.57868,7.847 -4.19975,0 -7.59509,-3.516 -7.59509,-7.847 -0.003,-4.345255 3.39895,-7.868765 7.59509,-7.866 4.18431,0 7.57868,3.517 7.57868,7.866 z m 34.56471,0 c -0.002,4.333483 -3.39392,7.845896 -7.57869,7.847 -4.19589,0 -7.59413,-3.516 -7.59413,-7.847 -0.003,-4.344864 3.39838,-7.868212 7.59413,-7.866 4.1843,0 7.57869,3.517 7.57869,7.866 z"
     id="path9"
     inkscape:connector-curvature="0"
     style="fill:url(#a);stroke-width:0.98269182"
     sodipodi:nodetypes="cccccccsccccccccccccccc" />
</svg>
