<svg width="269" height="39" viewBox="0 0 269 39" fill="none" xmlns="http://www.w3.org/2000/svg">
<g clip-path="url(#clip0_2808_19405)">
<path d="M22.7831 1.61633V37.591H16.7931V6.78531H6.6055V37.591H0.603943V1.61633H22.7831Z" fill="#1928DC"/>
<path d="M30.3459 36.1685C28.5467 34.5182 27.2415 32.4003 26.5761 30.0513C25.6013 26.7618 25.1487 23.3397 25.2348 19.9099C25.1516 16.3929 25.6039 12.8836 26.5761 9.50259C27.2364 7.08483 28.5391 4.89102 30.3459 3.15413C31.9296 1.79909 33.9452 1.05444 36.0295 1.05444C38.1137 1.05444 40.1294 1.79909 41.713 3.15413C43.5177 4.87036 44.8141 7.05104 45.4597 9.45634C46.4255 12.8387 46.8777 16.347 46.8011 19.8637C46.8881 23.3125 46.4355 26.7538 45.4597 30.0628C44.8126 32.4111 43.5136 34.528 41.713 36.1685C40.1032 37.4765 38.0922 38.1905 36.0179 38.1905C33.9437 38.1905 31.9326 37.4765 30.3228 36.1685H30.3459ZM31.8261 27.0794C32.062 28.621 32.6388 30.0906 33.5144 31.3811C33.7894 31.7997 34.1609 32.1462 34.5975 32.3917C35.0341 32.6371 35.5231 32.7744 36.0237 32.7919C37.5038 32.7919 38.6718 31.7165 39.4928 29.5425C40.5072 26.4365 40.9614 23.1749 40.8342 19.9099C40.8704 17.4074 40.6769 14.9069 40.256 12.4398C40.0003 10.8351 39.4093 9.3024 38.5214 7.9415C38.2564 7.50123 37.8863 7.13349 37.4444 6.87117C37.0025 6.60884 36.5024 6.46009 35.989 6.43822C35.4848 6.46641 34.9953 6.6183 34.5637 6.88047C34.1322 7.14265 33.7718 7.50705 33.5144 7.9415C32.6383 9.31657 32.063 10.8613 31.8261 12.4745C31.3861 14.9355 31.1847 17.4333 31.2248 19.9331C31.1858 22.3293 31.3873 24.7234 31.8261 27.0794Z" fill="#1928DC"/>
<path d="M63.2563 1.61633V15.4118H60.0879C58.9323 15.4603 57.781 15.2427 56.7228 14.7758C55.8863 14.3358 55.2464 13.5967 54.9304 12.7059C54.5047 11.4725 54.3125 10.1706 54.3638 8.86677V1.61633H48.3738V8.86677C48.1936 12.0042 49.1273 15.1045 51.0104 17.6205C52.768 19.7405 55.393 20.8005 58.8852 20.8005H63.2563V37.591H69.2579V1.61633H63.2563Z" fill="#1928DC"/>
<path d="M91.8288 6.78531H84.7749V37.591H78.808V6.78531H71.7657V1.61633H91.8288V6.78531Z" fill="#1928DC"/>
<path d="M100.356 1.61642H105.155C107.127 1.5388 109.079 2.0457 110.764 3.07345C112.247 4.07064 113.398 5.488 114.071 7.14387C114.9 9.19539 115.422 11.3579 115.62 13.5617L118.419 37.5911H112.429L110.474 20.8006H100.356V37.5911H94.3663V1.61642H100.356ZM100.356 15.6316H109.885L109.607 13.5617C109.502 12.2339 109.23 10.9247 108.798 9.66476C108.492 8.81826 107.899 8.10609 107.121 7.65267C106.112 7.17388 104.999 6.95524 103.883 7.01667H100.356V15.6316Z" fill="#1928DC"/>
<path d="M143.254 1.61655C145.253 1.56863 147.225 2.08567 148.944 3.10827C150.629 4.18074 151.941 5.7478 152.702 7.59498C153.662 9.94481 154.119 12.4699 154.043 15.0073C154.099 17.4154 153.67 19.8102 152.783 22.0496C152.121 23.7572 151.062 25.2831 149.695 26.5016C148.748 27.3882 147.521 27.9159 146.226 27.9933C145.559 28.0362 144.89 27.9309 144.269 27.685C143.647 27.439 143.087 27.0586 142.63 26.571V37.5912H136.64V1.61655H143.254ZM142.988 20.2919C143.14 20.9339 143.445 21.5292 143.879 22.0265C144.021 22.1977 144.197 22.3374 144.396 22.437C144.595 22.5365 144.813 22.5936 145.035 22.6047C145.558 22.5754 146.05 22.348 146.411 21.9687C146.963 21.3815 147.361 20.6662 147.567 19.8872C147.901 18.6908 148.053 17.4513 148.018 16.2099C148.018 12.8488 147.61 10.4743 146.793 9.0867C146.448 8.4469 145.932 7.91497 145.304 7.54968C144.675 7.1844 143.958 6.99998 143.231 7.0168H142.63V17.4241C142.619 18.3919 142.74 19.3566 142.988 20.2919Z" fill="#1928DC"/>
<path d="M160.715 36.1692C158.912 34.522 157.606 32.403 156.945 30.052C155.966 26.7632 155.509 23.341 155.592 19.9106C155.511 16.3929 155.967 12.8834 156.945 9.50327C157.599 7.08298 158.903 4.88767 160.715 3.1548C162.274 1.76922 164.295 1.0183 166.381 1.05021C168.475 1.01539 170.507 1.76152 172.082 3.14323C173.892 4.87061 175.193 7.06297 175.84 9.48014C176.801 12.8632 177.25 16.3714 177.17 19.8875C177.253 23.3193 176.808 26.7435 175.852 30.0404C175.2 32.3866 173.902 34.5023 172.105 36.146C170.486 37.4986 168.432 38.2177 166.323 38.1697C164.275 38.1906 162.287 37.4814 160.715 36.1692ZM162.183 27.0801C162.43 28.6188 163.006 30.0861 163.872 31.3818C164.147 31.7997 164.519 32.1457 164.955 32.3911C165.392 32.6365 165.881 32.7741 166.381 32.7926C167.873 32.7926 169.029 31.7171 169.85 29.5432C170.845 26.4336 171.279 23.1721 171.134 19.9106C171.172 17.4075 170.975 14.9064 170.544 12.4404C170.319 10.8458 169.768 9.31451 168.925 7.94217C168.677 7.4886 168.312 7.11011 167.867 6.84644C167.422 6.58277 166.915 6.44363 166.398 6.44363C165.881 6.44363 165.374 6.58277 164.929 6.84644C164.485 7.11011 164.119 7.4886 163.872 7.94217C163.004 9.32148 162.429 10.8644 162.183 12.4751C161.754 14.9374 161.556 17.4345 161.593 19.9337C161.557 22.3294 161.755 24.7228 162.183 27.0801Z" fill="#1928DC"/>
<path d="M181.322 9.75731C182.797 7.06534 185.1 4.9203 187.89 3.64011C191.146 2.21726 194.675 1.52646 198.228 1.61646V7.01671C193.972 7.01671 190.711 8.09599 188.445 10.2545C186.132 12.4054 185.045 15.6317 185.045 19.9102C185.045 24.1888 186.201 27.1144 188.433 29.1612C190.665 31.208 193.949 32.2256 198.228 32.2256V37.6258C192.11 37.6258 187.369 36.1457 184.039 33.1854C180.709 30.225 179.043 25.8193 179.043 19.9449C178.917 16.4099 179.701 12.9017 181.322 9.75731Z" fill="#1928DC"/>
<path d="M201.5 9.75731C202.975 7.06534 205.278 4.9203 208.068 3.64011C211.324 2.21726 214.853 1.52646 218.406 1.61646V7.01671C214.15 7.01671 210.889 8.09599 208.623 10.2545C206.31 12.4054 205.223 15.6317 205.223 19.9102C205.223 24.1888 206.379 27.1144 208.611 29.1612C210.843 31.208 214.127 32.2256 218.406 32.2256V37.6258C212.289 37.6258 207.547 36.1457 204.217 33.1854C200.887 30.225 199.256 25.7846 199.256 19.9102C199.125 16.3899 199.897 12.8946 201.5 9.75731Z" fill="#1928DC"/>
<path d="M227.217 1.61626V14.4635L237.416 5.8717L243.383 0.853058V37.6256H237.416V13.1106L227.228 21.7024V37.5909H221.227V1.61626H227.217Z" fill="#1928DC"/>
<path d="M252.208 1.61626V14.4635L262.407 5.8717L268.374 0.853058V37.6256H262.384V13.1106L252.184 21.7024V37.5909H246.194V1.61626H252.208Z" fill="#1928DC"/>
</g>
<defs>
<clipPath id="clip0_2808_19405">
<rect width="267.792" height="37.3623" fill="white" transform="translate(0.603943 0.818848)"/>
</clipPath>
</defs>
</svg>
