<?xml version="1.0" encoding="UTF-8" standalone="no"?>
<!-- Generator: Adobe Illustrator 23.0.3, SVG Export Plug-In . SVG Version: 6.00 Build 0)  -->

<svg
   xmlns:dc="http://purl.org/dc/elements/1.1/"
   xmlns:cc="http://creativecommons.org/ns#"
   xmlns:rdf="http://www.w3.org/1999/02/22-rdf-syntax-ns#"
   xmlns:svg="http://www.w3.org/2000/svg"
   xmlns="http://www.w3.org/2000/svg"
   xmlns:sodipodi="http://sodipodi.sourceforge.net/DTD/sodipodi-0.dtd"
   xmlns:inkscape="http://www.inkscape.org/namespaces/inkscape"
   version="1.1"
   id="Layer_1"
   x="0px"
   y="0px"
   viewBox="0 0 300 300"
   style="enable-background:new 0 0 300 300;"
   xml:space="preserve"
   sodipodi:docname="tilda.svg"
   inkscape:version="0.92.4 (5da689c313, 2019-01-14)"><metadata
   id="metadata17"><rdf:RDF><cc:Work
       rdf:about=""><dc:format>image/svg+xml</dc:format><dc:type
         rdf:resource="http://purl.org/dc/dcmitype/StillImage" /></cc:Work></rdf:RDF></metadata><defs
   id="defs15" /><sodipodi:namedview
   pagecolor="#ffffff"
   bordercolor="#666666"
   borderopacity="1"
   objecttolerance="10"
   gridtolerance="10"
   guidetolerance="10"
   inkscape:pageopacity="0"
   inkscape:pageshadow="2"
   inkscape:window-width="1920"
   inkscape:window-height="1017"
   id="namedview13"
   showgrid="false"
   inkscape:zoom="0.78666667"
   inkscape:cx="150"
   inkscape:cy="150"
   inkscape:window-x="-8"
   inkscape:window-y="-8"
   inkscape:window-maximized="1"
   inkscape:current-layer="Layer_1" />
<title
   id="title2">white_tilda_logoAsset 2</title>
<g
   id="g10"
   style="fill:#ffffff">
	<path
   d="M157.3,133.1v104h-19.4V125.8L157.3,133.1z"
   id="path4"
   style="fill:#ffffff" />
	<path
   d="M79.8,123.4c0-26.6,14.5-41.1,31.5-41.1s19.4,2.4,38.7,12.1s24.2,12.1,33.9,12.1c9.7,0,14.5-7.3,14.5-21.8h16.9   c2.4,29-14.5,41.1-31.5,41.1s-21.8-2.4-38.7-12.1s-21.8-12.1-31.5-12.1s-14.5,7.3-16.9,24.2L79.8,123.4z"
   id="path6"
   style="fill:#ffffff" />
	<path
   d="M150,300C67.3,300,0,232.7,0,150C0,67.3,67.3,0,150,0c82.7,0,150,67.3,150,150C300,232.7,232.7,300,150,300z M150,9.7   C72.6,9.7,9.7,72.6,9.7,150S72.6,290.3,150,290.3S290.3,227.4,290.3,150S227.4,9.7,150,9.7z"
   id="path8"
   style="fill:#ffffff" />
</g>
</svg>