<?xml version="1.0" encoding="utf-8"?>
<!-- Generator: Adobe Illustrator 25.0.1, SVG Export Plug-In . SVG Version: 6.00 Build 0)  -->
<svg version="1.0" id="katman_1" xmlns="http://www.w3.org/2000/svg" xmlns:xlink="http://www.w3.org/1999/xlink" x="0px" y="0px"
	 viewBox="0 0 117 86" style="enable-background:new 0 0 117 86;" xml:space="preserve">
<style type="text/css">
	.st0{fill:#8B3FFD;}
</style>
<path class="st0" d="M66.3,23c-11.1,0-20,9-20,20c0,11.1,9,20,20,20c11,0,20-9,20-20S77.3,23,66.3,23z M66.3,50.3
	c-4.1,0-7.5-3.4-7.5-7.5c0-4.1,3.4-7.5,7.5-7.5c4.1,0,7.5,3.4,7.5,7.5C73.7,47.1,70.4,50.3,66.3,50.3L66.3,50.3z M46.2,28.7v29.1
	h-7.1L30,28.7H46.2z"/>
</svg>
